<?xml version="1.0" encoding="utf-8" standalone="no"?>
<!DOCTYPE svg PUBLIC "-//W3C//DTD SVG 1.1//EN"
  "http://www.w3.org/Graphics/SVG/1.1/DTD/svg11.dtd">
<!-- Created with matplotlib (https://matplotlib.org/) -->
<svg height="720pt" version="1.1" viewBox="0 0 1080 720" width="1080pt" xmlns="http://www.w3.org/2000/svg" xmlns:xlink="http://www.w3.org/1999/xlink">
 <defs>
  <style type="text/css">
*{stroke-linecap:butt;stroke-linejoin:round;}
  </style>
 </defs>
 <g id="figure_1">
  <g id="patch_1">
   <path d="M 0 720 
L 1080 720 
L 1080 0 
L 0 0 
z
" style="fill:#ffffff;"/>
  </g>
  <g id="axes_1">
   <g id="patch_2">
    <path d="M 135 640.8 
L 972 640.8 
L 972 86.4 
L 135 86.4 
z
" style="fill:#ffffff;"/>
   </g>
   <g id="matplotlib.axis_1">
    <g id="xtick_1">
     <g id="line2d_1">
      <defs>
       <path d="M 0 0 
L 0 3.5 
" id="mdd7fcf9b47" style="stroke:#000000;stroke-width:0.8;"/>
      </defs>
      <g>
       <use style="stroke:#000000;stroke-width:0.8;" x="173.045455" xlink:href="#mdd7fcf9b47" y="640.8"/>
      </g>
     </g>
     <g id="text_1">
      <!-- 0 -->
      <defs>
       <path d="M 31.78125 66.40625 
Q 24.171875 66.40625 20.328125 58.90625 
Q 16.5 51.421875 16.5 36.375 
Q 16.5 21.390625 20.328125 13.890625 
Q 24.171875 6.390625 31.78125 6.390625 
Q 39.453125 6.390625 43.28125 13.890625 
Q 47.125 21.390625 47.125 36.375 
Q 47.125 51.421875 43.28125 58.90625 
Q 39.453125 66.40625 31.78125 66.40625 
z
M 31.78125 74.21875 
Q 44.046875 74.21875 50.515625 64.515625 
Q 56.984375 54.828125 56.984375 36.375 
Q 56.984375 17.96875 50.515625 8.265625 
Q 44.046875 -1.421875 31.78125 -1.421875 
Q 19.53125 -1.421875 13.0625 8.265625 
Q 6.59375 17.96875 6.59375 36.375 
Q 6.59375 54.828125 13.0625 64.515625 
Q 19.53125 74.21875 31.78125 74.21875 
z
" id="DejaVuSans-48"/>
      </defs>
      <g transform="translate(169.864205 655.398438)scale(0.1 -0.1)">
       <use xlink:href="#DejaVuSans-48"/>
      </g>
     </g>
    </g>
    <g id="xtick_2">
     <g id="line2d_2">
      <g>
       <use style="stroke:#000000;stroke-width:0.8;" x="282.371473" xlink:href="#mdd7fcf9b47" y="640.8"/>
      </g>
     </g>
     <g id="text_2">
      <!-- 25 -->
      <defs>
       <path d="M 19.1875 8.296875 
L 53.609375 8.296875 
L 53.609375 0 
L 7.328125 0 
L 7.328125 8.296875 
Q 12.9375 14.109375 22.625 23.890625 
Q 32.328125 33.6875 34.8125 36.53125 
Q 39.546875 41.84375 41.421875 45.53125 
Q 43.3125 49.21875 43.3125 52.78125 
Q 43.3125 58.59375 39.234375 62.25 
Q 35.15625 65.921875 28.609375 65.921875 
Q 23.96875 65.921875 18.8125 64.3125 
Q 13.671875 62.703125 7.8125 59.421875 
L 7.8125 69.390625 
Q 13.765625 71.78125 18.9375 73 
Q 24.125 74.21875 28.421875 74.21875 
Q 39.75 74.21875 46.484375 68.546875 
Q 53.21875 62.890625 53.21875 53.421875 
Q 53.21875 48.921875 51.53125 44.890625 
Q 49.859375 40.875 45.40625 35.40625 
Q 44.1875 33.984375 37.640625 27.21875 
Q 31.109375 20.453125 19.1875 8.296875 
z
" id="DejaVuSans-50"/>
       <path d="M 10.796875 72.90625 
L 49.515625 72.90625 
L 49.515625 64.59375 
L 19.828125 64.59375 
L 19.828125 46.734375 
Q 21.96875 47.46875 24.109375 47.828125 
Q 26.265625 48.1875 28.421875 48.1875 
Q 40.625 48.1875 47.75 41.5 
Q 54.890625 34.8125 54.890625 23.390625 
Q 54.890625 11.625 47.5625 5.09375 
Q 40.234375 -1.421875 26.90625 -1.421875 
Q 22.3125 -1.421875 17.546875 -0.640625 
Q 12.796875 0.140625 7.71875 1.703125 
L 7.71875 11.625 
Q 12.109375 9.234375 16.796875 8.0625 
Q 21.484375 6.890625 26.703125 6.890625 
Q 35.15625 6.890625 40.078125 11.328125 
Q 45.015625 15.765625 45.015625 23.390625 
Q 45.015625 31 40.078125 35.4375 
Q 35.15625 39.890625 26.703125 39.890625 
Q 22.75 39.890625 18.8125 39.015625 
Q 14.890625 38.140625 10.796875 36.28125 
z
" id="DejaVuSans-53"/>
      </defs>
      <g transform="translate(276.008973 655.398438)scale(0.1 -0.1)">
       <use xlink:href="#DejaVuSans-50"/>
       <use x="63.623047" xlink:href="#DejaVuSans-53"/>
      </g>
     </g>
    </g>
    <g id="xtick_3">
     <g id="line2d_3">
      <g>
       <use style="stroke:#000000;stroke-width:0.8;" x="391.697492" xlink:href="#mdd7fcf9b47" y="640.8"/>
      </g>
     </g>
     <g id="text_3">
      <!-- 50 -->
      <g transform="translate(385.334992 655.398438)scale(0.1 -0.1)">
       <use xlink:href="#DejaVuSans-53"/>
       <use x="63.623047" xlink:href="#DejaVuSans-48"/>
      </g>
     </g>
    </g>
    <g id="xtick_4">
     <g id="line2d_4">
      <g>
       <use style="stroke:#000000;stroke-width:0.8;" x="501.023511" xlink:href="#mdd7fcf9b47" y="640.8"/>
      </g>
     </g>
     <g id="text_4">
      <!-- 75 -->
      <defs>
       <path d="M 8.203125 72.90625 
L 55.078125 72.90625 
L 55.078125 68.703125 
L 28.609375 0 
L 18.3125 0 
L 43.21875 64.59375 
L 8.203125 64.59375 
z
" id="DejaVuSans-55"/>
      </defs>
      <g transform="translate(494.661011 655.398438)scale(0.1 -0.1)">
       <use xlink:href="#DejaVuSans-55"/>
       <use x="63.623047" xlink:href="#DejaVuSans-53"/>
      </g>
     </g>
    </g>
    <g id="xtick_5">
     <g id="line2d_5">
      <g>
       <use style="stroke:#000000;stroke-width:0.8;" x="610.34953" xlink:href="#mdd7fcf9b47" y="640.8"/>
      </g>
     </g>
     <g id="text_5">
      <!-- 100 -->
      <defs>
       <path d="M 12.40625 8.296875 
L 28.515625 8.296875 
L 28.515625 63.921875 
L 10.984375 60.40625 
L 10.984375 69.390625 
L 28.421875 72.90625 
L 38.28125 72.90625 
L 38.28125 8.296875 
L 54.390625 8.296875 
L 54.390625 0 
L 12.40625 0 
z
" id="DejaVuSans-49"/>
      </defs>
      <g transform="translate(600.80578 655.398438)scale(0.1 -0.1)">
       <use xlink:href="#DejaVuSans-49"/>
       <use x="63.623047" xlink:href="#DejaVuSans-48"/>
       <use x="127.246094" xlink:href="#DejaVuSans-48"/>
      </g>
     </g>
    </g>
    <g id="xtick_6">
     <g id="line2d_6">
      <g>
       <use style="stroke:#000000;stroke-width:0.8;" x="719.675549" xlink:href="#mdd7fcf9b47" y="640.8"/>
      </g>
     </g>
     <g id="text_6">
      <!-- 125 -->
      <g transform="translate(710.131799 655.398438)scale(0.1 -0.1)">
       <use xlink:href="#DejaVuSans-49"/>
       <use x="63.623047" xlink:href="#DejaVuSans-50"/>
       <use x="127.246094" xlink:href="#DejaVuSans-53"/>
      </g>
     </g>
    </g>
    <g id="xtick_7">
     <g id="line2d_7">
      <g>
       <use style="stroke:#000000;stroke-width:0.8;" x="829.001567" xlink:href="#mdd7fcf9b47" y="640.8"/>
      </g>
     </g>
     <g id="text_7">
      <!-- 150 -->
      <g transform="translate(819.457817 655.398438)scale(0.1 -0.1)">
       <use xlink:href="#DejaVuSans-49"/>
       <use x="63.623047" xlink:href="#DejaVuSans-53"/>
       <use x="127.246094" xlink:href="#DejaVuSans-48"/>
      </g>
     </g>
    </g>
    <g id="xtick_8">
     <g id="line2d_8">
      <g>
       <use style="stroke:#000000;stroke-width:0.8;" x="938.327586" xlink:href="#mdd7fcf9b47" y="640.8"/>
      </g>
     </g>
     <g id="text_8">
      <!-- 175 -->
      <g transform="translate(928.783836 655.398438)scale(0.1 -0.1)">
       <use xlink:href="#DejaVuSans-49"/>
       <use x="63.623047" xlink:href="#DejaVuSans-55"/>
       <use x="127.246094" xlink:href="#DejaVuSans-53"/>
      </g>
     </g>
    </g>
    <g id="text_9">
     <!-- Time -->
     <defs>
      <path d="M -0.296875 72.90625 
L 61.375 72.90625 
L 61.375 64.59375 
L 35.5 64.59375 
L 35.5 0 
L 25.59375 0 
L 25.59375 64.59375 
L -0.296875 64.59375 
z
" id="DejaVuSans-84"/>
      <path d="M 9.421875 54.6875 
L 18.40625 54.6875 
L 18.40625 0 
L 9.421875 0 
z
M 9.421875 75.984375 
L 18.40625 75.984375 
L 18.40625 64.59375 
L 9.421875 64.59375 
z
" id="DejaVuSans-105"/>
      <path d="M 52 44.1875 
Q 55.375 50.25 60.0625 53.125 
Q 64.75 56 71.09375 56 
Q 79.640625 56 84.28125 50.015625 
Q 88.921875 44.046875 88.921875 33.015625 
L 88.921875 0 
L 79.890625 0 
L 79.890625 32.71875 
Q 79.890625 40.578125 77.09375 44.375 
Q 74.3125 48.1875 68.609375 48.1875 
Q 61.625 48.1875 57.5625 43.546875 
Q 53.515625 38.921875 53.515625 30.90625 
L 53.515625 0 
L 44.484375 0 
L 44.484375 32.71875 
Q 44.484375 40.625 41.703125 44.40625 
Q 38.921875 48.1875 33.109375 48.1875 
Q 26.21875 48.1875 22.15625 43.53125 
Q 18.109375 38.875 18.109375 30.90625 
L 18.109375 0 
L 9.078125 0 
L 9.078125 54.6875 
L 18.109375 54.6875 
L 18.109375 46.1875 
Q 21.1875 51.21875 25.484375 53.609375 
Q 29.78125 56 35.6875 56 
Q 41.65625 56 45.828125 52.96875 
Q 50 49.953125 52 44.1875 
z
" id="DejaVuSans-109"/>
      <path d="M 56.203125 29.59375 
L 56.203125 25.203125 
L 14.890625 25.203125 
Q 15.484375 15.921875 20.484375 11.0625 
Q 25.484375 6.203125 34.421875 6.203125 
Q 39.59375 6.203125 44.453125 7.46875 
Q 49.3125 8.734375 54.109375 11.28125 
L 54.109375 2.78125 
Q 49.265625 0.734375 44.1875 -0.34375 
Q 39.109375 -1.421875 33.890625 -1.421875 
Q 20.796875 -1.421875 13.15625 6.1875 
Q 5.515625 13.8125 5.515625 26.8125 
Q 5.515625 40.234375 12.765625 48.109375 
Q 20.015625 56 32.328125 56 
Q 43.359375 56 49.78125 48.890625 
Q 56.203125 41.796875 56.203125 29.59375 
z
M 47.21875 32.234375 
Q 47.125 39.59375 43.09375 43.984375 
Q 39.0625 48.390625 32.421875 48.390625 
Q 24.90625 48.390625 20.390625 44.140625 
Q 15.875 39.890625 15.1875 32.171875 
z
" id="DejaVuSans-101"/>
     </defs>
     <g transform="translate(538.635 670.59625)scale(0.12 -0.12)">
      <use xlink:href="#DejaVuSans-84"/>
      <use x="61.037109" xlink:href="#DejaVuSans-105"/>
      <use x="88.820312" xlink:href="#DejaVuSans-109"/>
      <use x="186.232422" xlink:href="#DejaVuSans-101"/>
     </g>
    </g>
   </g>
   <g id="matplotlib.axis_2">
    <g id="ytick_1">
     <g id="line2d_9">
      <defs>
       <path d="M 0 0 
L -3.5 0 
" id="m1ea43a65ec" style="stroke:#000000;stroke-width:0.8;"/>
      </defs>
      <g>
       <use style="stroke:#000000;stroke-width:0.8;" x="135" xlink:href="#m1ea43a65ec" y="640.8"/>
      </g>
     </g>
     <g id="text_10">
      <!-- 0 -->
      <g transform="translate(121.6375 644.599219)scale(0.1 -0.1)">
       <use xlink:href="#DejaVuSans-48"/>
      </g>
     </g>
    </g>
    <g id="ytick_2">
     <g id="line2d_10">
      <g>
       <use style="stroke:#000000;stroke-width:0.8;" x="135" xlink:href="#m1ea43a65ec" y="540"/>
      </g>
     </g>
     <g id="text_11">
      <!-- 100 -->
      <g transform="translate(108.9125 543.799219)scale(0.1 -0.1)">
       <use xlink:href="#DejaVuSans-49"/>
       <use x="63.623047" xlink:href="#DejaVuSans-48"/>
       <use x="127.246094" xlink:href="#DejaVuSans-48"/>
      </g>
     </g>
    </g>
    <g id="ytick_3">
     <g id="line2d_11">
      <g>
       <use style="stroke:#000000;stroke-width:0.8;" x="135" xlink:href="#m1ea43a65ec" y="439.2"/>
      </g>
     </g>
     <g id="text_12">
      <!-- 200 -->
      <g transform="translate(108.9125 442.999219)scale(0.1 -0.1)">
       <use xlink:href="#DejaVuSans-50"/>
       <use x="63.623047" xlink:href="#DejaVuSans-48"/>
       <use x="127.246094" xlink:href="#DejaVuSans-48"/>
      </g>
     </g>
    </g>
    <g id="ytick_4">
     <g id="line2d_12">
      <g>
       <use style="stroke:#000000;stroke-width:0.8;" x="135" xlink:href="#m1ea43a65ec" y="338.4"/>
      </g>
     </g>
     <g id="text_13">
      <!-- 300 -->
      <defs>
       <path d="M 40.578125 39.3125 
Q 47.65625 37.796875 51.625 33 
Q 55.609375 28.21875 55.609375 21.1875 
Q 55.609375 10.40625 48.1875 4.484375 
Q 40.765625 -1.421875 27.09375 -1.421875 
Q 22.515625 -1.421875 17.65625 -0.515625 
Q 12.796875 0.390625 7.625 2.203125 
L 7.625 11.71875 
Q 11.71875 9.328125 16.59375 8.109375 
Q 21.484375 6.890625 26.8125 6.890625 
Q 36.078125 6.890625 40.9375 10.546875 
Q 45.796875 14.203125 45.796875 21.1875 
Q 45.796875 27.640625 41.28125 31.265625 
Q 36.765625 34.90625 28.71875 34.90625 
L 20.21875 34.90625 
L 20.21875 43.015625 
L 29.109375 43.015625 
Q 36.375 43.015625 40.234375 45.921875 
Q 44.09375 48.828125 44.09375 54.296875 
Q 44.09375 59.90625 40.109375 62.90625 
Q 36.140625 65.921875 28.71875 65.921875 
Q 24.65625 65.921875 20.015625 65.03125 
Q 15.375 64.15625 9.8125 62.3125 
L 9.8125 71.09375 
Q 15.4375 72.65625 20.34375 73.4375 
Q 25.25 74.21875 29.59375 74.21875 
Q 40.828125 74.21875 47.359375 69.109375 
Q 53.90625 64.015625 53.90625 55.328125 
Q 53.90625 49.265625 50.4375 45.09375 
Q 46.96875 40.921875 40.578125 39.3125 
z
" id="DejaVuSans-51"/>
      </defs>
      <g transform="translate(108.9125 342.199219)scale(0.1 -0.1)">
       <use xlink:href="#DejaVuSans-51"/>
       <use x="63.623047" xlink:href="#DejaVuSans-48"/>
       <use x="127.246094" xlink:href="#DejaVuSans-48"/>
      </g>
     </g>
    </g>
    <g id="ytick_5">
     <g id="line2d_13">
      <g>
       <use style="stroke:#000000;stroke-width:0.8;" x="135" xlink:href="#m1ea43a65ec" y="237.6"/>
      </g>
     </g>
     <g id="text_14">
      <!-- 400 -->
      <defs>
       <path d="M 37.796875 64.3125 
L 12.890625 25.390625 
L 37.796875 25.390625 
z
M 35.203125 72.90625 
L 47.609375 72.90625 
L 47.609375 25.390625 
L 58.015625 25.390625 
L 58.015625 17.1875 
L 47.609375 17.1875 
L 47.609375 0 
L 37.796875 0 
L 37.796875 17.1875 
L 4.890625 17.1875 
L 4.890625 26.703125 
z
" id="DejaVuSans-52"/>
      </defs>
      <g transform="translate(108.9125 241.399219)scale(0.1 -0.1)">
       <use xlink:href="#DejaVuSans-52"/>
       <use x="63.623047" xlink:href="#DejaVuSans-48"/>
       <use x="127.246094" xlink:href="#DejaVuSans-48"/>
      </g>
     </g>
    </g>
    <g id="ytick_6">
     <g id="line2d_14">
      <g>
       <use style="stroke:#000000;stroke-width:0.8;" x="135" xlink:href="#m1ea43a65ec" y="136.8"/>
      </g>
     </g>
     <g id="text_15">
      <!-- 500 -->
      <g transform="translate(108.9125 140.599219)scale(0.1 -0.1)">
       <use xlink:href="#DejaVuSans-53"/>
       <use x="63.623047" xlink:href="#DejaVuSans-48"/>
       <use x="127.246094" xlink:href="#DejaVuSans-48"/>
      </g>
     </g>
    </g>
    <g id="text_16">
     <!-- # Agents with Community Solar -->
     <defs>
      <path d="M 51.125 44 
L 36.921875 44 
L 32.8125 27.6875 
L 47.125 27.6875 
z
M 43.796875 71.78125 
L 38.71875 51.515625 
L 52.984375 51.515625 
L 58.109375 71.78125 
L 65.921875 71.78125 
L 60.890625 51.515625 
L 76.125 51.515625 
L 76.125 44 
L 58.984375 44 
L 54.984375 27.6875 
L 70.515625 27.6875 
L 70.515625 20.21875 
L 53.078125 20.21875 
L 48 0 
L 40.1875 0 
L 45.21875 20.21875 
L 30.90625 20.21875 
L 25.875 0 
L 18.015625 0 
L 23.09375 20.21875 
L 7.71875 20.21875 
L 7.71875 27.6875 
L 24.90625 27.6875 
L 29 44 
L 13.28125 44 
L 13.28125 51.515625 
L 30.90625 51.515625 
L 35.890625 71.78125 
z
" id="DejaVuSans-35"/>
      <path id="DejaVuSans-32"/>
      <path d="M 34.1875 63.1875 
L 20.796875 26.90625 
L 47.609375 26.90625 
z
M 28.609375 72.90625 
L 39.796875 72.90625 
L 67.578125 0 
L 57.328125 0 
L 50.6875 18.703125 
L 17.828125 18.703125 
L 11.1875 0 
L 0.78125 0 
z
" id="DejaVuSans-65"/>
      <path d="M 45.40625 27.984375 
Q 45.40625 37.75 41.375 43.109375 
Q 37.359375 48.484375 30.078125 48.484375 
Q 22.859375 48.484375 18.828125 43.109375 
Q 14.796875 37.75 14.796875 27.984375 
Q 14.796875 18.265625 18.828125 12.890625 
Q 22.859375 7.515625 30.078125 7.515625 
Q 37.359375 7.515625 41.375 12.890625 
Q 45.40625 18.265625 45.40625 27.984375 
z
M 54.390625 6.78125 
Q 54.390625 -7.171875 48.1875 -13.984375 
Q 42 -20.796875 29.203125 -20.796875 
Q 24.46875 -20.796875 20.265625 -20.09375 
Q 16.0625 -19.390625 12.109375 -17.921875 
L 12.109375 -9.1875 
Q 16.0625 -11.328125 19.921875 -12.34375 
Q 23.78125 -13.375 27.78125 -13.375 
Q 36.625 -13.375 41.015625 -8.765625 
Q 45.40625 -4.15625 45.40625 5.171875 
L 45.40625 9.625 
Q 42.625 4.78125 38.28125 2.390625 
Q 33.9375 0 27.875 0 
Q 17.828125 0 11.671875 7.65625 
Q 5.515625 15.328125 5.515625 27.984375 
Q 5.515625 40.671875 11.671875 48.328125 
Q 17.828125 56 27.875 56 
Q 33.9375 56 38.28125 53.609375 
Q 42.625 51.21875 45.40625 46.390625 
L 45.40625 54.6875 
L 54.390625 54.6875 
z
" id="DejaVuSans-103"/>
      <path d="M 54.890625 33.015625 
L 54.890625 0 
L 45.90625 0 
L 45.90625 32.71875 
Q 45.90625 40.484375 42.875 44.328125 
Q 39.84375 48.1875 33.796875 48.1875 
Q 26.515625 48.1875 22.3125 43.546875 
Q 18.109375 38.921875 18.109375 30.90625 
L 18.109375 0 
L 9.078125 0 
L 9.078125 54.6875 
L 18.109375 54.6875 
L 18.109375 46.1875 
Q 21.34375 51.125 25.703125 53.5625 
Q 30.078125 56 35.796875 56 
Q 45.21875 56 50.046875 50.171875 
Q 54.890625 44.34375 54.890625 33.015625 
z
" id="DejaVuSans-110"/>
      <path d="M 18.3125 70.21875 
L 18.3125 54.6875 
L 36.8125 54.6875 
L 36.8125 47.703125 
L 18.3125 47.703125 
L 18.3125 18.015625 
Q 18.3125 11.328125 20.140625 9.421875 
Q 21.96875 7.515625 27.59375 7.515625 
L 36.8125 7.515625 
L 36.8125 0 
L 27.59375 0 
Q 17.1875 0 13.234375 3.875 
Q 9.28125 7.765625 9.28125 18.015625 
L 9.28125 47.703125 
L 2.6875 47.703125 
L 2.6875 54.6875 
L 9.28125 54.6875 
L 9.28125 70.21875 
z
" id="DejaVuSans-116"/>
      <path d="M 44.28125 53.078125 
L 44.28125 44.578125 
Q 40.484375 46.53125 36.375 47.5 
Q 32.28125 48.484375 27.875 48.484375 
Q 21.1875 48.484375 17.84375 46.4375 
Q 14.5 44.390625 14.5 40.28125 
Q 14.5 37.15625 16.890625 35.375 
Q 19.28125 33.59375 26.515625 31.984375 
L 29.59375 31.296875 
Q 39.15625 29.25 43.1875 25.515625 
Q 47.21875 21.78125 47.21875 15.09375 
Q 47.21875 7.46875 41.1875 3.015625 
Q 35.15625 -1.421875 24.609375 -1.421875 
Q 20.21875 -1.421875 15.453125 -0.5625 
Q 10.6875 0.296875 5.421875 2 
L 5.421875 11.28125 
Q 10.40625 8.6875 15.234375 7.390625 
Q 20.0625 6.109375 24.8125 6.109375 
Q 31.15625 6.109375 34.5625 8.28125 
Q 37.984375 10.453125 37.984375 14.40625 
Q 37.984375 18.0625 35.515625 20.015625 
Q 33.0625 21.96875 24.703125 23.78125 
L 21.578125 24.515625 
Q 13.234375 26.265625 9.515625 29.90625 
Q 5.8125 33.546875 5.8125 39.890625 
Q 5.8125 47.609375 11.28125 51.796875 
Q 16.75 56 26.8125 56 
Q 31.78125 56 36.171875 55.265625 
Q 40.578125 54.546875 44.28125 53.078125 
z
" id="DejaVuSans-115"/>
      <path d="M 4.203125 54.6875 
L 13.1875 54.6875 
L 24.421875 12.015625 
L 35.59375 54.6875 
L 46.1875 54.6875 
L 57.421875 12.015625 
L 68.609375 54.6875 
L 77.59375 54.6875 
L 63.28125 0 
L 52.6875 0 
L 40.921875 44.828125 
L 29.109375 0 
L 18.5 0 
z
" id="DejaVuSans-119"/>
      <path d="M 54.890625 33.015625 
L 54.890625 0 
L 45.90625 0 
L 45.90625 32.71875 
Q 45.90625 40.484375 42.875 44.328125 
Q 39.84375 48.1875 33.796875 48.1875 
Q 26.515625 48.1875 22.3125 43.546875 
Q 18.109375 38.921875 18.109375 30.90625 
L 18.109375 0 
L 9.078125 0 
L 9.078125 75.984375 
L 18.109375 75.984375 
L 18.109375 46.1875 
Q 21.34375 51.125 25.703125 53.5625 
Q 30.078125 56 35.796875 56 
Q 45.21875 56 50.046875 50.171875 
Q 54.890625 44.34375 54.890625 33.015625 
z
" id="DejaVuSans-104"/>
      <path d="M 64.40625 67.28125 
L 64.40625 56.890625 
Q 59.421875 61.53125 53.78125 63.8125 
Q 48.140625 66.109375 41.796875 66.109375 
Q 29.296875 66.109375 22.65625 58.46875 
Q 16.015625 50.828125 16.015625 36.375 
Q 16.015625 21.96875 22.65625 14.328125 
Q 29.296875 6.6875 41.796875 6.6875 
Q 48.140625 6.6875 53.78125 8.984375 
Q 59.421875 11.28125 64.40625 15.921875 
L 64.40625 5.609375 
Q 59.234375 2.09375 53.4375 0.328125 
Q 47.65625 -1.421875 41.21875 -1.421875 
Q 24.65625 -1.421875 15.125 8.703125 
Q 5.609375 18.84375 5.609375 36.375 
Q 5.609375 53.953125 15.125 64.078125 
Q 24.65625 74.21875 41.21875 74.21875 
Q 47.75 74.21875 53.53125 72.484375 
Q 59.328125 70.75 64.40625 67.28125 
z
" id="DejaVuSans-67"/>
      <path d="M 30.609375 48.390625 
Q 23.390625 48.390625 19.1875 42.75 
Q 14.984375 37.109375 14.984375 27.296875 
Q 14.984375 17.484375 19.15625 11.84375 
Q 23.34375 6.203125 30.609375 6.203125 
Q 37.796875 6.203125 41.984375 11.859375 
Q 46.1875 17.53125 46.1875 27.296875 
Q 46.1875 37.015625 41.984375 42.703125 
Q 37.796875 48.390625 30.609375 48.390625 
z
M 30.609375 56 
Q 42.328125 56 49.015625 48.375 
Q 55.71875 40.765625 55.71875 27.296875 
Q 55.71875 13.875 49.015625 6.21875 
Q 42.328125 -1.421875 30.609375 -1.421875 
Q 18.84375 -1.421875 12.171875 6.21875 
Q 5.515625 13.875 5.515625 27.296875 
Q 5.515625 40.765625 12.171875 48.375 
Q 18.84375 56 30.609375 56 
z
" id="DejaVuSans-111"/>
      <path d="M 8.5 21.578125 
L 8.5 54.6875 
L 17.484375 54.6875 
L 17.484375 21.921875 
Q 17.484375 14.15625 20.5 10.265625 
Q 23.53125 6.390625 29.59375 6.390625 
Q 36.859375 6.390625 41.078125 11.03125 
Q 45.3125 15.671875 45.3125 23.6875 
L 45.3125 54.6875 
L 54.296875 54.6875 
L 54.296875 0 
L 45.3125 0 
L 45.3125 8.40625 
Q 42.046875 3.421875 37.71875 1 
Q 33.40625 -1.421875 27.6875 -1.421875 
Q 18.265625 -1.421875 13.375 4.4375 
Q 8.5 10.296875 8.5 21.578125 
z
M 31.109375 56 
z
" id="DejaVuSans-117"/>
      <path d="M 32.171875 -5.078125 
Q 28.375 -14.84375 24.75 -17.8125 
Q 21.140625 -20.796875 15.09375 -20.796875 
L 7.90625 -20.796875 
L 7.90625 -13.28125 
L 13.1875 -13.28125 
Q 16.890625 -13.28125 18.9375 -11.515625 
Q 21 -9.765625 23.484375 -3.21875 
L 25.09375 0.875 
L 2.984375 54.6875 
L 12.5 54.6875 
L 29.59375 11.921875 
L 46.6875 54.6875 
L 56.203125 54.6875 
z
" id="DejaVuSans-121"/>
      <path d="M 53.515625 70.515625 
L 53.515625 60.890625 
Q 47.90625 63.578125 42.921875 64.890625 
Q 37.9375 66.21875 33.296875 66.21875 
Q 25.25 66.21875 20.875 63.09375 
Q 16.5 59.96875 16.5 54.203125 
Q 16.5 49.359375 19.40625 46.890625 
Q 22.3125 44.4375 30.421875 42.921875 
L 36.375 41.703125 
Q 47.40625 39.59375 52.65625 34.296875 
Q 57.90625 29 57.90625 20.125 
Q 57.90625 9.515625 50.796875 4.046875 
Q 43.703125 -1.421875 29.984375 -1.421875 
Q 24.8125 -1.421875 18.96875 -0.25 
Q 13.140625 0.921875 6.890625 3.21875 
L 6.890625 13.375 
Q 12.890625 10.015625 18.65625 8.296875 
Q 24.421875 6.59375 29.984375 6.59375 
Q 38.421875 6.59375 43.015625 9.90625 
Q 47.609375 13.234375 47.609375 19.390625 
Q 47.609375 24.75 44.3125 27.78125 
Q 41.015625 30.8125 33.5 32.328125 
L 27.484375 33.5 
Q 16.453125 35.6875 11.515625 40.375 
Q 6.59375 45.0625 6.59375 53.421875 
Q 6.59375 63.09375 13.40625 68.65625 
Q 20.21875 74.21875 32.171875 74.21875 
Q 37.3125 74.21875 42.625 73.28125 
Q 47.953125 72.359375 53.515625 70.515625 
z
" id="DejaVuSans-83"/>
      <path d="M 9.421875 75.984375 
L 18.40625 75.984375 
L 18.40625 0 
L 9.421875 0 
z
" id="DejaVuSans-108"/>
      <path d="M 34.28125 27.484375 
Q 23.390625 27.484375 19.1875 25 
Q 14.984375 22.515625 14.984375 16.5 
Q 14.984375 11.71875 18.140625 8.90625 
Q 21.296875 6.109375 26.703125 6.109375 
Q 34.1875 6.109375 38.703125 11.40625 
Q 43.21875 16.703125 43.21875 25.484375 
L 43.21875 27.484375 
z
M 52.203125 31.203125 
L 52.203125 0 
L 43.21875 0 
L 43.21875 8.296875 
Q 40.140625 3.328125 35.546875 0.953125 
Q 30.953125 -1.421875 24.3125 -1.421875 
Q 15.921875 -1.421875 10.953125 3.296875 
Q 6 8.015625 6 15.921875 
Q 6 25.140625 12.171875 29.828125 
Q 18.359375 34.515625 30.609375 34.515625 
L 43.21875 34.515625 
L 43.21875 35.40625 
Q 43.21875 41.609375 39.140625 45 
Q 35.0625 48.390625 27.6875 48.390625 
Q 23 48.390625 18.546875 47.265625 
Q 14.109375 46.140625 10.015625 43.890625 
L 10.015625 52.203125 
Q 14.9375 54.109375 19.578125 55.046875 
Q 24.21875 56 28.609375 56 
Q 40.484375 56 46.34375 49.84375 
Q 52.203125 43.703125 52.203125 31.203125 
z
" id="DejaVuSans-97"/>
      <path d="M 41.109375 46.296875 
Q 39.59375 47.171875 37.8125 47.578125 
Q 36.03125 48 33.890625 48 
Q 26.265625 48 22.1875 43.046875 
Q 18.109375 38.09375 18.109375 28.8125 
L 18.109375 0 
L 9.078125 0 
L 9.078125 54.6875 
L 18.109375 54.6875 
L 18.109375 46.1875 
Q 20.953125 51.171875 25.484375 53.578125 
Q 30.03125 56 36.53125 56 
Q 37.453125 56 38.578125 55.875 
Q 39.703125 55.765625 41.0625 55.515625 
z
" id="DejaVuSans-114"/>
     </defs>
     <g transform="translate(102.416875 459.885)rotate(-90)scale(0.12 -0.12)">
      <use xlink:href="#DejaVuSans-35"/>
      <use x="83.789062" xlink:href="#DejaVuSans-32"/>
      <use x="115.576172" xlink:href="#DejaVuSans-65"/>
      <use x="183.984375" xlink:href="#DejaVuSans-103"/>
      <use x="247.460938" xlink:href="#DejaVuSans-101"/>
      <use x="308.984375" xlink:href="#DejaVuSans-110"/>
      <use x="372.363281" xlink:href="#DejaVuSans-116"/>
      <use x="411.572266" xlink:href="#DejaVuSans-115"/>
      <use x="463.671875" xlink:href="#DejaVuSans-32"/>
      <use x="495.458984" xlink:href="#DejaVuSans-119"/>
      <use x="577.246094" xlink:href="#DejaVuSans-105"/>
      <use x="605.029297" xlink:href="#DejaVuSans-116"/>
      <use x="644.238281" xlink:href="#DejaVuSans-104"/>
      <use x="707.617188" xlink:href="#DejaVuSans-32"/>
      <use x="739.404297" xlink:href="#DejaVuSans-67"/>
      <use x="809.228516" xlink:href="#DejaVuSans-111"/>
      <use x="870.410156" xlink:href="#DejaVuSans-109"/>
      <use x="967.822266" xlink:href="#DejaVuSans-109"/>
      <use x="1065.234375" xlink:href="#DejaVuSans-117"/>
      <use x="1128.613281" xlink:href="#DejaVuSans-110"/>
      <use x="1191.992188" xlink:href="#DejaVuSans-105"/>
      <use x="1219.775391" xlink:href="#DejaVuSans-116"/>
      <use x="1258.984375" xlink:href="#DejaVuSans-121"/>
      <use x="1318.164062" xlink:href="#DejaVuSans-32"/>
      <use x="1349.951172" xlink:href="#DejaVuSans-83"/>
      <use x="1413.427734" xlink:href="#DejaVuSans-111"/>
      <use x="1474.609375" xlink:href="#DejaVuSans-108"/>
      <use x="1502.392578" xlink:href="#DejaVuSans-97"/>
      <use x="1563.671875" xlink:href="#DejaVuSans-114"/>
     </g>
    </g>
   </g>
   <g id="line2d_15">
    <path clip-path="url(#pd0b93c5229)" d="M 173.045455 640.8 
L 234.268025 640.73952 
L 234.268025 640.67904 
L 238.641066 640.67904 
L 238.641066 640.41696 
L 243.014107 640.41696 
L 243.014107 639.61056 
L 247.387147 639.61056 
L 247.387147 639.06624 
L 304.236677 638.9856 
L 304.236677 638.5824 
L 308.609718 638.5824 
L 308.609718 638.13888 
L 312.982759 638.13888 
L 312.982759 637.69536 
L 317.355799 637.69536 
L 317.355799 637.35264 
L 321.72884 637.35264 
L 321.72884 464.78304 
L 326.101881 464.78304 
L 326.101881 435.55104 
L 330.474922 435.55104 
L 330.474922 420.08832 
L 334.847962 420.08832 
L 334.847962 410.6736 
L 339.221003 410.6736 
L 339.221003 404.18208 
L 343.594044 404.18208 
L 343.594044 399.22272 
L 347.967085 399.22272 
L 347.967085 149.15808 
L 352.340125 149.15808 
L 352.340125 148.27104 
L 356.713166 148.27104 
L 356.713166 148.00896 
L 439.80094 147.90816 
L 439.80094 147.888 
L 662.826019 147.7872 
L 662.826019 147.76704 
L 933.954545 147.66624 
L 933.954545 147.66624 
" style="fill:none;stroke:#0000ff;stroke-linecap:square;stroke-opacity:0.5;stroke-width:1.5;"/>
   </g>
   <g id="line2d_16">
    <path clip-path="url(#pd0b93c5229)" d="M 173.045455 640.8 
L 177.418495 640.8 
L 177.418495 633.70368 
L 181.791536 633.70368 
L 181.791536 633.56256 
L 186.164577 633.56256 
L 186.164577 633.36096 
L 190.537618 633.36096 
L 190.537618 633.17952 
L 194.910658 633.17952 
L 194.910658 632.87712 
L 199.283699 632.87712 
L 199.283699 632.69568 
L 203.65674 632.69568 
L 203.65674 632.47392 
L 208.029781 632.47392 
L 208.029781 632.29248 
L 212.402821 632.29248 
L 212.402821 632.17152 
L 216.775862 632.17152 
L 216.775862 632.0304 
L 221.148903 632.0304 
L 221.148903 631.80864 
L 225.521944 631.80864 
L 225.521944 627.67584 
L 229.894984 627.67584 
L 229.894984 620.80128 
L 234.268025 620.80128 
L 234.268025 610.56 
L 238.641066 610.56 
L 238.641066 598.74624 
L 243.014107 598.74624 
L 243.014107 587.01312 
L 247.387147 587.01312 
L 247.387147 575.42112 
L 251.760188 575.42112 
L 251.760188 572.27616 
L 256.133229 572.27616 
L 256.133229 563.50656 
L 260.50627 563.50656 
L 260.50627 551.088 
L 264.87931 551.088 
L 264.87931 545.9472 
L 269.252351 545.9472 
L 269.252351 530.6256 
L 273.625392 530.6256 
L 273.625392 524.4768 
L 277.998433 524.4768 
L 277.998433 504.76032 
L 282.371473 504.76032 
L 282.371473 496.53504 
L 286.744514 496.53504 
L 286.744514 490.36608 
L 291.117555 490.36608 
L 291.117555 467.68608 
L 295.490596 467.68608 
L 295.490596 460.89216 
L 299.863636 460.89216 
L 299.863636 457.26336 
L 304.236677 457.26336 
L 304.236677 445.30848 
L 308.609718 445.30848 
L 308.609718 440.47008 
L 312.982759 440.47008 
L 312.982759 437.20416 
L 317.355799 437.20416 
L 317.355799 434.58336 
L 321.72884 434.58336 
L 321.72884 408.8592 
L 326.101881 408.8592 
L 326.101881 404.0208 
L 330.474922 404.0208 
L 330.474922 400.65408 
L 334.847962 400.65408 
L 334.847962 398.1744 
L 339.221003 398.1744 
L 339.221003 396.70272 
L 343.594044 396.70272 
L 343.594044 395.67456 
L 347.967085 395.67456 
L 347.967085 362.53152 
L 352.340125 362.53152 
L 352.340125 355.69728 
L 356.713166 355.69728 
L 356.713166 351.46368 
L 361.086207 351.46368 
L 361.086207 349.06464 
L 365.459248 349.06464 
L 365.459248 347.08896 
L 369.832288 347.08896 
L 369.832288 345.77856 
L 374.205329 345.77856 
L 374.205329 344.66976 
L 378.57837 344.66976 
L 378.57837 343.78272 
L 382.951411 343.78272 
L 382.951411 343.2384 
L 387.324451 343.2384 
L 387.324451 342.95616 
L 391.697492 342.95616 
L 391.697492 342.65376 
L 396.070533 342.65376 
L 396.070533 342.25056 
L 400.443574 342.25056 
L 400.443574 342.06912 
L 404.816614 342.06912 
L 404.816614 341.70624 
L 409.189655 341.70624 
L 409.189655 312.11136 
L 413.562696 312.11136 
L 413.562696 310.51872 
L 417.935737 310.51872 
L 417.935737 309.93408 
L 422.308777 309.93408 
L 422.308777 309.69216 
L 439.80094 309.59136 
L 439.80094 309.55104 
L 933.954545 309.49056 
L 933.954545 309.49056 
" style="fill:none;stroke:#800080;stroke-linecap:square;stroke-opacity:0.5;stroke-width:1.5;"/>
   </g>
   <g id="line2d_17">
    <path clip-path="url(#pd0b93c5229)" d="M 173.045455 640.8 
L 177.418495 640.8 
L 177.418495 603.82656 
L 181.791536 603.82656 
L 181.791536 602.17344 
L 186.164577 602.17344 
L 186.164577 600.45984 
L 190.537618 600.45984 
L 190.537618 598.8672 
L 194.910658 598.8672 
L 194.910658 597.61728 
L 199.283699 597.61728 
L 199.283699 596.2464 
L 203.65674 596.2464 
L 203.65674 594.89568 
L 208.029781 594.89568 
L 208.029781 593.68608 
L 212.402821 593.68608 
L 212.402821 592.13376 
L 216.775862 592.13376 
L 216.775862 590.4 
L 221.148903 590.4 
L 221.148903 588.96864 
L 225.521944 588.96864 
L 225.521944 578.94912 
L 229.894984 578.94912 
L 229.894984 566.42976 
L 234.268025 566.42976 
L 234.268025 548.7696 
L 238.641066 548.7696 
L 238.641066 529.15392 
L 243.014107 529.15392 
L 243.014107 508.51008 
L 247.387147 508.51008 
L 247.387147 486.59616 
L 251.760188 486.59616 
L 251.760188 480.16512 
L 256.133229 480.16512 
L 256.133229 463.57344 
L 260.50627 463.57344 
L 260.50627 448.272 
L 264.87931 448.272 
L 264.87931 443.97792 
L 269.252351 443.97792 
L 269.252351 434.13984 
L 273.625392 434.13984 
L 273.625392 431.55936 
L 277.998433 431.55936 
L 277.998433 423.65664 
L 282.371473 423.65664 
L 282.371473 421.41888 
L 286.744514 421.41888 
L 286.744514 420.12864 
L 291.117555 420.12864 
L 291.117555 414.42336 
L 295.490596 414.42336 
L 295.490596 412.72992 
L 299.863636 412.72992 
L 299.863636 411.0768 
L 304.236677 411.0768 
L 304.236677 405.89568 
L 308.609718 405.89568 
L 308.609718 404.1216 
L 312.982759 404.1216 
L 312.982759 403.35552 
L 317.355799 403.35552 
L 317.355799 402.56928 
L 321.72884 402.56928 
L 321.72884 398.25504 
L 326.101881 398.25504 
L 326.101881 396.92448 
L 330.474922 396.92448 
L 330.474922 395.81568 
L 334.847962 395.81568 
L 334.847962 395.27136 
L 339.221003 395.27136 
L 339.221003 394.848 
L 343.594044 394.848 
L 343.594044 394.56576 
L 347.967085 394.56576 
L 347.967085 391.64256 
L 352.340125 391.64256 
L 352.340125 391.34016 
L 356.713166 391.34016 
L 356.713166 390.93696 
L 361.086207 390.93696 
L 361.086207 390.7152 
L 365.459248 390.7152 
L 365.459248 390.47328 
L 374.205329 390.39264 
L 374.205329 390.27168 
L 382.951411 390.17088 
L 382.951411 390.0096 
L 387.324451 390.0096 
L 387.324451 389.84832 
L 400.443574 389.74752 
L 400.443574 389.68704 
L 409.189655 389.66688 
L 409.189655 388.61856 
L 413.562696 388.61856 
L 413.562696 388.43712 
L 417.935737 388.43712 
L 417.935737 388.25568 
L 426.681818 388.15488 
L 426.681818 388.05408 
L 431.054859 388.05408 
L 431.054859 387.93312 
L 435.4279 387.93312 
L 435.4279 387.81216 
L 448.547022 387.73152 
L 448.547022 387.67104 
L 466.039185 387.57024 
L 466.039185 387.55008 
L 487.904389 387.44928 
L 487.904389 387.42912 
L 597.230408 387.32832 
L 597.230408 387.30816 
L 933.954545 387.26784 
L 933.954545 387.26784 
" style="fill:none;stroke:#ff0000;stroke-linecap:square;stroke-opacity:0.5;stroke-width:1.5;"/>
   </g>
   <g id="line2d_18">
    <path clip-path="url(#pd0b93c5229)" d="M 173.045455 640.8 
L 177.418495 640.8 
L 177.418495 570.28032 
L 181.791536 570.28032 
L 181.791536 567.37728 
L 186.164577 567.37728 
L 186.164577 564.21216 
L 190.537618 564.21216 
L 190.537618 561.45024 
L 194.910658 561.45024 
L 194.910658 558.648 
L 199.283699 558.648 
L 199.283699 556.47072 
L 203.65674 556.47072 
L 203.65674 554.39424 
L 208.029781 554.39424 
L 208.029781 552.13632 
L 212.402821 552.13632 
L 212.402821 550.32192 
L 216.775862 550.32192 
L 216.775862 548.60832 
L 221.148903 548.60832 
L 221.148903 547.13664 
L 225.521944 547.13664 
L 225.521944 539.95968 
L 229.894984 539.95968 
L 229.894984 532.17792 
L 234.268025 532.17792 
L 234.268025 520.92864 
L 238.641066 520.92864 
L 238.641066 505.68768 
L 243.014107 505.68768 
L 243.014107 488.06784 
L 247.387147 488.06784 
L 247.387147 470.32704 
L 251.760188 470.32704 
L 251.760188 466.15392 
L 256.133229 466.15392 
L 256.133229 449.784 
L 260.50627 449.784 
L 260.50627 435.65184 
L 264.87931 435.65184 
L 264.87931 432.4464 
L 269.252351 432.4464 
L 269.252351 423.93888 
L 273.625392 423.93888 
L 273.625392 421.64064 
L 277.998433 421.64064 
L 277.998433 414.54432 
L 282.371473 414.54432 
L 282.371473 412.83072 
L 286.744514 412.83072 
L 286.744514 411.3792 
L 291.117555 411.3792 
L 291.117555 406.21824 
L 295.490596 406.21824 
L 295.490596 404.8272 
L 299.863636 404.8272 
L 299.863636 404.08128 
L 304.236677 404.08128 
L 304.236677 399.6864 
L 308.609718 399.6864 
L 308.609718 398.85984 
L 312.982759 398.85984 
L 312.982759 398.09376 
L 317.355799 398.09376 
L 317.355799 397.5696 
L 321.72884 397.5696 
L 321.72884 394.5456 
L 326.101881 394.5456 
L 326.101881 393.67872 
L 330.474922 393.67872 
L 330.474922 393.17472 
L 334.847962 393.17472 
L 334.847962 392.81184 
L 339.221003 392.81184 
L 339.221003 392.46912 
L 343.594044 392.46912 
L 343.594044 392.16672 
L 347.967085 392.16672 
L 347.967085 389.54592 
L 352.340125 389.54592 
L 352.340125 389.18304 
L 356.713166 389.18304 
L 356.713166 388.92096 
L 361.086207 388.92096 
L 361.086207 388.73952 
L 365.459248 388.73952 
L 365.459248 388.4976 
L 369.832288 388.4976 
L 369.832288 388.296 
L 374.205329 388.296 
L 374.205329 388.15488 
L 378.57837 388.15488 
L 378.57837 388.01376 
L 387.324451 387.93312 
L 387.324451 387.87264 
L 396.070533 387.77184 
L 396.070533 387.71136 
L 404.816614 387.61056 
L 404.816614 387.55008 
L 409.189655 387.55008 
L 409.189655 386.28 
L 413.562696 386.28 
L 413.562696 386.03808 
L 422.308777 385.93728 
L 422.308777 385.8768 
L 426.681818 385.8768 
L 426.681818 385.75584 
L 435.4279 385.65504 
L 435.4279 385.5744 
L 444.173981 385.51392 
L 444.173981 385.43328 
L 457.293103 385.35264 
L 457.293103 385.29216 
L 466.039185 385.19136 
L 466.039185 385.13088 
L 514.142633 385.03008 
L 514.142633 385.00992 
L 536.007837 384.90912 
L 536.007837 384.88896 
L 553.5 384.80832 
L 553.5 384.74784 
L 667.19906 384.64704 
L 667.19906 384.62688 
L 933.954545 384.60672 
L 933.954545 384.60672 
" style="fill:none;stroke:#808000;stroke-linecap:square;stroke-opacity:0.5;stroke-width:1.5;"/>
   </g>
   <g id="line2d_19">
    <path clip-path="url(#pd0b93c5229)" d="M 173.045455 640.8 
L 177.418495 640.8 
L 177.418495 543.87072 
L 181.791536 543.87072 
L 181.791536 539.33472 
L 186.164577 539.33472 
L 186.164577 536.33088 
L 190.537618 536.33088 
L 190.537618 533.52864 
L 194.910658 533.52864 
L 194.910658 531.432 
L 199.283699 531.432 
L 199.283699 529.55712 
L 203.65674 529.55712 
L 203.65674 527.48064 
L 208.029781 527.48064 
L 208.029781 525.72672 
L 212.402821 525.72672 
L 212.402821 524.45664 
L 216.775862 524.45664 
L 216.775862 523.1664 
L 221.148903 523.1664 
L 221.148903 522.23904 
L 225.521944 522.23904 
L 225.521944 517.60224 
L 229.894984 517.60224 
L 229.894984 513.44928 
L 234.268025 513.44928 
L 234.268025 506.37312 
L 238.641066 506.37312 
L 238.641066 495.26496 
L 243.014107 495.26496 
L 243.014107 479.7216 
L 247.387147 479.7216 
L 247.387147 462.888 
L 251.760188 462.888 
L 251.760188 459.864 
L 256.133229 459.864 
L 256.133229 446.13504 
L 260.50627 446.13504 
L 260.50627 433.37376 
L 264.87931 433.37376 
L 264.87931 431.136 
L 269.252351 431.136 
L 269.252351 422.48736 
L 273.625392 422.48736 
L 273.625392 420.81408 
L 277.998433 420.81408 
L 277.998433 414.24192 
L 282.371473 414.24192 
L 282.371473 412.81056 
L 286.744514 412.81056 
L 286.744514 411.76224 
L 291.117555 411.76224 
L 291.117555 406.70208 
L 295.490596 406.70208 
L 295.490596 405.7344 
L 299.863636 405.7344 
L 299.863636 404.424 
L 304.236677 404.424 
L 304.236677 400.0896 
L 308.609718 400.0896 
L 308.609718 399.16224 
L 312.982759 399.16224 
L 312.982759 398.61792 
L 317.355799 398.61792 
L 317.355799 398.13408 
L 321.72884 398.13408 
L 321.72884 394.28352 
L 326.101881 394.28352 
L 326.101881 393.47712 
L 330.474922 393.47712 
L 330.474922 392.7312 
L 334.847962 392.7312 
L 334.847962 392.34816 
L 339.221003 392.34816 
L 339.221003 392.08608 
L 343.594044 392.08608 
L 343.594044 391.9248 
L 347.967085 391.9248 
L 347.967085 389.38464 
L 352.340125 389.38464 
L 352.340125 389.04192 
L 356.713166 389.04192 
L 356.713166 388.8 
L 361.086207 388.8 
L 361.086207 388.5984 
L 365.459248 388.5984 
L 365.459248 388.47744 
L 369.832288 388.47744 
L 369.832288 388.296 
L 374.205329 388.296 
L 374.205329 388.11456 
L 382.951411 388.01376 
L 382.951411 387.81216 
L 391.697492 387.792 
L 391.697492 387.65088 
L 396.070533 387.65088 
L 396.070533 387.52992 
L 404.816614 387.44928 
L 404.816614 387.36864 
L 409.189655 387.36864 
L 409.189655 385.79616 
L 413.562696 385.79616 
L 413.562696 385.65504 
L 417.935737 385.65504 
L 417.935737 385.45344 
L 422.308777 385.45344 
L 422.308777 385.33248 
L 435.4279 385.23168 
L 435.4279 385.13088 
L 448.547022 385.0704 
L 448.547022 384.98976 
L 466.039185 384.88896 
L 466.039185 384.84864 
L 492.277429 384.74784 
L 492.277429 384.70752 
L 514.142633 384.60672 
L 514.142633 384.54624 
L 570.992163 384.44544 
L 570.992163 384.42528 
L 614.722571 384.34464 
L 614.722571 384.30432 
L 675.945141 384.20352 
L 675.945141 384.18336 
L 842.12069 384.08256 
L 842.12069 384.0624 
L 933.954545 384.04224 
L 933.954545 384.04224 
" style="fill:none;stroke:#00ff00;stroke-linecap:square;stroke-opacity:0.5;stroke-width:1.5;"/>
   </g>
   <g id="patch_3">
    <path d="M 135 640.8 
L 135 86.4 
" style="fill:none;stroke:#000000;stroke-linecap:square;stroke-linejoin:miter;stroke-width:0.8;"/>
   </g>
   <g id="patch_4">
    <path d="M 972 640.8 
L 972 86.4 
" style="fill:none;stroke:#000000;stroke-linecap:square;stroke-linejoin:miter;stroke-width:0.8;"/>
   </g>
   <g id="patch_5">
    <path d="M 135 640.8 
L 972 640.8 
" style="fill:none;stroke:#000000;stroke-linecap:square;stroke-linejoin:miter;stroke-width:0.8;"/>
   </g>
   <g id="patch_6">
    <path d="M 135 86.4 
L 972 86.4 
" style="fill:none;stroke:#000000;stroke-linecap:square;stroke-linejoin:miter;stroke-width:0.8;"/>
   </g>
   <g id="text_17">
    <!-- Evolution of Average # of Nodes with Community PV -->
    <defs>
     <path d="M 9.8125 72.90625 
L 55.90625 72.90625 
L 55.90625 64.59375 
L 19.671875 64.59375 
L 19.671875 43.015625 
L 54.390625 43.015625 
L 54.390625 34.71875 
L 19.671875 34.71875 
L 19.671875 8.296875 
L 56.78125 8.296875 
L 56.78125 0 
L 9.8125 0 
z
" id="DejaVuSans-69"/>
     <path d="M 2.984375 54.6875 
L 12.5 54.6875 
L 29.59375 8.796875 
L 46.6875 54.6875 
L 56.203125 54.6875 
L 35.6875 0 
L 23.484375 0 
z
" id="DejaVuSans-118"/>
     <path d="M 37.109375 75.984375 
L 37.109375 68.5 
L 28.515625 68.5 
Q 23.6875 68.5 21.796875 66.546875 
Q 19.921875 64.59375 19.921875 59.515625 
L 19.921875 54.6875 
L 34.71875 54.6875 
L 34.71875 47.703125 
L 19.921875 47.703125 
L 19.921875 0 
L 10.890625 0 
L 10.890625 47.703125 
L 2.296875 47.703125 
L 2.296875 54.6875 
L 10.890625 54.6875 
L 10.890625 58.5 
Q 10.890625 67.625 15.140625 71.796875 
Q 19.390625 75.984375 28.609375 75.984375 
z
" id="DejaVuSans-102"/>
     <path d="M 9.8125 72.90625 
L 23.09375 72.90625 
L 55.421875 11.921875 
L 55.421875 72.90625 
L 64.984375 72.90625 
L 64.984375 0 
L 51.703125 0 
L 19.390625 60.984375 
L 19.390625 0 
L 9.8125 0 
z
" id="DejaVuSans-78"/>
     <path d="M 45.40625 46.390625 
L 45.40625 75.984375 
L 54.390625 75.984375 
L 54.390625 0 
L 45.40625 0 
L 45.40625 8.203125 
Q 42.578125 3.328125 38.25 0.953125 
Q 33.9375 -1.421875 27.875 -1.421875 
Q 17.96875 -1.421875 11.734375 6.484375 
Q 5.515625 14.40625 5.515625 27.296875 
Q 5.515625 40.1875 11.734375 48.09375 
Q 17.96875 56 27.875 56 
Q 33.9375 56 38.25 53.625 
Q 42.578125 51.265625 45.40625 46.390625 
z
M 14.796875 27.296875 
Q 14.796875 17.390625 18.875 11.75 
Q 22.953125 6.109375 30.078125 6.109375 
Q 37.203125 6.109375 41.296875 11.75 
Q 45.40625 17.390625 45.40625 27.296875 
Q 45.40625 37.203125 41.296875 42.84375 
Q 37.203125 48.484375 30.078125 48.484375 
Q 22.953125 48.484375 18.875 42.84375 
Q 14.796875 37.203125 14.796875 27.296875 
z
" id="DejaVuSans-100"/>
     <path d="M 19.671875 64.796875 
L 19.671875 37.40625 
L 32.078125 37.40625 
Q 38.96875 37.40625 42.71875 40.96875 
Q 46.484375 44.53125 46.484375 51.125 
Q 46.484375 57.671875 42.71875 61.234375 
Q 38.96875 64.796875 32.078125 64.796875 
z
M 9.8125 72.90625 
L 32.078125 72.90625 
Q 44.34375 72.90625 50.609375 67.359375 
Q 56.890625 61.8125 56.890625 51.125 
Q 56.890625 40.328125 50.609375 34.8125 
Q 44.34375 29.296875 32.078125 29.296875 
L 19.671875 29.296875 
L 19.671875 0 
L 9.8125 0 
z
" id="DejaVuSans-80"/>
     <path d="M 28.609375 0 
L 0.78125 72.90625 
L 11.078125 72.90625 
L 34.1875 11.53125 
L 57.328125 72.90625 
L 67.578125 72.90625 
L 39.796875 0 
z
" id="DejaVuSans-86"/>
    </defs>
    <g transform="translate(341.8 80.4)scale(0.16 -0.16)">
     <use xlink:href="#DejaVuSans-69"/>
     <use x="63.183594" xlink:href="#DejaVuSans-118"/>
     <use x="122.363281" xlink:href="#DejaVuSans-111"/>
     <use x="183.544922" xlink:href="#DejaVuSans-108"/>
     <use x="211.328125" xlink:href="#DejaVuSans-117"/>
     <use x="274.707031" xlink:href="#DejaVuSans-116"/>
     <use x="313.916016" xlink:href="#DejaVuSans-105"/>
     <use x="341.699219" xlink:href="#DejaVuSans-111"/>
     <use x="402.880859" xlink:href="#DejaVuSans-110"/>
     <use x="466.259766" xlink:href="#DejaVuSans-32"/>
     <use x="498.046875" xlink:href="#DejaVuSans-111"/>
     <use x="559.228516" xlink:href="#DejaVuSans-102"/>
     <use x="594.433594" xlink:href="#DejaVuSans-32"/>
     <use x="626.220703" xlink:href="#DejaVuSans-65"/>
     <use x="694.550781" xlink:href="#DejaVuSans-118"/>
     <use x="753.730469" xlink:href="#DejaVuSans-101"/>
     <use x="815.253906" xlink:href="#DejaVuSans-114"/>
     <use x="856.367188" xlink:href="#DejaVuSans-97"/>
     <use x="917.646484" xlink:href="#DejaVuSans-103"/>
     <use x="981.123047" xlink:href="#DejaVuSans-101"/>
     <use x="1042.646484" xlink:href="#DejaVuSans-32"/>
     <use x="1074.433594" xlink:href="#DejaVuSans-35"/>
     <use x="1158.222656" xlink:href="#DejaVuSans-32"/>
     <use x="1190.009766" xlink:href="#DejaVuSans-111"/>
     <use x="1251.191406" xlink:href="#DejaVuSans-102"/>
     <use x="1286.396484" xlink:href="#DejaVuSans-32"/>
     <use x="1318.183594" xlink:href="#DejaVuSans-78"/>
     <use x="1392.988281" xlink:href="#DejaVuSans-111"/>
     <use x="1454.169922" xlink:href="#DejaVuSans-100"/>
     <use x="1517.646484" xlink:href="#DejaVuSans-101"/>
     <use x="1579.169922" xlink:href="#DejaVuSans-115"/>
     <use x="1631.269531" xlink:href="#DejaVuSans-32"/>
     <use x="1663.056641" xlink:href="#DejaVuSans-119"/>
     <use x="1744.84375" xlink:href="#DejaVuSans-105"/>
     <use x="1772.626953" xlink:href="#DejaVuSans-116"/>
     <use x="1811.835938" xlink:href="#DejaVuSans-104"/>
     <use x="1875.214844" xlink:href="#DejaVuSans-32"/>
     <use x="1907.001953" xlink:href="#DejaVuSans-67"/>
     <use x="1976.826172" xlink:href="#DejaVuSans-111"/>
     <use x="2038.007812" xlink:href="#DejaVuSans-109"/>
     <use x="2135.419922" xlink:href="#DejaVuSans-109"/>
     <use x="2232.832031" xlink:href="#DejaVuSans-117"/>
     <use x="2296.210938" xlink:href="#DejaVuSans-110"/>
     <use x="2359.589844" xlink:href="#DejaVuSans-105"/>
     <use x="2387.373047" xlink:href="#DejaVuSans-116"/>
     <use x="2426.582031" xlink:href="#DejaVuSans-121"/>
     <use x="2485.761719" xlink:href="#DejaVuSans-32"/>
     <use x="2517.548828" xlink:href="#DejaVuSans-80"/>
     <use x="2577.851562" xlink:href="#DejaVuSans-86"/>
    </g>
   </g>
   <g id="legend_1">
    <g id="patch_7">
     <path d="M 891.975 635.8 
L 965 635.8 
Q 967 635.8 967 633.8 
L 967 561.409375 
Q 967 559.409375 965 559.409375 
L 891.975 559.409375 
Q 889.975 559.409375 889.975 561.409375 
L 889.975 633.8 
Q 889.975 635.8 891.975 635.8 
z
" style="fill:#ffffff;opacity:0.8;stroke:#cccccc;stroke-linejoin:miter;"/>
    </g>
    <g id="line2d_20">
     <path d="M 893.975 567.507812 
L 913.975 567.507812 
" style="fill:none;stroke:#ffffff;stroke-linecap:square;stroke-width:1.5;"/>
    </g>
    <g id="line2d_21">
     <defs>
      <path d="M -7.5 7.5 
L 7.5 7.5 
L 7.5 -7.5 
L -7.5 -7.5 
z
" id="mb04b343bb6" style="stroke:#ffffff;stroke-linejoin:miter;"/>
     </defs>
     <g>
      <use style="fill:#0000ff;stroke:#ffffff;stroke-linejoin:miter;" x="903.975" xlink:href="#mb04b343bb6" y="567.507812"/>
     </g>
    </g>
    <g id="text_18">
     <!-- Profile 0 -->
     <g transform="translate(921.975 571.007812)scale(0.1 -0.1)">
      <use xlink:href="#DejaVuSans-80"/>
      <use x="60.287109" xlink:href="#DejaVuSans-114"/>
      <use x="101.369141" xlink:href="#DejaVuSans-111"/>
      <use x="162.550781" xlink:href="#DejaVuSans-102"/>
      <use x="197.755859" xlink:href="#DejaVuSans-105"/>
      <use x="225.539062" xlink:href="#DejaVuSans-108"/>
      <use x="253.322266" xlink:href="#DejaVuSans-101"/>
      <use x="314.845703" xlink:href="#DejaVuSans-32"/>
      <use x="346.632812" xlink:href="#DejaVuSans-48"/>
     </g>
    </g>
    <g id="line2d_22">
     <path d="M 893.975 582.185938 
L 913.975 582.185938 
" style="fill:none;stroke:#ffffff;stroke-linecap:square;stroke-width:1.5;"/>
    </g>
    <g id="line2d_23">
     <defs>
      <path d="M -7.5 7.5 
L 7.5 7.5 
L 7.5 -7.5 
L -7.5 -7.5 
z
" id="mb7a7cbc06b" style="stroke:#ffffff;stroke-linejoin:miter;"/>
     </defs>
     <g>
      <use style="fill:#800080;stroke:#ffffff;stroke-linejoin:miter;" x="903.975" xlink:href="#mb7a7cbc06b" y="582.185938"/>
     </g>
    </g>
    <g id="text_19">
     <!-- Profile 1 -->
     <g transform="translate(921.975 585.685938)scale(0.1 -0.1)">
      <use xlink:href="#DejaVuSans-80"/>
      <use x="60.287109" xlink:href="#DejaVuSans-114"/>
      <use x="101.369141" xlink:href="#DejaVuSans-111"/>
      <use x="162.550781" xlink:href="#DejaVuSans-102"/>
      <use x="197.755859" xlink:href="#DejaVuSans-105"/>
      <use x="225.539062" xlink:href="#DejaVuSans-108"/>
      <use x="253.322266" xlink:href="#DejaVuSans-101"/>
      <use x="314.845703" xlink:href="#DejaVuSans-32"/>
      <use x="346.632812" xlink:href="#DejaVuSans-49"/>
     </g>
    </g>
    <g id="line2d_24">
     <path d="M 893.975 596.864063 
L 913.975 596.864063 
" style="fill:none;stroke:#ffffff;stroke-linecap:square;stroke-width:1.5;"/>
    </g>
    <g id="line2d_25">
     <defs>
      <path d="M -7.5 7.5 
L 7.5 7.5 
L 7.5 -7.5 
L -7.5 -7.5 
z
" id="ma51470955d" style="stroke:#ffffff;stroke-linejoin:miter;"/>
     </defs>
     <g>
      <use style="fill:#ff0000;stroke:#ffffff;stroke-linejoin:miter;" x="903.975" xlink:href="#ma51470955d" y="596.864063"/>
     </g>
    </g>
    <g id="text_20">
     <!-- Profile 2 -->
     <g transform="translate(921.975 600.364063)scale(0.1 -0.1)">
      <use xlink:href="#DejaVuSans-80"/>
      <use x="60.287109" xlink:href="#DejaVuSans-114"/>
      <use x="101.369141" xlink:href="#DejaVuSans-111"/>
      <use x="162.550781" xlink:href="#DejaVuSans-102"/>
      <use x="197.755859" xlink:href="#DejaVuSans-105"/>
      <use x="225.539062" xlink:href="#DejaVuSans-108"/>
      <use x="253.322266" xlink:href="#DejaVuSans-101"/>
      <use x="314.845703" xlink:href="#DejaVuSans-32"/>
      <use x="346.632812" xlink:href="#DejaVuSans-50"/>
     </g>
    </g>
    <g id="line2d_26">
     <path d="M 893.975 611.542187 
L 913.975 611.542187 
" style="fill:none;stroke:#ffffff;stroke-linecap:square;stroke-width:1.5;"/>
    </g>
    <g id="line2d_27">
     <defs>
      <path d="M -7.5 7.5 
L 7.5 7.5 
L 7.5 -7.5 
L -7.5 -7.5 
z
" id="me2a5ed9baf" style="stroke:#ffffff;stroke-linejoin:miter;"/>
     </defs>
     <g>
      <use style="fill:#808000;stroke:#ffffff;stroke-linejoin:miter;" x="903.975" xlink:href="#me2a5ed9baf" y="611.542187"/>
     </g>
    </g>
    <g id="text_21">
     <!-- Profile 3 -->
     <g transform="translate(921.975 615.042187)scale(0.1 -0.1)">
      <use xlink:href="#DejaVuSans-80"/>
      <use x="60.287109" xlink:href="#DejaVuSans-114"/>
      <use x="101.369141" xlink:href="#DejaVuSans-111"/>
      <use x="162.550781" xlink:href="#DejaVuSans-102"/>
      <use x="197.755859" xlink:href="#DejaVuSans-105"/>
      <use x="225.539062" xlink:href="#DejaVuSans-108"/>
      <use x="253.322266" xlink:href="#DejaVuSans-101"/>
      <use x="314.845703" xlink:href="#DejaVuSans-32"/>
      <use x="346.632812" xlink:href="#DejaVuSans-51"/>
     </g>
    </g>
    <g id="line2d_28">
     <path d="M 893.975 626.220312 
L 913.975 626.220312 
" style="fill:none;stroke:#ffffff;stroke-linecap:square;stroke-width:1.5;"/>
    </g>
    <g id="line2d_29">
     <defs>
      <path d="M -7.5 7.5 
L 7.5 7.5 
L 7.5 -7.5 
L -7.5 -7.5 
z
" id="m0ecae6d7d9" style="stroke:#ffffff;stroke-linejoin:miter;"/>
     </defs>
     <g>
      <use style="fill:#00ff00;stroke:#ffffff;stroke-linejoin:miter;" x="903.975" xlink:href="#m0ecae6d7d9" y="626.220312"/>
     </g>
    </g>
    <g id="text_22">
     <!-- Profile 4 -->
     <g transform="translate(921.975 629.720312)scale(0.1 -0.1)">
      <use xlink:href="#DejaVuSans-80"/>
      <use x="60.287109" xlink:href="#DejaVuSans-114"/>
      <use x="101.369141" xlink:href="#DejaVuSans-111"/>
      <use x="162.550781" xlink:href="#DejaVuSans-102"/>
      <use x="197.755859" xlink:href="#DejaVuSans-105"/>
      <use x="225.539062" xlink:href="#DejaVuSans-108"/>
      <use x="253.322266" xlink:href="#DejaVuSans-101"/>
      <use x="314.845703" xlink:href="#DejaVuSans-32"/>
      <use x="346.632812" xlink:href="#DejaVuSans-52"/>
     </g>
    </g>
   </g>
  </g>
 </g>
 <defs>
  <clipPath id="pd0b93c5229">
   <rect height="554.4" width="837" x="135" y="86.4"/>
  </clipPath>
 </defs>
</svg>
