<?xml version="1.0" encoding="utf-8" standalone="no"?>
<!DOCTYPE svg PUBLIC "-//W3C//DTD SVG 1.1//EN"
  "http://www.w3.org/Graphics/SVG/1.1/DTD/svg11.dtd">
<!-- Created with matplotlib (https://matplotlib.org/) -->
<svg height="720pt" version="1.1" viewBox="0 0 1080 720" width="1080pt" xmlns="http://www.w3.org/2000/svg" xmlns:xlink="http://www.w3.org/1999/xlink">
 <defs>
  <style type="text/css">
*{stroke-linecap:butt;stroke-linejoin:round;}
  </style>
 </defs>
 <g id="figure_1">
  <g id="patch_1">
   <path d="M 0 720 
L 1080 720 
L 1080 0 
L 0 0 
z
" style="fill:#ffffff;"/>
  </g>
  <g id="axes_1">
   <g id="patch_2">
    <path d="M 135 640.8 
L 972 640.8 
L 972 86.4 
L 135 86.4 
z
" style="fill:#ffffff;"/>
   </g>
   <g id="matplotlib.axis_1">
    <g id="xtick_1">
     <g id="line2d_1">
      <defs>
       <path d="M 0 0 
L 0 3.5 
" id="mc029b62fab" style="stroke:#000000;stroke-width:0.8;"/>
      </defs>
      <g>
       <use style="stroke:#000000;stroke-width:0.8;" x="173.045455" xlink:href="#mc029b62fab" y="640.8"/>
      </g>
     </g>
     <g id="text_1">
      <!-- 0 -->
      <defs>
       <path d="M 31.78125 66.40625 
Q 24.171875 66.40625 20.328125 58.90625 
Q 16.5 51.421875 16.5 36.375 
Q 16.5 21.390625 20.328125 13.890625 
Q 24.171875 6.390625 31.78125 6.390625 
Q 39.453125 6.390625 43.28125 13.890625 
Q 47.125 21.390625 47.125 36.375 
Q 47.125 51.421875 43.28125 58.90625 
Q 39.453125 66.40625 31.78125 66.40625 
z
M 31.78125 74.21875 
Q 44.046875 74.21875 50.515625 64.515625 
Q 56.984375 54.828125 56.984375 36.375 
Q 56.984375 17.96875 50.515625 8.265625 
Q 44.046875 -1.421875 31.78125 -1.421875 
Q 19.53125 -1.421875 13.0625 8.265625 
Q 6.59375 17.96875 6.59375 36.375 
Q 6.59375 54.828125 13.0625 64.515625 
Q 19.53125 74.21875 31.78125 74.21875 
z
" id="DejaVuSans-48"/>
      </defs>
      <g transform="translate(169.864205 655.398438)scale(0.1 -0.1)">
       <use xlink:href="#DejaVuSans-48"/>
      </g>
     </g>
    </g>
    <g id="xtick_2">
     <g id="line2d_2">
      <g>
       <use style="stroke:#000000;stroke-width:0.8;" x="300.929335" xlink:href="#mc029b62fab" y="640.8"/>
      </g>
     </g>
     <g id="text_2">
      <!-- 20 -->
      <defs>
       <path d="M 19.1875 8.296875 
L 53.609375 8.296875 
L 53.609375 0 
L 7.328125 0 
L 7.328125 8.296875 
Q 12.9375 14.109375 22.625 23.890625 
Q 32.328125 33.6875 34.8125 36.53125 
Q 39.546875 41.84375 41.421875 45.53125 
Q 43.3125 49.21875 43.3125 52.78125 
Q 43.3125 58.59375 39.234375 62.25 
Q 35.15625 65.921875 28.609375 65.921875 
Q 23.96875 65.921875 18.8125 64.3125 
Q 13.671875 62.703125 7.8125 59.421875 
L 7.8125 69.390625 
Q 13.765625 71.78125 18.9375 73 
Q 24.125 74.21875 28.421875 74.21875 
Q 39.75 74.21875 46.484375 68.546875 
Q 53.21875 62.890625 53.21875 53.421875 
Q 53.21875 48.921875 51.53125 44.890625 
Q 49.859375 40.875 45.40625 35.40625 
Q 44.1875 33.984375 37.640625 27.21875 
Q 31.109375 20.453125 19.1875 8.296875 
z
" id="DejaVuSans-50"/>
      </defs>
      <g transform="translate(294.566835 655.398438)scale(0.1 -0.1)">
       <use xlink:href="#DejaVuSans-50"/>
       <use x="63.623047" xlink:href="#DejaVuSans-48"/>
      </g>
     </g>
    </g>
    <g id="xtick_3">
     <g id="line2d_3">
      <g>
       <use style="stroke:#000000;stroke-width:0.8;" x="428.813216" xlink:href="#mc029b62fab" y="640.8"/>
      </g>
     </g>
     <g id="text_3">
      <!-- 40 -->
      <defs>
       <path d="M 37.796875 64.3125 
L 12.890625 25.390625 
L 37.796875 25.390625 
z
M 35.203125 72.90625 
L 47.609375 72.90625 
L 47.609375 25.390625 
L 58.015625 25.390625 
L 58.015625 17.1875 
L 47.609375 17.1875 
L 47.609375 0 
L 37.796875 0 
L 37.796875 17.1875 
L 4.890625 17.1875 
L 4.890625 26.703125 
z
" id="DejaVuSans-52"/>
      </defs>
      <g transform="translate(422.450716 655.398438)scale(0.1 -0.1)">
       <use xlink:href="#DejaVuSans-52"/>
       <use x="63.623047" xlink:href="#DejaVuSans-48"/>
      </g>
     </g>
    </g>
    <g id="xtick_4">
     <g id="line2d_4">
      <g>
       <use style="stroke:#000000;stroke-width:0.8;" x="556.697097" xlink:href="#mc029b62fab" y="640.8"/>
      </g>
     </g>
     <g id="text_4">
      <!-- 60 -->
      <defs>
       <path d="M 33.015625 40.375 
Q 26.375 40.375 22.484375 35.828125 
Q 18.609375 31.296875 18.609375 23.390625 
Q 18.609375 15.53125 22.484375 10.953125 
Q 26.375 6.390625 33.015625 6.390625 
Q 39.65625 6.390625 43.53125 10.953125 
Q 47.40625 15.53125 47.40625 23.390625 
Q 47.40625 31.296875 43.53125 35.828125 
Q 39.65625 40.375 33.015625 40.375 
z
M 52.59375 71.296875 
L 52.59375 62.3125 
Q 48.875 64.0625 45.09375 64.984375 
Q 41.3125 65.921875 37.59375 65.921875 
Q 27.828125 65.921875 22.671875 59.328125 
Q 17.53125 52.734375 16.796875 39.40625 
Q 19.671875 43.65625 24.015625 45.921875 
Q 28.375 48.1875 33.59375 48.1875 
Q 44.578125 48.1875 50.953125 41.515625 
Q 57.328125 34.859375 57.328125 23.390625 
Q 57.328125 12.15625 50.6875 5.359375 
Q 44.046875 -1.421875 33.015625 -1.421875 
Q 20.359375 -1.421875 13.671875 8.265625 
Q 6.984375 17.96875 6.984375 36.375 
Q 6.984375 53.65625 15.1875 63.9375 
Q 23.390625 74.21875 37.203125 74.21875 
Q 40.921875 74.21875 44.703125 73.484375 
Q 48.484375 72.75 52.59375 71.296875 
z
" id="DejaVuSans-54"/>
      </defs>
      <g transform="translate(550.334597 655.398438)scale(0.1 -0.1)">
       <use xlink:href="#DejaVuSans-54"/>
       <use x="63.623047" xlink:href="#DejaVuSans-48"/>
      </g>
     </g>
    </g>
    <g id="xtick_5">
     <g id="line2d_5">
      <g>
       <use style="stroke:#000000;stroke-width:0.8;" x="684.580978" xlink:href="#mc029b62fab" y="640.8"/>
      </g>
     </g>
     <g id="text_5">
      <!-- 80 -->
      <defs>
       <path d="M 31.78125 34.625 
Q 24.75 34.625 20.71875 30.859375 
Q 16.703125 27.09375 16.703125 20.515625 
Q 16.703125 13.921875 20.71875 10.15625 
Q 24.75 6.390625 31.78125 6.390625 
Q 38.8125 6.390625 42.859375 10.171875 
Q 46.921875 13.96875 46.921875 20.515625 
Q 46.921875 27.09375 42.890625 30.859375 
Q 38.875 34.625 31.78125 34.625 
z
M 21.921875 38.8125 
Q 15.578125 40.375 12.03125 44.71875 
Q 8.5 49.078125 8.5 55.328125 
Q 8.5 64.0625 14.71875 69.140625 
Q 20.953125 74.21875 31.78125 74.21875 
Q 42.671875 74.21875 48.875 69.140625 
Q 55.078125 64.0625 55.078125 55.328125 
Q 55.078125 49.078125 51.53125 44.71875 
Q 48 40.375 41.703125 38.8125 
Q 48.828125 37.15625 52.796875 32.3125 
Q 56.78125 27.484375 56.78125 20.515625 
Q 56.78125 9.90625 50.3125 4.234375 
Q 43.84375 -1.421875 31.78125 -1.421875 
Q 19.734375 -1.421875 13.25 4.234375 
Q 6.78125 9.90625 6.78125 20.515625 
Q 6.78125 27.484375 10.78125 32.3125 
Q 14.796875 37.15625 21.921875 38.8125 
z
M 18.3125 54.390625 
Q 18.3125 48.734375 21.84375 45.5625 
Q 25.390625 42.390625 31.78125 42.390625 
Q 38.140625 42.390625 41.71875 45.5625 
Q 45.3125 48.734375 45.3125 54.390625 
Q 45.3125 60.0625 41.71875 63.234375 
Q 38.140625 66.40625 31.78125 66.40625 
Q 25.390625 66.40625 21.84375 63.234375 
Q 18.3125 60.0625 18.3125 54.390625 
z
" id="DejaVuSans-56"/>
      </defs>
      <g transform="translate(678.218478 655.398438)scale(0.1 -0.1)">
       <use xlink:href="#DejaVuSans-56"/>
       <use x="63.623047" xlink:href="#DejaVuSans-48"/>
      </g>
     </g>
    </g>
    <g id="xtick_6">
     <g id="line2d_6">
      <g>
       <use style="stroke:#000000;stroke-width:0.8;" x="812.464859" xlink:href="#mc029b62fab" y="640.8"/>
      </g>
     </g>
     <g id="text_6">
      <!-- 100 -->
      <defs>
       <path d="M 12.40625 8.296875 
L 28.515625 8.296875 
L 28.515625 63.921875 
L 10.984375 60.40625 
L 10.984375 69.390625 
L 28.421875 72.90625 
L 38.28125 72.90625 
L 38.28125 8.296875 
L 54.390625 8.296875 
L 54.390625 0 
L 12.40625 0 
z
" id="DejaVuSans-49"/>
      </defs>
      <g transform="translate(802.921109 655.398438)scale(0.1 -0.1)">
       <use xlink:href="#DejaVuSans-49"/>
       <use x="63.623047" xlink:href="#DejaVuSans-48"/>
       <use x="127.246094" xlink:href="#DejaVuSans-48"/>
      </g>
     </g>
    </g>
    <g id="xtick_7">
     <g id="line2d_7">
      <g>
       <use style="stroke:#000000;stroke-width:0.8;" x="940.348739" xlink:href="#mc029b62fab" y="640.8"/>
      </g>
     </g>
     <g id="text_7">
      <!-- 120 -->
      <g transform="translate(930.804989 655.398438)scale(0.1 -0.1)">
       <use xlink:href="#DejaVuSans-49"/>
       <use x="63.623047" xlink:href="#DejaVuSans-50"/>
       <use x="127.246094" xlink:href="#DejaVuSans-48"/>
      </g>
     </g>
    </g>
    <g id="text_8">
     <!-- Time -->
     <defs>
      <path d="M -0.296875 72.90625 
L 61.375 72.90625 
L 61.375 64.59375 
L 35.5 64.59375 
L 35.5 0 
L 25.59375 0 
L 25.59375 64.59375 
L -0.296875 64.59375 
z
" id="DejaVuSans-84"/>
      <path d="M 9.421875 54.6875 
L 18.40625 54.6875 
L 18.40625 0 
L 9.421875 0 
z
M 9.421875 75.984375 
L 18.40625 75.984375 
L 18.40625 64.59375 
L 9.421875 64.59375 
z
" id="DejaVuSans-105"/>
      <path d="M 52 44.1875 
Q 55.375 50.25 60.0625 53.125 
Q 64.75 56 71.09375 56 
Q 79.640625 56 84.28125 50.015625 
Q 88.921875 44.046875 88.921875 33.015625 
L 88.921875 0 
L 79.890625 0 
L 79.890625 32.71875 
Q 79.890625 40.578125 77.09375 44.375 
Q 74.3125 48.1875 68.609375 48.1875 
Q 61.625 48.1875 57.5625 43.546875 
Q 53.515625 38.921875 53.515625 30.90625 
L 53.515625 0 
L 44.484375 0 
L 44.484375 32.71875 
Q 44.484375 40.625 41.703125 44.40625 
Q 38.921875 48.1875 33.109375 48.1875 
Q 26.21875 48.1875 22.15625 43.53125 
Q 18.109375 38.875 18.109375 30.90625 
L 18.109375 0 
L 9.078125 0 
L 9.078125 54.6875 
L 18.109375 54.6875 
L 18.109375 46.1875 
Q 21.1875 51.21875 25.484375 53.609375 
Q 29.78125 56 35.6875 56 
Q 41.65625 56 45.828125 52.96875 
Q 50 49.953125 52 44.1875 
z
" id="DejaVuSans-109"/>
      <path d="M 56.203125 29.59375 
L 56.203125 25.203125 
L 14.890625 25.203125 
Q 15.484375 15.921875 20.484375 11.0625 
Q 25.484375 6.203125 34.421875 6.203125 
Q 39.59375 6.203125 44.453125 7.46875 
Q 49.3125 8.734375 54.109375 11.28125 
L 54.109375 2.78125 
Q 49.265625 0.734375 44.1875 -0.34375 
Q 39.109375 -1.421875 33.890625 -1.421875 
Q 20.796875 -1.421875 13.15625 6.1875 
Q 5.515625 13.8125 5.515625 26.8125 
Q 5.515625 40.234375 12.765625 48.109375 
Q 20.015625 56 32.328125 56 
Q 43.359375 56 49.78125 48.890625 
Q 56.203125 41.796875 56.203125 29.59375 
z
M 47.21875 32.234375 
Q 47.125 39.59375 43.09375 43.984375 
Q 39.0625 48.390625 32.421875 48.390625 
Q 24.90625 48.390625 20.390625 44.140625 
Q 15.875 39.890625 15.1875 32.171875 
z
" id="DejaVuSans-101"/>
     </defs>
     <g transform="translate(538.635 670.59625)scale(0.12 -0.12)">
      <use xlink:href="#DejaVuSans-84"/>
      <use x="61.037109" xlink:href="#DejaVuSans-105"/>
      <use x="88.820312" xlink:href="#DejaVuSans-109"/>
      <use x="186.232422" xlink:href="#DejaVuSans-101"/>
     </g>
    </g>
   </g>
   <g id="matplotlib.axis_2">
    <g id="ytick_1">
     <g id="line2d_8">
      <defs>
       <path d="M 0 0 
L -3.5 0 
" id="m2f8aee7ea0" style="stroke:#000000;stroke-width:0.8;"/>
      </defs>
      <g>
       <use style="stroke:#000000;stroke-width:0.8;" x="135" xlink:href="#m2f8aee7ea0" y="615.6"/>
      </g>
     </g>
     <g id="text_9">
      <!-- 0.0 -->
      <defs>
       <path d="M 10.6875 12.40625 
L 21 12.40625 
L 21 0 
L 10.6875 0 
z
" id="DejaVuSans-46"/>
      </defs>
      <g transform="translate(112.096875 619.399219)scale(0.1 -0.1)">
       <use xlink:href="#DejaVuSans-48"/>
       <use x="63.623047" xlink:href="#DejaVuSans-46"/>
       <use x="95.410156" xlink:href="#DejaVuSans-48"/>
      </g>
     </g>
    </g>
    <g id="ytick_2">
     <g id="line2d_9">
      <g>
       <use style="stroke:#000000;stroke-width:0.8;" x="135" xlink:href="#m2f8aee7ea0" y="549.203496"/>
      </g>
     </g>
     <g id="text_10">
      <!-- 0.1 -->
      <g transform="translate(112.096875 553.002715)scale(0.1 -0.1)">
       <use xlink:href="#DejaVuSans-48"/>
       <use x="63.623047" xlink:href="#DejaVuSans-46"/>
       <use x="95.410156" xlink:href="#DejaVuSans-49"/>
      </g>
     </g>
    </g>
    <g id="ytick_3">
     <g id="line2d_10">
      <g>
       <use style="stroke:#000000;stroke-width:0.8;" x="135" xlink:href="#m2f8aee7ea0" y="482.806992"/>
      </g>
     </g>
     <g id="text_11">
      <!-- 0.2 -->
      <g transform="translate(112.096875 486.606211)scale(0.1 -0.1)">
       <use xlink:href="#DejaVuSans-48"/>
       <use x="63.623047" xlink:href="#DejaVuSans-46"/>
       <use x="95.410156" xlink:href="#DejaVuSans-50"/>
      </g>
     </g>
    </g>
    <g id="ytick_4">
     <g id="line2d_11">
      <g>
       <use style="stroke:#000000;stroke-width:0.8;" x="135" xlink:href="#m2f8aee7ea0" y="416.410488"/>
      </g>
     </g>
     <g id="text_12">
      <!-- 0.3 -->
      <defs>
       <path d="M 40.578125 39.3125 
Q 47.65625 37.796875 51.625 33 
Q 55.609375 28.21875 55.609375 21.1875 
Q 55.609375 10.40625 48.1875 4.484375 
Q 40.765625 -1.421875 27.09375 -1.421875 
Q 22.515625 -1.421875 17.65625 -0.515625 
Q 12.796875 0.390625 7.625 2.203125 
L 7.625 11.71875 
Q 11.71875 9.328125 16.59375 8.109375 
Q 21.484375 6.890625 26.8125 6.890625 
Q 36.078125 6.890625 40.9375 10.546875 
Q 45.796875 14.203125 45.796875 21.1875 
Q 45.796875 27.640625 41.28125 31.265625 
Q 36.765625 34.90625 28.71875 34.90625 
L 20.21875 34.90625 
L 20.21875 43.015625 
L 29.109375 43.015625 
Q 36.375 43.015625 40.234375 45.921875 
Q 44.09375 48.828125 44.09375 54.296875 
Q 44.09375 59.90625 40.109375 62.90625 
Q 36.140625 65.921875 28.71875 65.921875 
Q 24.65625 65.921875 20.015625 65.03125 
Q 15.375 64.15625 9.8125 62.3125 
L 9.8125 71.09375 
Q 15.4375 72.65625 20.34375 73.4375 
Q 25.25 74.21875 29.59375 74.21875 
Q 40.828125 74.21875 47.359375 69.109375 
Q 53.90625 64.015625 53.90625 55.328125 
Q 53.90625 49.265625 50.4375 45.09375 
Q 46.96875 40.921875 40.578125 39.3125 
z
" id="DejaVuSans-51"/>
      </defs>
      <g transform="translate(112.096875 420.209707)scale(0.1 -0.1)">
       <use xlink:href="#DejaVuSans-48"/>
       <use x="63.623047" xlink:href="#DejaVuSans-46"/>
       <use x="95.410156" xlink:href="#DejaVuSans-51"/>
      </g>
     </g>
    </g>
    <g id="ytick_5">
     <g id="line2d_12">
      <g>
       <use style="stroke:#000000;stroke-width:0.8;" x="135" xlink:href="#m2f8aee7ea0" y="350.013984"/>
      </g>
     </g>
     <g id="text_13">
      <!-- 0.4 -->
      <g transform="translate(112.096875 353.813203)scale(0.1 -0.1)">
       <use xlink:href="#DejaVuSans-48"/>
       <use x="63.623047" xlink:href="#DejaVuSans-46"/>
       <use x="95.410156" xlink:href="#DejaVuSans-52"/>
      </g>
     </g>
    </g>
    <g id="ytick_6">
     <g id="line2d_13">
      <g>
       <use style="stroke:#000000;stroke-width:0.8;" x="135" xlink:href="#m2f8aee7ea0" y="283.61748"/>
      </g>
     </g>
     <g id="text_14">
      <!-- 0.5 -->
      <defs>
       <path d="M 10.796875 72.90625 
L 49.515625 72.90625 
L 49.515625 64.59375 
L 19.828125 64.59375 
L 19.828125 46.734375 
Q 21.96875 47.46875 24.109375 47.828125 
Q 26.265625 48.1875 28.421875 48.1875 
Q 40.625 48.1875 47.75 41.5 
Q 54.890625 34.8125 54.890625 23.390625 
Q 54.890625 11.625 47.5625 5.09375 
Q 40.234375 -1.421875 26.90625 -1.421875 
Q 22.3125 -1.421875 17.546875 -0.640625 
Q 12.796875 0.140625 7.71875 1.703125 
L 7.71875 11.625 
Q 12.109375 9.234375 16.796875 8.0625 
Q 21.484375 6.890625 26.703125 6.890625 
Q 35.15625 6.890625 40.078125 11.328125 
Q 45.015625 15.765625 45.015625 23.390625 
Q 45.015625 31 40.078125 35.4375 
Q 35.15625 39.890625 26.703125 39.890625 
Q 22.75 39.890625 18.8125 39.015625 
Q 14.890625 38.140625 10.796875 36.28125 
z
" id="DejaVuSans-53"/>
      </defs>
      <g transform="translate(112.096875 287.416699)scale(0.1 -0.1)">
       <use xlink:href="#DejaVuSans-48"/>
       <use x="63.623047" xlink:href="#DejaVuSans-46"/>
       <use x="95.410156" xlink:href="#DejaVuSans-53"/>
      </g>
     </g>
    </g>
    <g id="ytick_7">
     <g id="line2d_14">
      <g>
       <use style="stroke:#000000;stroke-width:0.8;" x="135" xlink:href="#m2f8aee7ea0" y="217.220976"/>
      </g>
     </g>
     <g id="text_15">
      <!-- 0.6 -->
      <g transform="translate(112.096875 221.020195)scale(0.1 -0.1)">
       <use xlink:href="#DejaVuSans-48"/>
       <use x="63.623047" xlink:href="#DejaVuSans-46"/>
       <use x="95.410156" xlink:href="#DejaVuSans-54"/>
      </g>
     </g>
    </g>
    <g id="ytick_8">
     <g id="line2d_15">
      <g>
       <use style="stroke:#000000;stroke-width:0.8;" x="135" xlink:href="#m2f8aee7ea0" y="150.824472"/>
      </g>
     </g>
     <g id="text_16">
      <!-- 0.7 -->
      <defs>
       <path d="M 8.203125 72.90625 
L 55.078125 72.90625 
L 55.078125 68.703125 
L 28.609375 0 
L 18.3125 0 
L 43.21875 64.59375 
L 8.203125 64.59375 
z
" id="DejaVuSans-55"/>
      </defs>
      <g transform="translate(112.096875 154.623691)scale(0.1 -0.1)">
       <use xlink:href="#DejaVuSans-48"/>
       <use x="63.623047" xlink:href="#DejaVuSans-46"/>
       <use x="95.410156" xlink:href="#DejaVuSans-55"/>
      </g>
     </g>
    </g>
    <g id="text_17">
     <!-- Utility Value -->
     <defs>
      <path d="M 8.6875 72.90625 
L 18.609375 72.90625 
L 18.609375 28.609375 
Q 18.609375 16.890625 22.84375 11.734375 
Q 27.09375 6.59375 36.625 6.59375 
Q 46.09375 6.59375 50.34375 11.734375 
Q 54.59375 16.890625 54.59375 28.609375 
L 54.59375 72.90625 
L 64.5 72.90625 
L 64.5 27.390625 
Q 64.5 13.140625 57.4375 5.859375 
Q 50.390625 -1.421875 36.625 -1.421875 
Q 22.796875 -1.421875 15.734375 5.859375 
Q 8.6875 13.140625 8.6875 27.390625 
z
" id="DejaVuSans-85"/>
      <path d="M 18.3125 70.21875 
L 18.3125 54.6875 
L 36.8125 54.6875 
L 36.8125 47.703125 
L 18.3125 47.703125 
L 18.3125 18.015625 
Q 18.3125 11.328125 20.140625 9.421875 
Q 21.96875 7.515625 27.59375 7.515625 
L 36.8125 7.515625 
L 36.8125 0 
L 27.59375 0 
Q 17.1875 0 13.234375 3.875 
Q 9.28125 7.765625 9.28125 18.015625 
L 9.28125 47.703125 
L 2.6875 47.703125 
L 2.6875 54.6875 
L 9.28125 54.6875 
L 9.28125 70.21875 
z
" id="DejaVuSans-116"/>
      <path d="M 9.421875 75.984375 
L 18.40625 75.984375 
L 18.40625 0 
L 9.421875 0 
z
" id="DejaVuSans-108"/>
      <path d="M 32.171875 -5.078125 
Q 28.375 -14.84375 24.75 -17.8125 
Q 21.140625 -20.796875 15.09375 -20.796875 
L 7.90625 -20.796875 
L 7.90625 -13.28125 
L 13.1875 -13.28125 
Q 16.890625 -13.28125 18.9375 -11.515625 
Q 21 -9.765625 23.484375 -3.21875 
L 25.09375 0.875 
L 2.984375 54.6875 
L 12.5 54.6875 
L 29.59375 11.921875 
L 46.6875 54.6875 
L 56.203125 54.6875 
z
" id="DejaVuSans-121"/>
      <path id="DejaVuSans-32"/>
      <path d="M 28.609375 0 
L 0.78125 72.90625 
L 11.078125 72.90625 
L 34.1875 11.53125 
L 57.328125 72.90625 
L 67.578125 72.90625 
L 39.796875 0 
z
" id="DejaVuSans-86"/>
      <path d="M 34.28125 27.484375 
Q 23.390625 27.484375 19.1875 25 
Q 14.984375 22.515625 14.984375 16.5 
Q 14.984375 11.71875 18.140625 8.90625 
Q 21.296875 6.109375 26.703125 6.109375 
Q 34.1875 6.109375 38.703125 11.40625 
Q 43.21875 16.703125 43.21875 25.484375 
L 43.21875 27.484375 
z
M 52.203125 31.203125 
L 52.203125 0 
L 43.21875 0 
L 43.21875 8.296875 
Q 40.140625 3.328125 35.546875 0.953125 
Q 30.953125 -1.421875 24.3125 -1.421875 
Q 15.921875 -1.421875 10.953125 3.296875 
Q 6 8.015625 6 15.921875 
Q 6 25.140625 12.171875 29.828125 
Q 18.359375 34.515625 30.609375 34.515625 
L 43.21875 34.515625 
L 43.21875 35.40625 
Q 43.21875 41.609375 39.140625 45 
Q 35.0625 48.390625 27.6875 48.390625 
Q 23 48.390625 18.546875 47.265625 
Q 14.109375 46.140625 10.015625 43.890625 
L 10.015625 52.203125 
Q 14.9375 54.109375 19.578125 55.046875 
Q 24.21875 56 28.609375 56 
Q 40.484375 56 46.34375 49.84375 
Q 52.203125 43.703125 52.203125 31.203125 
z
" id="DejaVuSans-97"/>
      <path d="M 8.5 21.578125 
L 8.5 54.6875 
L 17.484375 54.6875 
L 17.484375 21.921875 
Q 17.484375 14.15625 20.5 10.265625 
Q 23.53125 6.390625 29.59375 6.390625 
Q 36.859375 6.390625 41.078125 11.03125 
Q 45.3125 15.671875 45.3125 23.6875 
L 45.3125 54.6875 
L 54.296875 54.6875 
L 54.296875 0 
L 45.3125 0 
L 45.3125 8.40625 
Q 42.046875 3.421875 37.71875 1 
Q 33.40625 -1.421875 27.6875 -1.421875 
Q 18.265625 -1.421875 13.375 4.4375 
Q 8.5 10.296875 8.5 21.578125 
z
M 31.109375 56 
z
" id="DejaVuSans-117"/>
     </defs>
     <g transform="translate(105.60125 400.090312)rotate(-90)scale(0.12 -0.12)">
      <use xlink:href="#DejaVuSans-85"/>
      <use x="73.193359" xlink:href="#DejaVuSans-116"/>
      <use x="112.402344" xlink:href="#DejaVuSans-105"/>
      <use x="140.185547" xlink:href="#DejaVuSans-108"/>
      <use x="167.96875" xlink:href="#DejaVuSans-105"/>
      <use x="195.751953" xlink:href="#DejaVuSans-116"/>
      <use x="234.960938" xlink:href="#DejaVuSans-121"/>
      <use x="294.140625" xlink:href="#DejaVuSans-32"/>
      <use x="325.927734" xlink:href="#DejaVuSans-86"/>
      <use x="394.226562" xlink:href="#DejaVuSans-97"/>
      <use x="455.505859" xlink:href="#DejaVuSans-108"/>
      <use x="483.289062" xlink:href="#DejaVuSans-117"/>
      <use x="546.667969" xlink:href="#DejaVuSans-101"/>
     </g>
    </g>
   </g>
   <g id="line2d_16">
    <path clip-path="url(#p59e5c76443)" d="M 173.045455 615.6 
L 179.439649 615.6 
L 185.833843 615.6 
L 192.228037 615.6 
L 198.622231 615.6 
L 205.016425 615.6 
L 211.410619 615.6 
L 217.804813 615.6 
L 224.199007 615.6 
L 230.593201 615.6 
L 236.987395 615.6 
L 243.381589 615.6 
L 249.775783 615.6 
L 256.169977 615.6 
L 262.564171 615.6 
L 268.958365 615.6 
L 275.352559 615.6 
L 281.746753 615.6 
L 288.140947 615.6 
L 294.535141 615.6 
L 300.929335 615.6 
L 307.323529 615.6 
L 313.717723 615.6 
L 320.111917 615.6 
L 326.506112 615.6 
L 332.900306 615.6 
L 339.2945 615.6 
L 345.688694 615.6 
L 352.082888 615.6 
L 358.477082 615.6 
L 364.871276 615.6 
L 371.26547 615.6 
L 377.659664 615.6 
L 384.053858 615.6 
L 390.448052 615.6 
L 396.842246 615.6 
L 403.23644 615.6 
L 409.630634 615.6 
L 416.024828 615.6 
L 422.419022 615.6 
L 428.813216 615.6 
L 435.20741 615.6 
L 441.601604 615.6 
L 447.995798 615.6 
L 454.389992 615.6 
L 460.784186 615.6 
L 467.17838 615.6 
L 473.572574 615.6 
L 479.966769 615.6 
L 486.360963 615.6 
L 492.755157 615.6 
L 499.149351 615.6 
L 505.543545 615.6 
L 511.937739 615.6 
L 518.331933 615.6 
L 524.726127 615.6 
L 531.120321 615.6 
L 537.514515 615.6 
L 543.908709 615.6 
L 550.302903 615.6 
L 556.697097 615.6 
L 563.091291 615.6 
L 569.485485 615.6 
L 575.879679 615.6 
L 582.273873 615.6 
L 588.668067 615.6 
L 595.062261 615.6 
L 601.456455 615.6 
L 607.850649 615.6 
L 614.244843 615.6 
L 620.639037 615.6 
L 627.033231 615.6 
L 633.427426 615.6 
L 639.82162 615.6 
L 646.215814 615.6 
L 652.610008 615.6 
L 659.004202 615.6 
L 665.398396 615.6 
L 671.79259 615.6 
L 678.186784 615.6 
L 684.580978 615.6 
L 690.975172 615.6 
L 697.369366 615.6 
L 703.76356 615.6 
L 710.157754 615.6 
L 716.551948 615.6 
L 722.946142 615.6 
L 729.340336 615.6 
L 735.73453 615.6 
L 742.128724 615.6 
L 748.522918 615.6 
L 754.917112 615.6 
L 761.311306 615.6 
L 767.7055 615.6 
L 774.099694 615.6 
L 780.493888 615.6 
L 786.888083 615.6 
L 793.282277 615.6 
L 799.676471 615.6 
L 806.070665 615.6 
L 812.464859 615.6 
L 818.859053 615.6 
L 825.253247 615.6 
L 831.647441 615.6 
L 838.041635 615.6 
L 844.435829 615.6 
L 850.830023 615.6 
L 857.224217 615.6 
L 863.618411 615.6 
L 870.012605 615.6 
L 876.406799 615.6 
L 882.800993 615.6 
L 889.195187 615.6 
L 895.589381 615.6 
L 901.983575 615.6 
L 908.377769 615.6 
L 914.771963 615.6 
L 921.166157 615.6 
L 927.560351 615.6 
L 933.954545 615.6 
" style="fill:none;stroke:#a50026;stroke-linecap:square;stroke-width:1.5;"/>
   </g>
   <g id="line2d_17">
    <path clip-path="url(#p59e5c76443)" d="M 173.045455 615.6 
L 179.439649 549.161519 
L 185.833843 549.111615 
L 192.228037 549.172487 
L 198.622231 549.153334 
L 205.016425 549.166105 
L 211.410619 549.167922 
L 217.804813 549.145882 
L 224.199007 549.148039 
L 230.593201 549.154664 
L 236.987395 549.149496 
L 243.381589 549.152803 
L 249.775783 549.155501 
L 256.169977 549.170554 
L 262.564171 549.174111 
L 268.958365 549.176416 
L 275.352559 549.17687 
L 281.746753 549.196906 
L 288.140947 549.197572 
L 294.535141 549.199857 
L 300.929335 527.151013 
L 307.323529 527.149229 
L 313.717723 505.099917 
L 320.111917 483.047318 
L 326.506112 483.060182 
L 332.900306 461.010418 
L 339.2945 438.966142 
L 345.688694 438.960388 
L 352.082888 416.906894 
L 358.477082 416.910014 
L 364.871276 394.863662 
L 371.26547 394.862507 
L 377.659664 394.864368 
L 384.053858 372.816885 
L 390.448052 372.815715 
L 396.842246 372.826294 
L 403.23644 350.772388 
L 409.630634 350.777679 
L 416.024828 350.779092 
L 422.419022 328.734402 
L 428.813216 328.737258 
L 435.20741 328.737336 
L 441.601604 328.741033 
L 447.995798 306.69172 
L 454.389992 306.700024 
L 460.784186 306.697845 
L 467.17838 306.706409 
L 473.572574 306.706161 
L 479.966769 284.662557 
L 486.360963 284.664556 
L 492.755157 284.663245 
L 499.149351 284.670143 
L 505.543545 284.672178 
L 511.937739 284.676138 
L 518.331933 284.676899 
L 524.726127 262.629313 
L 531.120321 262.634206 
L 537.514515 262.634993 
L 543.908709 262.640332 
L 550.302903 262.641409 
L 556.697097 262.644059 
L 563.091291 262.646403 
L 569.485485 262.650938 
L 575.879679 262.654703 
L 582.273873 262.651901 
L 588.668067 262.657696 
L 595.062261 240.612517 
L 601.456455 240.615869 
L 607.850649 240.618734 
L 614.244843 240.622823 
L 620.639037 240.630156 
L 627.033231 240.629477 
L 633.427426 240.628716 
L 639.82162 240.633766 
L 646.215814 240.635992 
L 652.610008 240.639475 
L 659.004202 240.639954 
L 665.398396 240.640376 
L 671.79259 240.640103 
L 678.186784 240.640269 
L 684.580978 240.64342 
L 690.975172 240.644863 
L 697.369366 240.646165 
L 703.76356 240.643201 
L 710.157754 240.644431 
L 716.551948 240.646891 
L 722.946142 240.646673 
L 729.340336 240.649134 
L 735.73453 240.648501 
L 742.128724 218.603416 
L 748.522918 218.603004 
L 754.917112 218.604471 
L 761.311306 218.604792 
L 767.7055 218.606157 
L 774.099694 218.608598 
L 780.493888 218.609237 
L 786.888083 218.609109 
L 793.282277 218.61082 
L 799.676471 218.613496 
L 806.070665 218.612743 
L 812.464859 218.614575 
L 818.859053 218.615752 
L 825.253247 218.618078 
L 831.647441 218.619135 
L 838.041635 218.618786 
L 844.435829 218.622266 
L 850.830023 218.623682 
L 857.224217 218.623698 
L 863.618411 218.624212 
L 870.012605 218.626291 
L 876.406799 218.626501 
L 882.800993 218.628865 
L 889.195187 218.630851 
L 895.589381 218.628998 
L 901.983575 218.631132 
L 908.377769 218.632022 
L 914.771963 218.633778 
L 921.166157 218.632879 
L 927.560351 218.63399 
L 933.954545 218.634638 
" style="fill:none;stroke:#f88d52;stroke-linecap:square;stroke-width:1.5;"/>
   </g>
   <g id="line2d_18">
    <path clip-path="url(#p59e5c76443)" d="M 173.045455 615.6 
L 179.439649 516.121028 
L 185.833843 516.103811 
L 192.228037 516.183598 
L 198.622231 516.170201 
L 205.016425 516.112098 
L 211.410619 516.135595 
L 217.804813 516.120095 
L 224.199007 516.129822 
L 230.593201 516.140765 
L 236.987395 516.12327 
L 243.381589 516.113096 
L 249.775783 516.125135 
L 256.169977 516.123389 
L 262.564171 516.134498 
L 268.958365 516.125761 
L 275.352559 516.123471 
L 281.746753 516.131331 
L 288.140947 516.128696 
L 294.535141 516.111776 
L 300.929335 494.072642 
L 307.323529 494.071638 
L 313.717723 472.008083 
L 320.111917 449.962392 
L 326.506112 449.962529 
L 332.900306 427.897264 
L 339.2945 405.841669 
L 345.688694 405.850278 
L 352.082888 383.795255 
L 358.477082 383.790791 
L 364.871276 361.741559 
L 371.26547 361.748338 
L 377.659664 361.742588 
L 384.053858 339.691135 
L 390.448052 339.692626 
L 396.842246 339.696943 
L 403.23644 317.645623 
L 409.630634 317.64762 
L 416.024828 317.645709 
L 422.419022 295.601604 
L 428.813216 295.600034 
L 435.20741 295.606931 
L 441.601604 295.609206 
L 447.995798 273.551633 
L 454.389992 273.563173 
L 460.784186 273.557249 
L 467.17838 273.559014 
L 473.572574 273.560224 
L 479.966769 251.509403 
L 486.360963 251.516272 
L 492.755157 251.506124 
L 499.149351 251.514829 
L 505.543545 251.515588 
L 511.937739 251.518998 
L 518.331933 251.520235 
L 524.726127 229.474099 
L 531.120321 229.477086 
L 537.514515 229.481819 
L 543.908709 229.482571 
L 550.302903 229.48817 
L 556.697097 229.488009 
L 563.091291 229.490171 
L 569.485485 229.484697 
L 575.879679 229.490395 
L 582.273873 229.489232 
L 588.668067 229.492044 
L 595.062261 207.443432 
L 601.456455 207.440021 
L 607.850649 207.442191 
L 614.244843 207.44471 
L 620.639037 207.444169 
L 627.033231 207.453925 
L 633.427426 207.448779 
L 639.82162 207.450887 
L 646.215814 207.450579 
L 652.610008 207.453239 
L 659.004202 207.452744 
L 665.398396 207.459818 
L 671.79259 207.458898 
L 678.186784 207.452712 
L 684.580978 207.460888 
L 690.975172 207.456805 
L 697.369366 207.458132 
L 703.76356 207.460555 
L 710.157754 207.460228 
L 716.551948 207.453966 
L 722.946142 207.454529 
L 729.340336 207.460769 
L 735.73453 207.458651 
L 742.128724 185.40632 
L 748.522918 185.341104 
L 754.917112 185.345179 
L 761.311306 185.345353 
L 767.7055 185.343864 
L 774.099694 185.345713 
L 780.493888 185.347069 
L 786.888083 185.346908 
L 793.282277 185.345963 
L 799.676471 185.350023 
L 806.070665 185.351394 
L 812.464859 185.353429 
L 818.859053 185.350643 
L 825.253247 185.358928 
L 831.647441 185.358486 
L 838.041635 185.358891 
L 844.435829 185.353974 
L 850.830023 185.356062 
L 857.224217 185.362472 
L 863.618411 185.357448 
L 870.012605 185.358676 
L 876.406799 185.357818 
L 882.800993 185.356817 
L 889.195187 185.355089 
L 895.589381 185.355573 
L 901.983575 185.355645 
L 908.377769 185.356127 
L 914.771963 185.355217 
L 921.166157 185.353977 
L 927.560351 185.355609 
L 933.954545 185.355044 
" style="fill:none;stroke:#ffffbf;stroke-linecap:square;stroke-width:1.5;"/>
   </g>
   <g id="line2d_19">
    <path clip-path="url(#p59e5c76443)" d="M 173.045455 615.6 
L 179.439649 483.071483 
L 185.833843 483.166054 
L 192.228037 483.184711 
L 198.622231 483.211977 
L 205.016425 483.161876 
L 211.410619 483.139133 
L 217.804813 483.171318 
L 224.199007 483.186659 
L 230.593201 483.162846 
L 236.987395 483.164392 
L 243.381589 483.156294 
L 249.775783 483.148835 
L 256.169977 483.182673 
L 262.564171 483.164081 
L 268.958365 483.158481 
L 275.352559 483.169051 
L 281.746753 483.140118 
L 288.140947 483.153285 
L 294.535141 483.15069 
L 300.929335 461.101267 
L 307.323529 461.116652 
L 313.717723 439.047338 
L 320.111917 417.006138 
L 326.506112 417.007704 
L 332.900306 394.96126 
L 339.2945 372.900337 
L 345.688694 372.905333 
L 352.082888 350.847215 
L 358.477082 350.844272 
L 364.871276 328.788088 
L 371.26547 328.798418 
L 377.659664 328.791821 
L 384.053858 306.739492 
L 390.448052 306.729824 
L 396.842246 306.728634 
L 403.23644 284.687121 
L 409.630634 284.68439 
L 416.024828 284.680683 
L 422.419022 262.631948 
L 428.813216 262.630035 
L 435.20741 262.625991 
L 441.601604 262.620567 
L 447.995798 240.574668 
L 454.389992 240.574443 
L 460.784186 240.571439 
L 467.17838 240.564712 
L 473.572574 240.575483 
L 479.966769 218.525237 
L 486.360963 218.502284 
L 492.755157 218.508304 
L 499.149351 218.505749 
L 505.543545 218.507489 
L 511.937739 218.509674 
L 518.331933 218.507312 
L 524.726127 196.465821 
L 531.120321 196.036476 
L 537.514515 196.020136 
L 543.908709 196.023689 
L 550.302903 196.027557 
L 556.697097 196.02423 
L 563.091291 196.024972 
L 569.485485 196.031925 
L 575.879679 196.035384 
L 582.273873 196.03315 
L 588.668067 196.045202 
L 595.062261 174.032151 
L 601.456455 173.569929 
L 607.850649 173.567248 
L 614.244843 173.568539 
L 620.639037 173.571523 
L 627.033231 173.573336 
L 633.427426 173.572122 
L 639.82162 173.570817 
L 646.215814 173.57205 
L 652.610008 173.574976 
L 659.004202 173.574566 
L 665.398396 173.572748 
L 671.79259 173.573313 
L 678.186784 173.574601 
L 684.580978 173.573058 
L 690.975172 173.568268 
L 697.369366 173.568088 
L 703.76356 173.565505 
L 710.157754 173.567183 
L 716.551948 173.571139 
L 722.946142 173.569824 
L 729.340336 173.572486 
L 735.73453 173.571932 
L 742.128724 151.595564 
L 748.522918 151.602156 
L 754.917112 151.600577 
L 761.311306 151.600547 
L 767.7055 151.598061 
L 774.099694 151.596071 
L 780.493888 151.596425 
L 786.888083 151.596315 
L 793.282277 151.595968 
L 799.676471 151.603787 
L 806.070665 151.600796 
L 812.464859 151.605939 
L 818.859053 151.605072 
L 825.253247 151.607658 
L 831.647441 151.592185 
L 838.041635 151.600487 
L 844.435829 151.595764 
L 850.830023 151.599256 
L 857.224217 151.6004 
L 863.618411 151.596379 
L 870.012605 151.599448 
L 876.406799 151.60067 
L 882.800993 151.601344 
L 889.195187 151.594973 
L 895.589381 151.590875 
L 901.983575 151.598813 
L 908.377769 151.596886 
L 914.771963 151.595543 
L 921.166157 151.599687 
L 927.560351 151.604351 
L 933.954545 151.600831 
" style="fill:none;stroke:#86cb66;stroke-linecap:square;stroke-width:1.5;"/>
   </g>
   <g id="line2d_20">
    <path clip-path="url(#p59e5c76443)" d="M 173.045455 615.6 
L 179.439649 449.418636 
L 185.833843 449.381301 
L 192.228037 449.308851 
L 198.622231 449.293255 
L 205.016425 449.288046 
L 211.410619 449.354895 
L 217.804813 449.356895 
L 224.199007 449.32245 
L 230.593201 449.312176 
L 236.987395 449.354036 
L 243.381589 449.338483 
L 249.775783 449.328799 
L 256.169977 449.321783 
L 262.564171 449.320829 
L 268.958365 449.31647 
L 275.352559 449.317062 
L 281.746753 449.29702 
L 288.140947 449.30835 
L 294.535141 449.318424 
L 300.929335 427.26232 
L 307.323529 427.2806 
L 313.717723 405.241453 
L 320.111917 383.180305 
L 326.506112 383.184485 
L 332.900306 361.154359 
L 339.2945 339.103676 
L 345.688694 339.118045 
L 352.082888 317.055686 
L 358.477082 317.046126 
L 364.871276 295.019143 
L 371.26547 295.019785 
L 377.659664 295.02304 
L 384.053858 272.965585 
L 390.448052 272.961943 
L 396.842246 272.974219 
L 403.23644 250.929926 
L 409.630634 250.912874 
L 416.024828 250.927315 
L 422.419022 228.882633 
L 428.813216 228.75485 
L 435.20741 228.772053 
L 441.601604 228.77298 
L 447.995798 206.727055 
L 454.389992 206.134741 
L 460.784186 206.08749 
L 467.17838 206.098305 
L 473.572574 206.105321 
L 479.966769 184.096039 
L 486.360963 183.912428 
L 492.755157 183.922077 
L 499.149351 183.934958 
L 505.543545 183.931783 
L 511.937739 183.942017 
L 518.331933 183.95388 
L 524.726127 161.963031 
L 531.120321 161.973597 
L 537.514515 161.974311 
L 543.908709 161.982611 
L 550.302903 161.98475 
L 556.697097 161.981128 
L 563.091291 161.990407 
L 569.485485 162.001115 
L 575.879679 161.999274 
L 582.273873 162.003625 
L 588.668067 162.000876 
L 595.062261 140.032153 
L 601.456455 140.039613 
L 607.850649 140.038098 
L 614.244843 140.035412 
L 620.639037 140.053127 
L 627.033231 140.032111 
L 633.427426 140.029514 
L 639.82162 140.006586 
L 646.215814 139.994559 
L 652.610008 139.978089 
L 659.004202 139.974657 
L 665.398396 139.987215 
L 671.79259 139.979959 
L 678.186784 139.954924 
L 684.580978 139.962129 
L 690.975172 139.962365 
L 697.369366 139.969732 
L 703.76356 139.978632 
L 710.157754 139.966877 
L 716.551948 139.98179 
L 722.946142 139.963728 
L 729.340336 139.933992 
L 735.73453 139.792413 
L 742.128724 118.189031 
L 748.522918 112.212613 
L 754.917112 112.119016 
L 761.311306 111.629454 
L 767.7055 111.6 
L 774.099694 111.606172 
L 780.493888 111.606238 
L 786.888083 111.615792 
L 793.282277 111.613179 
L 799.676471 111.622418 
L 806.070665 111.625673 
L 812.464859 111.628929 
L 818.859053 111.63407 
L 825.253247 111.635465 
L 831.647441 111.644911 
L 838.041635 111.64585 
L 844.435829 111.650373 
L 850.830023 111.654617 
L 857.224217 111.657278 
L 863.618411 111.65519 
L 870.012605 111.65887 
L 876.406799 111.662435 
L 882.800993 111.666962 
L 889.195187 111.665523 
L 895.589381 111.66651 
L 901.983575 111.670614 
L 908.377769 111.672779 
L 914.771963 111.677513 
L 921.166157 111.676954 
L 927.560351 111.678698 
L 933.954545 111.678762 
" style="fill:none;stroke:#006837;stroke-linecap:square;stroke-width:1.5;"/>
   </g>
   <g id="patch_3">
    <path d="M 135 640.8 
L 135 86.4 
" style="fill:none;stroke:#000000;stroke-linecap:square;stroke-linejoin:miter;stroke-width:0.8;"/>
   </g>
   <g id="patch_4">
    <path d="M 972 640.8 
L 972 86.4 
" style="fill:none;stroke:#000000;stroke-linecap:square;stroke-linejoin:miter;stroke-width:0.8;"/>
   </g>
   <g id="patch_5">
    <path d="M 135 640.8 
L 972 640.8 
" style="fill:none;stroke:#000000;stroke-linecap:square;stroke-linejoin:miter;stroke-width:0.8;"/>
   </g>
   <g id="patch_6">
    <path d="M 135 86.4 
L 972 86.4 
" style="fill:none;stroke:#000000;stroke-linecap:square;stroke-linejoin:miter;stroke-width:0.8;"/>
   </g>
   <g id="text_18">
    <!-- Evolution of Average Utility -->
    <defs>
     <path d="M 9.8125 72.90625 
L 55.90625 72.90625 
L 55.90625 64.59375 
L 19.671875 64.59375 
L 19.671875 43.015625 
L 54.390625 43.015625 
L 54.390625 34.71875 
L 19.671875 34.71875 
L 19.671875 8.296875 
L 56.78125 8.296875 
L 56.78125 0 
L 9.8125 0 
z
" id="DejaVuSans-69"/>
     <path d="M 2.984375 54.6875 
L 12.5 54.6875 
L 29.59375 8.796875 
L 46.6875 54.6875 
L 56.203125 54.6875 
L 35.6875 0 
L 23.484375 0 
z
" id="DejaVuSans-118"/>
     <path d="M 30.609375 48.390625 
Q 23.390625 48.390625 19.1875 42.75 
Q 14.984375 37.109375 14.984375 27.296875 
Q 14.984375 17.484375 19.15625 11.84375 
Q 23.34375 6.203125 30.609375 6.203125 
Q 37.796875 6.203125 41.984375 11.859375 
Q 46.1875 17.53125 46.1875 27.296875 
Q 46.1875 37.015625 41.984375 42.703125 
Q 37.796875 48.390625 30.609375 48.390625 
z
M 30.609375 56 
Q 42.328125 56 49.015625 48.375 
Q 55.71875 40.765625 55.71875 27.296875 
Q 55.71875 13.875 49.015625 6.21875 
Q 42.328125 -1.421875 30.609375 -1.421875 
Q 18.84375 -1.421875 12.171875 6.21875 
Q 5.515625 13.875 5.515625 27.296875 
Q 5.515625 40.765625 12.171875 48.375 
Q 18.84375 56 30.609375 56 
z
" id="DejaVuSans-111"/>
     <path d="M 54.890625 33.015625 
L 54.890625 0 
L 45.90625 0 
L 45.90625 32.71875 
Q 45.90625 40.484375 42.875 44.328125 
Q 39.84375 48.1875 33.796875 48.1875 
Q 26.515625 48.1875 22.3125 43.546875 
Q 18.109375 38.921875 18.109375 30.90625 
L 18.109375 0 
L 9.078125 0 
L 9.078125 54.6875 
L 18.109375 54.6875 
L 18.109375 46.1875 
Q 21.34375 51.125 25.703125 53.5625 
Q 30.078125 56 35.796875 56 
Q 45.21875 56 50.046875 50.171875 
Q 54.890625 44.34375 54.890625 33.015625 
z
" id="DejaVuSans-110"/>
     <path d="M 37.109375 75.984375 
L 37.109375 68.5 
L 28.515625 68.5 
Q 23.6875 68.5 21.796875 66.546875 
Q 19.921875 64.59375 19.921875 59.515625 
L 19.921875 54.6875 
L 34.71875 54.6875 
L 34.71875 47.703125 
L 19.921875 47.703125 
L 19.921875 0 
L 10.890625 0 
L 10.890625 47.703125 
L 2.296875 47.703125 
L 2.296875 54.6875 
L 10.890625 54.6875 
L 10.890625 58.5 
Q 10.890625 67.625 15.140625 71.796875 
Q 19.390625 75.984375 28.609375 75.984375 
z
" id="DejaVuSans-102"/>
     <path d="M 34.1875 63.1875 
L 20.796875 26.90625 
L 47.609375 26.90625 
z
M 28.609375 72.90625 
L 39.796875 72.90625 
L 67.578125 0 
L 57.328125 0 
L 50.6875 18.703125 
L 17.828125 18.703125 
L 11.1875 0 
L 0.78125 0 
z
" id="DejaVuSans-65"/>
     <path d="M 41.109375 46.296875 
Q 39.59375 47.171875 37.8125 47.578125 
Q 36.03125 48 33.890625 48 
Q 26.265625 48 22.1875 43.046875 
Q 18.109375 38.09375 18.109375 28.8125 
L 18.109375 0 
L 9.078125 0 
L 9.078125 54.6875 
L 18.109375 54.6875 
L 18.109375 46.1875 
Q 20.953125 51.171875 25.484375 53.578125 
Q 30.03125 56 36.53125 56 
Q 37.453125 56 38.578125 55.875 
Q 39.703125 55.765625 41.0625 55.515625 
z
" id="DejaVuSans-114"/>
     <path d="M 45.40625 27.984375 
Q 45.40625 37.75 41.375 43.109375 
Q 37.359375 48.484375 30.078125 48.484375 
Q 22.859375 48.484375 18.828125 43.109375 
Q 14.796875 37.75 14.796875 27.984375 
Q 14.796875 18.265625 18.828125 12.890625 
Q 22.859375 7.515625 30.078125 7.515625 
Q 37.359375 7.515625 41.375 12.890625 
Q 45.40625 18.265625 45.40625 27.984375 
z
M 54.390625 6.78125 
Q 54.390625 -7.171875 48.1875 -13.984375 
Q 42 -20.796875 29.203125 -20.796875 
Q 24.46875 -20.796875 20.265625 -20.09375 
Q 16.0625 -19.390625 12.109375 -17.921875 
L 12.109375 -9.1875 
Q 16.0625 -11.328125 19.921875 -12.34375 
Q 23.78125 -13.375 27.78125 -13.375 
Q 36.625 -13.375 41.015625 -8.765625 
Q 45.40625 -4.15625 45.40625 5.171875 
L 45.40625 9.625 
Q 42.625 4.78125 38.28125 2.390625 
Q 33.9375 0 27.875 0 
Q 17.828125 0 11.671875 7.65625 
Q 5.515625 15.328125 5.515625 27.984375 
Q 5.515625 40.671875 11.671875 48.328125 
Q 17.828125 56 27.875 56 
Q 33.9375 56 38.28125 53.609375 
Q 42.625 51.21875 45.40625 46.390625 
L 45.40625 54.6875 
L 54.390625 54.6875 
z
" id="DejaVuSans-103"/>
    </defs>
    <g transform="translate(444.01375 80.4)scale(0.16 -0.16)">
     <use xlink:href="#DejaVuSans-69"/>
     <use x="63.183594" xlink:href="#DejaVuSans-118"/>
     <use x="122.363281" xlink:href="#DejaVuSans-111"/>
     <use x="183.544922" xlink:href="#DejaVuSans-108"/>
     <use x="211.328125" xlink:href="#DejaVuSans-117"/>
     <use x="274.707031" xlink:href="#DejaVuSans-116"/>
     <use x="313.916016" xlink:href="#DejaVuSans-105"/>
     <use x="341.699219" xlink:href="#DejaVuSans-111"/>
     <use x="402.880859" xlink:href="#DejaVuSans-110"/>
     <use x="466.259766" xlink:href="#DejaVuSans-32"/>
     <use x="498.046875" xlink:href="#DejaVuSans-111"/>
     <use x="559.228516" xlink:href="#DejaVuSans-102"/>
     <use x="594.433594" xlink:href="#DejaVuSans-32"/>
     <use x="626.220703" xlink:href="#DejaVuSans-65"/>
     <use x="694.550781" xlink:href="#DejaVuSans-118"/>
     <use x="753.730469" xlink:href="#DejaVuSans-101"/>
     <use x="815.253906" xlink:href="#DejaVuSans-114"/>
     <use x="856.367188" xlink:href="#DejaVuSans-97"/>
     <use x="917.646484" xlink:href="#DejaVuSans-103"/>
     <use x="981.123047" xlink:href="#DejaVuSans-101"/>
     <use x="1042.646484" xlink:href="#DejaVuSans-32"/>
     <use x="1074.433594" xlink:href="#DejaVuSans-85"/>
     <use x="1147.626953" xlink:href="#DejaVuSans-116"/>
     <use x="1186.835938" xlink:href="#DejaVuSans-105"/>
     <use x="1214.619141" xlink:href="#DejaVuSans-108"/>
     <use x="1242.402344" xlink:href="#DejaVuSans-105"/>
     <use x="1270.185547" xlink:href="#DejaVuSans-116"/>
     <use x="1309.394531" xlink:href="#DejaVuSans-121"/>
    </g>
   </g>
   <g id="legend_1">
    <g id="patch_7">
     <path d="M 891.975 635.8 
L 965 635.8 
Q 967 635.8 967 633.8 
L 967 561.409375 
Q 967 559.409375 965 559.409375 
L 891.975 559.409375 
Q 889.975 559.409375 889.975 561.409375 
L 889.975 633.8 
Q 889.975 635.8 891.975 635.8 
z
" style="fill:#ffffff;opacity:0.8;stroke:#cccccc;stroke-linejoin:miter;"/>
    </g>
    <g id="line2d_21">
     <path d="M 893.975 567.507812 
L 913.975 567.507812 
" style="fill:none;stroke:#ffffff;stroke-linecap:square;stroke-width:1.5;"/>
    </g>
    <g id="line2d_22">
     <defs>
      <path d="M -7.5 7.5 
L 7.5 7.5 
L 7.5 -7.5 
L -7.5 -7.5 
z
" id="m6d38321ebc" style="stroke:#ffffff;stroke-linejoin:miter;"/>
     </defs>
     <g>
      <use style="fill:#a50026;stroke:#ffffff;stroke-linejoin:miter;" x="903.975" xlink:href="#m6d38321ebc" y="567.507812"/>
     </g>
    </g>
    <g id="text_19">
     <!-- Profile 0 -->
     <defs>
      <path d="M 19.671875 64.796875 
L 19.671875 37.40625 
L 32.078125 37.40625 
Q 38.96875 37.40625 42.71875 40.96875 
Q 46.484375 44.53125 46.484375 51.125 
Q 46.484375 57.671875 42.71875 61.234375 
Q 38.96875 64.796875 32.078125 64.796875 
z
M 9.8125 72.90625 
L 32.078125 72.90625 
Q 44.34375 72.90625 50.609375 67.359375 
Q 56.890625 61.8125 56.890625 51.125 
Q 56.890625 40.328125 50.609375 34.8125 
Q 44.34375 29.296875 32.078125 29.296875 
L 19.671875 29.296875 
L 19.671875 0 
L 9.8125 0 
z
" id="DejaVuSans-80"/>
     </defs>
     <g transform="translate(921.975 571.007812)scale(0.1 -0.1)">
      <use xlink:href="#DejaVuSans-80"/>
      <use x="60.287109" xlink:href="#DejaVuSans-114"/>
      <use x="101.369141" xlink:href="#DejaVuSans-111"/>
      <use x="162.550781" xlink:href="#DejaVuSans-102"/>
      <use x="197.755859" xlink:href="#DejaVuSans-105"/>
      <use x="225.539062" xlink:href="#DejaVuSans-108"/>
      <use x="253.322266" xlink:href="#DejaVuSans-101"/>
      <use x="314.845703" xlink:href="#DejaVuSans-32"/>
      <use x="346.632812" xlink:href="#DejaVuSans-48"/>
     </g>
    </g>
    <g id="line2d_23">
     <path d="M 893.975 582.185938 
L 913.975 582.185938 
" style="fill:none;stroke:#ffffff;stroke-linecap:square;stroke-width:1.5;"/>
    </g>
    <g id="line2d_24">
     <defs>
      <path d="M -7.5 7.5 
L 7.5 7.5 
L 7.5 -7.5 
L -7.5 -7.5 
z
" id="macc61b780e" style="stroke:#ffffff;stroke-linejoin:miter;"/>
     </defs>
     <g>
      <use style="fill:#f88d52;stroke:#ffffff;stroke-linejoin:miter;" x="903.975" xlink:href="#macc61b780e" y="582.185938"/>
     </g>
    </g>
    <g id="text_20">
     <!-- Profile 1 -->
     <g transform="translate(921.975 585.685938)scale(0.1 -0.1)">
      <use xlink:href="#DejaVuSans-80"/>
      <use x="60.287109" xlink:href="#DejaVuSans-114"/>
      <use x="101.369141" xlink:href="#DejaVuSans-111"/>
      <use x="162.550781" xlink:href="#DejaVuSans-102"/>
      <use x="197.755859" xlink:href="#DejaVuSans-105"/>
      <use x="225.539062" xlink:href="#DejaVuSans-108"/>
      <use x="253.322266" xlink:href="#DejaVuSans-101"/>
      <use x="314.845703" xlink:href="#DejaVuSans-32"/>
      <use x="346.632812" xlink:href="#DejaVuSans-49"/>
     </g>
    </g>
    <g id="line2d_25">
     <path d="M 893.975 596.864063 
L 913.975 596.864063 
" style="fill:none;stroke:#ffffff;stroke-linecap:square;stroke-width:1.5;"/>
    </g>
    <g id="line2d_26">
     <defs>
      <path d="M -7.5 7.5 
L 7.5 7.5 
L 7.5 -7.5 
L -7.5 -7.5 
z
" id="me96532a219" style="stroke:#ffffff;stroke-linejoin:miter;"/>
     </defs>
     <g>
      <use style="fill:#ffffbf;stroke:#ffffff;stroke-linejoin:miter;" x="903.975" xlink:href="#me96532a219" y="596.864063"/>
     </g>
    </g>
    <g id="text_21">
     <!-- Profile 2 -->
     <g transform="translate(921.975 600.364063)scale(0.1 -0.1)">
      <use xlink:href="#DejaVuSans-80"/>
      <use x="60.287109" xlink:href="#DejaVuSans-114"/>
      <use x="101.369141" xlink:href="#DejaVuSans-111"/>
      <use x="162.550781" xlink:href="#DejaVuSans-102"/>
      <use x="197.755859" xlink:href="#DejaVuSans-105"/>
      <use x="225.539062" xlink:href="#DejaVuSans-108"/>
      <use x="253.322266" xlink:href="#DejaVuSans-101"/>
      <use x="314.845703" xlink:href="#DejaVuSans-32"/>
      <use x="346.632812" xlink:href="#DejaVuSans-50"/>
     </g>
    </g>
    <g id="line2d_27">
     <path d="M 893.975 611.542187 
L 913.975 611.542187 
" style="fill:none;stroke:#ffffff;stroke-linecap:square;stroke-width:1.5;"/>
    </g>
    <g id="line2d_28">
     <defs>
      <path d="M -7.5 7.5 
L 7.5 7.5 
L 7.5 -7.5 
L -7.5 -7.5 
z
" id="m86dc164881" style="stroke:#ffffff;stroke-linejoin:miter;"/>
     </defs>
     <g>
      <use style="fill:#86cb66;stroke:#ffffff;stroke-linejoin:miter;" x="903.975" xlink:href="#m86dc164881" y="611.542187"/>
     </g>
    </g>
    <g id="text_22">
     <!-- Profile 3 -->
     <g transform="translate(921.975 615.042187)scale(0.1 -0.1)">
      <use xlink:href="#DejaVuSans-80"/>
      <use x="60.287109" xlink:href="#DejaVuSans-114"/>
      <use x="101.369141" xlink:href="#DejaVuSans-111"/>
      <use x="162.550781" xlink:href="#DejaVuSans-102"/>
      <use x="197.755859" xlink:href="#DejaVuSans-105"/>
      <use x="225.539062" xlink:href="#DejaVuSans-108"/>
      <use x="253.322266" xlink:href="#DejaVuSans-101"/>
      <use x="314.845703" xlink:href="#DejaVuSans-32"/>
      <use x="346.632812" xlink:href="#DejaVuSans-51"/>
     </g>
    </g>
    <g id="line2d_29">
     <path d="M 893.975 626.220312 
L 913.975 626.220312 
" style="fill:none;stroke:#ffffff;stroke-linecap:square;stroke-width:1.5;"/>
    </g>
    <g id="line2d_30">
     <defs>
      <path d="M -7.5 7.5 
L 7.5 7.5 
L 7.5 -7.5 
L -7.5 -7.5 
z
" id="m232c126167" style="stroke:#ffffff;stroke-linejoin:miter;"/>
     </defs>
     <g>
      <use style="fill:#006837;stroke:#ffffff;stroke-linejoin:miter;" x="903.975" xlink:href="#m232c126167" y="626.220312"/>
     </g>
    </g>
    <g id="text_23">
     <!-- Profile 4 -->
     <g transform="translate(921.975 629.720312)scale(0.1 -0.1)">
      <use xlink:href="#DejaVuSans-80"/>
      <use x="60.287109" xlink:href="#DejaVuSans-114"/>
      <use x="101.369141" xlink:href="#DejaVuSans-111"/>
      <use x="162.550781" xlink:href="#DejaVuSans-102"/>
      <use x="197.755859" xlink:href="#DejaVuSans-105"/>
      <use x="225.539062" xlink:href="#DejaVuSans-108"/>
      <use x="253.322266" xlink:href="#DejaVuSans-101"/>
      <use x="314.845703" xlink:href="#DejaVuSans-32"/>
      <use x="346.632812" xlink:href="#DejaVuSans-52"/>
     </g>
    </g>
   </g>
  </g>
 </g>
 <defs>
  <clipPath id="p59e5c76443">
   <rect height="554.4" width="837" x="135" y="86.4"/>
  </clipPath>
 </defs>
</svg>
