<?xml version="1.0" encoding="utf-8" standalone="no"?>
<!DOCTYPE svg PUBLIC "-//W3C//DTD SVG 1.1//EN"
  "http://www.w3.org/Graphics/SVG/1.1/DTD/svg11.dtd">
<!-- Created with matplotlib (https://matplotlib.org/) -->
<svg height="720pt" version="1.1" viewBox="0 0 1080 720" width="1080pt" xmlns="http://www.w3.org/2000/svg" xmlns:xlink="http://www.w3.org/1999/xlink">
 <defs>
  <style type="text/css">
*{stroke-linecap:butt;stroke-linejoin:round;}
  </style>
 </defs>
 <g id="figure_1">
  <g id="patch_1">
   <path d="M 0 720 
L 1080 720 
L 1080 0 
L 0 0 
z
" style="fill:#ffffff;"/>
  </g>
  <g id="axes_1">
   <g id="patch_2">
    <path d="M 135 640.8 
L 972 640.8 
L 972 86.4 
L 135 86.4 
z
" style="fill:#ffffff;"/>
   </g>
   <g id="matplotlib.axis_1">
    <g id="xtick_1">
     <g id="line2d_1">
      <defs>
       <path d="M 0 0 
L 0 3.5 
" id="m73bc711e2b" style="stroke:#000000;stroke-width:0.8;"/>
      </defs>
      <g>
       <use style="stroke:#000000;stroke-width:0.8;" x="173.045455" xlink:href="#m73bc711e2b" y="640.8"/>
      </g>
     </g>
     <g id="text_1">
      <!-- 0 -->
      <defs>
       <path d="M 31.78125 66.40625 
Q 24.171875 66.40625 20.328125 58.90625 
Q 16.5 51.421875 16.5 36.375 
Q 16.5 21.390625 20.328125 13.890625 
Q 24.171875 6.390625 31.78125 6.390625 
Q 39.453125 6.390625 43.28125 13.890625 
Q 47.125 21.390625 47.125 36.375 
Q 47.125 51.421875 43.28125 58.90625 
Q 39.453125 66.40625 31.78125 66.40625 
z
M 31.78125 74.21875 
Q 44.046875 74.21875 50.515625 64.515625 
Q 56.984375 54.828125 56.984375 36.375 
Q 56.984375 17.96875 50.515625 8.265625 
Q 44.046875 -1.421875 31.78125 -1.421875 
Q 19.53125 -1.421875 13.0625 8.265625 
Q 6.59375 17.96875 6.59375 36.375 
Q 6.59375 54.828125 13.0625 64.515625 
Q 19.53125 74.21875 31.78125 74.21875 
z
" id="DejaVuSans-48"/>
      </defs>
      <g transform="translate(169.864205 655.398438)scale(0.1 -0.1)">
       <use xlink:href="#DejaVuSans-48"/>
      </g>
     </g>
    </g>
    <g id="xtick_2">
     <g id="line2d_2">
      <g>
       <use style="stroke:#000000;stroke-width:0.8;" x="282.371473" xlink:href="#m73bc711e2b" y="640.8"/>
      </g>
     </g>
     <g id="text_2">
      <!-- 25 -->
      <defs>
       <path d="M 19.1875 8.296875 
L 53.609375 8.296875 
L 53.609375 0 
L 7.328125 0 
L 7.328125 8.296875 
Q 12.9375 14.109375 22.625 23.890625 
Q 32.328125 33.6875 34.8125 36.53125 
Q 39.546875 41.84375 41.421875 45.53125 
Q 43.3125 49.21875 43.3125 52.78125 
Q 43.3125 58.59375 39.234375 62.25 
Q 35.15625 65.921875 28.609375 65.921875 
Q 23.96875 65.921875 18.8125 64.3125 
Q 13.671875 62.703125 7.8125 59.421875 
L 7.8125 69.390625 
Q 13.765625 71.78125 18.9375 73 
Q 24.125 74.21875 28.421875 74.21875 
Q 39.75 74.21875 46.484375 68.546875 
Q 53.21875 62.890625 53.21875 53.421875 
Q 53.21875 48.921875 51.53125 44.890625 
Q 49.859375 40.875 45.40625 35.40625 
Q 44.1875 33.984375 37.640625 27.21875 
Q 31.109375 20.453125 19.1875 8.296875 
z
" id="DejaVuSans-50"/>
       <path d="M 10.796875 72.90625 
L 49.515625 72.90625 
L 49.515625 64.59375 
L 19.828125 64.59375 
L 19.828125 46.734375 
Q 21.96875 47.46875 24.109375 47.828125 
Q 26.265625 48.1875 28.421875 48.1875 
Q 40.625 48.1875 47.75 41.5 
Q 54.890625 34.8125 54.890625 23.390625 
Q 54.890625 11.625 47.5625 5.09375 
Q 40.234375 -1.421875 26.90625 -1.421875 
Q 22.3125 -1.421875 17.546875 -0.640625 
Q 12.796875 0.140625 7.71875 1.703125 
L 7.71875 11.625 
Q 12.109375 9.234375 16.796875 8.0625 
Q 21.484375 6.890625 26.703125 6.890625 
Q 35.15625 6.890625 40.078125 11.328125 
Q 45.015625 15.765625 45.015625 23.390625 
Q 45.015625 31 40.078125 35.4375 
Q 35.15625 39.890625 26.703125 39.890625 
Q 22.75 39.890625 18.8125 39.015625 
Q 14.890625 38.140625 10.796875 36.28125 
z
" id="DejaVuSans-53"/>
      </defs>
      <g transform="translate(276.008973 655.398438)scale(0.1 -0.1)">
       <use xlink:href="#DejaVuSans-50"/>
       <use x="63.623047" xlink:href="#DejaVuSans-53"/>
      </g>
     </g>
    </g>
    <g id="xtick_3">
     <g id="line2d_3">
      <g>
       <use style="stroke:#000000;stroke-width:0.8;" x="391.697492" xlink:href="#m73bc711e2b" y="640.8"/>
      </g>
     </g>
     <g id="text_3">
      <!-- 50 -->
      <g transform="translate(385.334992 655.398438)scale(0.1 -0.1)">
       <use xlink:href="#DejaVuSans-53"/>
       <use x="63.623047" xlink:href="#DejaVuSans-48"/>
      </g>
     </g>
    </g>
    <g id="xtick_4">
     <g id="line2d_4">
      <g>
       <use style="stroke:#000000;stroke-width:0.8;" x="501.023511" xlink:href="#m73bc711e2b" y="640.8"/>
      </g>
     </g>
     <g id="text_4">
      <!-- 75 -->
      <defs>
       <path d="M 8.203125 72.90625 
L 55.078125 72.90625 
L 55.078125 68.703125 
L 28.609375 0 
L 18.3125 0 
L 43.21875 64.59375 
L 8.203125 64.59375 
z
" id="DejaVuSans-55"/>
      </defs>
      <g transform="translate(494.661011 655.398438)scale(0.1 -0.1)">
       <use xlink:href="#DejaVuSans-55"/>
       <use x="63.623047" xlink:href="#DejaVuSans-53"/>
      </g>
     </g>
    </g>
    <g id="xtick_5">
     <g id="line2d_5">
      <g>
       <use style="stroke:#000000;stroke-width:0.8;" x="610.34953" xlink:href="#m73bc711e2b" y="640.8"/>
      </g>
     </g>
     <g id="text_5">
      <!-- 100 -->
      <defs>
       <path d="M 12.40625 8.296875 
L 28.515625 8.296875 
L 28.515625 63.921875 
L 10.984375 60.40625 
L 10.984375 69.390625 
L 28.421875 72.90625 
L 38.28125 72.90625 
L 38.28125 8.296875 
L 54.390625 8.296875 
L 54.390625 0 
L 12.40625 0 
z
" id="DejaVuSans-49"/>
      </defs>
      <g transform="translate(600.80578 655.398438)scale(0.1 -0.1)">
       <use xlink:href="#DejaVuSans-49"/>
       <use x="63.623047" xlink:href="#DejaVuSans-48"/>
       <use x="127.246094" xlink:href="#DejaVuSans-48"/>
      </g>
     </g>
    </g>
    <g id="xtick_6">
     <g id="line2d_6">
      <g>
       <use style="stroke:#000000;stroke-width:0.8;" x="719.675549" xlink:href="#m73bc711e2b" y="640.8"/>
      </g>
     </g>
     <g id="text_6">
      <!-- 125 -->
      <g transform="translate(710.131799 655.398438)scale(0.1 -0.1)">
       <use xlink:href="#DejaVuSans-49"/>
       <use x="63.623047" xlink:href="#DejaVuSans-50"/>
       <use x="127.246094" xlink:href="#DejaVuSans-53"/>
      </g>
     </g>
    </g>
    <g id="xtick_7">
     <g id="line2d_7">
      <g>
       <use style="stroke:#000000;stroke-width:0.8;" x="829.001567" xlink:href="#m73bc711e2b" y="640.8"/>
      </g>
     </g>
     <g id="text_7">
      <!-- 150 -->
      <g transform="translate(819.457817 655.398438)scale(0.1 -0.1)">
       <use xlink:href="#DejaVuSans-49"/>
       <use x="63.623047" xlink:href="#DejaVuSans-53"/>
       <use x="127.246094" xlink:href="#DejaVuSans-48"/>
      </g>
     </g>
    </g>
    <g id="xtick_8">
     <g id="line2d_8">
      <g>
       <use style="stroke:#000000;stroke-width:0.8;" x="938.327586" xlink:href="#m73bc711e2b" y="640.8"/>
      </g>
     </g>
     <g id="text_8">
      <!-- 175 -->
      <g transform="translate(928.783836 655.398438)scale(0.1 -0.1)">
       <use xlink:href="#DejaVuSans-49"/>
       <use x="63.623047" xlink:href="#DejaVuSans-55"/>
       <use x="127.246094" xlink:href="#DejaVuSans-53"/>
      </g>
     </g>
    </g>
    <g id="text_9">
     <!-- Time -->
     <defs>
      <path d="M -0.296875 72.90625 
L 61.375 72.90625 
L 61.375 64.59375 
L 35.5 64.59375 
L 35.5 0 
L 25.59375 0 
L 25.59375 64.59375 
L -0.296875 64.59375 
z
" id="DejaVuSans-84"/>
      <path d="M 9.421875 54.6875 
L 18.40625 54.6875 
L 18.40625 0 
L 9.421875 0 
z
M 9.421875 75.984375 
L 18.40625 75.984375 
L 18.40625 64.59375 
L 9.421875 64.59375 
z
" id="DejaVuSans-105"/>
      <path d="M 52 44.1875 
Q 55.375 50.25 60.0625 53.125 
Q 64.75 56 71.09375 56 
Q 79.640625 56 84.28125 50.015625 
Q 88.921875 44.046875 88.921875 33.015625 
L 88.921875 0 
L 79.890625 0 
L 79.890625 32.71875 
Q 79.890625 40.578125 77.09375 44.375 
Q 74.3125 48.1875 68.609375 48.1875 
Q 61.625 48.1875 57.5625 43.546875 
Q 53.515625 38.921875 53.515625 30.90625 
L 53.515625 0 
L 44.484375 0 
L 44.484375 32.71875 
Q 44.484375 40.625 41.703125 44.40625 
Q 38.921875 48.1875 33.109375 48.1875 
Q 26.21875 48.1875 22.15625 43.53125 
Q 18.109375 38.875 18.109375 30.90625 
L 18.109375 0 
L 9.078125 0 
L 9.078125 54.6875 
L 18.109375 54.6875 
L 18.109375 46.1875 
Q 21.1875 51.21875 25.484375 53.609375 
Q 29.78125 56 35.6875 56 
Q 41.65625 56 45.828125 52.96875 
Q 50 49.953125 52 44.1875 
z
" id="DejaVuSans-109"/>
      <path d="M 56.203125 29.59375 
L 56.203125 25.203125 
L 14.890625 25.203125 
Q 15.484375 15.921875 20.484375 11.0625 
Q 25.484375 6.203125 34.421875 6.203125 
Q 39.59375 6.203125 44.453125 7.46875 
Q 49.3125 8.734375 54.109375 11.28125 
L 54.109375 2.78125 
Q 49.265625 0.734375 44.1875 -0.34375 
Q 39.109375 -1.421875 33.890625 -1.421875 
Q 20.796875 -1.421875 13.15625 6.1875 
Q 5.515625 13.8125 5.515625 26.8125 
Q 5.515625 40.234375 12.765625 48.109375 
Q 20.015625 56 32.328125 56 
Q 43.359375 56 49.78125 48.890625 
Q 56.203125 41.796875 56.203125 29.59375 
z
M 47.21875 32.234375 
Q 47.125 39.59375 43.09375 43.984375 
Q 39.0625 48.390625 32.421875 48.390625 
Q 24.90625 48.390625 20.390625 44.140625 
Q 15.875 39.890625 15.1875 32.171875 
z
" id="DejaVuSans-101"/>
     </defs>
     <g transform="translate(538.635 670.59625)scale(0.12 -0.12)">
      <use xlink:href="#DejaVuSans-84"/>
      <use x="61.037109" xlink:href="#DejaVuSans-105"/>
      <use x="88.820312" xlink:href="#DejaVuSans-109"/>
      <use x="186.232422" xlink:href="#DejaVuSans-101"/>
     </g>
    </g>
   </g>
   <g id="matplotlib.axis_2">
    <g id="ytick_1">
     <g id="line2d_9">
      <defs>
       <path d="M 0 0 
L -3.5 0 
" id="md3e9014301" style="stroke:#000000;stroke-width:0.8;"/>
      </defs>
      <g>
       <use style="stroke:#000000;stroke-width:0.8;" x="135" xlink:href="#md3e9014301" y="640.8"/>
      </g>
     </g>
     <g id="text_10">
      <!-- 0 -->
      <g transform="translate(121.6375 644.599219)scale(0.1 -0.1)">
       <use xlink:href="#DejaVuSans-48"/>
      </g>
     </g>
    </g>
    <g id="ytick_2">
     <g id="line2d_10">
      <g>
       <use style="stroke:#000000;stroke-width:0.8;" x="135" xlink:href="#md3e9014301" y="540"/>
      </g>
     </g>
     <g id="text_11">
      <!-- 100 -->
      <g transform="translate(108.9125 543.799219)scale(0.1 -0.1)">
       <use xlink:href="#DejaVuSans-49"/>
       <use x="63.623047" xlink:href="#DejaVuSans-48"/>
       <use x="127.246094" xlink:href="#DejaVuSans-48"/>
      </g>
     </g>
    </g>
    <g id="ytick_3">
     <g id="line2d_11">
      <g>
       <use style="stroke:#000000;stroke-width:0.8;" x="135" xlink:href="#md3e9014301" y="439.2"/>
      </g>
     </g>
     <g id="text_12">
      <!-- 200 -->
      <g transform="translate(108.9125 442.999219)scale(0.1 -0.1)">
       <use xlink:href="#DejaVuSans-50"/>
       <use x="63.623047" xlink:href="#DejaVuSans-48"/>
       <use x="127.246094" xlink:href="#DejaVuSans-48"/>
      </g>
     </g>
    </g>
    <g id="ytick_4">
     <g id="line2d_12">
      <g>
       <use style="stroke:#000000;stroke-width:0.8;" x="135" xlink:href="#md3e9014301" y="338.4"/>
      </g>
     </g>
     <g id="text_13">
      <!-- 300 -->
      <defs>
       <path d="M 40.578125 39.3125 
Q 47.65625 37.796875 51.625 33 
Q 55.609375 28.21875 55.609375 21.1875 
Q 55.609375 10.40625 48.1875 4.484375 
Q 40.765625 -1.421875 27.09375 -1.421875 
Q 22.515625 -1.421875 17.65625 -0.515625 
Q 12.796875 0.390625 7.625 2.203125 
L 7.625 11.71875 
Q 11.71875 9.328125 16.59375 8.109375 
Q 21.484375 6.890625 26.8125 6.890625 
Q 36.078125 6.890625 40.9375 10.546875 
Q 45.796875 14.203125 45.796875 21.1875 
Q 45.796875 27.640625 41.28125 31.265625 
Q 36.765625 34.90625 28.71875 34.90625 
L 20.21875 34.90625 
L 20.21875 43.015625 
L 29.109375 43.015625 
Q 36.375 43.015625 40.234375 45.921875 
Q 44.09375 48.828125 44.09375 54.296875 
Q 44.09375 59.90625 40.109375 62.90625 
Q 36.140625 65.921875 28.71875 65.921875 
Q 24.65625 65.921875 20.015625 65.03125 
Q 15.375 64.15625 9.8125 62.3125 
L 9.8125 71.09375 
Q 15.4375 72.65625 20.34375 73.4375 
Q 25.25 74.21875 29.59375 74.21875 
Q 40.828125 74.21875 47.359375 69.109375 
Q 53.90625 64.015625 53.90625 55.328125 
Q 53.90625 49.265625 50.4375 45.09375 
Q 46.96875 40.921875 40.578125 39.3125 
z
" id="DejaVuSans-51"/>
      </defs>
      <g transform="translate(108.9125 342.199219)scale(0.1 -0.1)">
       <use xlink:href="#DejaVuSans-51"/>
       <use x="63.623047" xlink:href="#DejaVuSans-48"/>
       <use x="127.246094" xlink:href="#DejaVuSans-48"/>
      </g>
     </g>
    </g>
    <g id="ytick_5">
     <g id="line2d_13">
      <g>
       <use style="stroke:#000000;stroke-width:0.8;" x="135" xlink:href="#md3e9014301" y="237.6"/>
      </g>
     </g>
     <g id="text_14">
      <!-- 400 -->
      <defs>
       <path d="M 37.796875 64.3125 
L 12.890625 25.390625 
L 37.796875 25.390625 
z
M 35.203125 72.90625 
L 47.609375 72.90625 
L 47.609375 25.390625 
L 58.015625 25.390625 
L 58.015625 17.1875 
L 47.609375 17.1875 
L 47.609375 0 
L 37.796875 0 
L 37.796875 17.1875 
L 4.890625 17.1875 
L 4.890625 26.703125 
z
" id="DejaVuSans-52"/>
      </defs>
      <g transform="translate(108.9125 241.399219)scale(0.1 -0.1)">
       <use xlink:href="#DejaVuSans-52"/>
       <use x="63.623047" xlink:href="#DejaVuSans-48"/>
       <use x="127.246094" xlink:href="#DejaVuSans-48"/>
      </g>
     </g>
    </g>
    <g id="ytick_6">
     <g id="line2d_14">
      <g>
       <use style="stroke:#000000;stroke-width:0.8;" x="135" xlink:href="#md3e9014301" y="136.8"/>
      </g>
     </g>
     <g id="text_15">
      <!-- 500 -->
      <g transform="translate(108.9125 140.599219)scale(0.1 -0.1)">
       <use xlink:href="#DejaVuSans-53"/>
       <use x="63.623047" xlink:href="#DejaVuSans-48"/>
       <use x="127.246094" xlink:href="#DejaVuSans-48"/>
      </g>
     </g>
    </g>
    <g id="text_16">
     <!-- # Individual Solar Installations -->
     <defs>
      <path d="M 51.125 44 
L 36.921875 44 
L 32.8125 27.6875 
L 47.125 27.6875 
z
M 43.796875 71.78125 
L 38.71875 51.515625 
L 52.984375 51.515625 
L 58.109375 71.78125 
L 65.921875 71.78125 
L 60.890625 51.515625 
L 76.125 51.515625 
L 76.125 44 
L 58.984375 44 
L 54.984375 27.6875 
L 70.515625 27.6875 
L 70.515625 20.21875 
L 53.078125 20.21875 
L 48 0 
L 40.1875 0 
L 45.21875 20.21875 
L 30.90625 20.21875 
L 25.875 0 
L 18.015625 0 
L 23.09375 20.21875 
L 7.71875 20.21875 
L 7.71875 27.6875 
L 24.90625 27.6875 
L 29 44 
L 13.28125 44 
L 13.28125 51.515625 
L 30.90625 51.515625 
L 35.890625 71.78125 
z
" id="DejaVuSans-35"/>
      <path id="DejaVuSans-32"/>
      <path d="M 9.8125 72.90625 
L 19.671875 72.90625 
L 19.671875 0 
L 9.8125 0 
z
" id="DejaVuSans-73"/>
      <path d="M 54.890625 33.015625 
L 54.890625 0 
L 45.90625 0 
L 45.90625 32.71875 
Q 45.90625 40.484375 42.875 44.328125 
Q 39.84375 48.1875 33.796875 48.1875 
Q 26.515625 48.1875 22.3125 43.546875 
Q 18.109375 38.921875 18.109375 30.90625 
L 18.109375 0 
L 9.078125 0 
L 9.078125 54.6875 
L 18.109375 54.6875 
L 18.109375 46.1875 
Q 21.34375 51.125 25.703125 53.5625 
Q 30.078125 56 35.796875 56 
Q 45.21875 56 50.046875 50.171875 
Q 54.890625 44.34375 54.890625 33.015625 
z
" id="DejaVuSans-110"/>
      <path d="M 45.40625 46.390625 
L 45.40625 75.984375 
L 54.390625 75.984375 
L 54.390625 0 
L 45.40625 0 
L 45.40625 8.203125 
Q 42.578125 3.328125 38.25 0.953125 
Q 33.9375 -1.421875 27.875 -1.421875 
Q 17.96875 -1.421875 11.734375 6.484375 
Q 5.515625 14.40625 5.515625 27.296875 
Q 5.515625 40.1875 11.734375 48.09375 
Q 17.96875 56 27.875 56 
Q 33.9375 56 38.25 53.625 
Q 42.578125 51.265625 45.40625 46.390625 
z
M 14.796875 27.296875 
Q 14.796875 17.390625 18.875 11.75 
Q 22.953125 6.109375 30.078125 6.109375 
Q 37.203125 6.109375 41.296875 11.75 
Q 45.40625 17.390625 45.40625 27.296875 
Q 45.40625 37.203125 41.296875 42.84375 
Q 37.203125 48.484375 30.078125 48.484375 
Q 22.953125 48.484375 18.875 42.84375 
Q 14.796875 37.203125 14.796875 27.296875 
z
" id="DejaVuSans-100"/>
      <path d="M 2.984375 54.6875 
L 12.5 54.6875 
L 29.59375 8.796875 
L 46.6875 54.6875 
L 56.203125 54.6875 
L 35.6875 0 
L 23.484375 0 
z
" id="DejaVuSans-118"/>
      <path d="M 8.5 21.578125 
L 8.5 54.6875 
L 17.484375 54.6875 
L 17.484375 21.921875 
Q 17.484375 14.15625 20.5 10.265625 
Q 23.53125 6.390625 29.59375 6.390625 
Q 36.859375 6.390625 41.078125 11.03125 
Q 45.3125 15.671875 45.3125 23.6875 
L 45.3125 54.6875 
L 54.296875 54.6875 
L 54.296875 0 
L 45.3125 0 
L 45.3125 8.40625 
Q 42.046875 3.421875 37.71875 1 
Q 33.40625 -1.421875 27.6875 -1.421875 
Q 18.265625 -1.421875 13.375 4.4375 
Q 8.5 10.296875 8.5 21.578125 
z
M 31.109375 56 
z
" id="DejaVuSans-117"/>
      <path d="M 34.28125 27.484375 
Q 23.390625 27.484375 19.1875 25 
Q 14.984375 22.515625 14.984375 16.5 
Q 14.984375 11.71875 18.140625 8.90625 
Q 21.296875 6.109375 26.703125 6.109375 
Q 34.1875 6.109375 38.703125 11.40625 
Q 43.21875 16.703125 43.21875 25.484375 
L 43.21875 27.484375 
z
M 52.203125 31.203125 
L 52.203125 0 
L 43.21875 0 
L 43.21875 8.296875 
Q 40.140625 3.328125 35.546875 0.953125 
Q 30.953125 -1.421875 24.3125 -1.421875 
Q 15.921875 -1.421875 10.953125 3.296875 
Q 6 8.015625 6 15.921875 
Q 6 25.140625 12.171875 29.828125 
Q 18.359375 34.515625 30.609375 34.515625 
L 43.21875 34.515625 
L 43.21875 35.40625 
Q 43.21875 41.609375 39.140625 45 
Q 35.0625 48.390625 27.6875 48.390625 
Q 23 48.390625 18.546875 47.265625 
Q 14.109375 46.140625 10.015625 43.890625 
L 10.015625 52.203125 
Q 14.9375 54.109375 19.578125 55.046875 
Q 24.21875 56 28.609375 56 
Q 40.484375 56 46.34375 49.84375 
Q 52.203125 43.703125 52.203125 31.203125 
z
" id="DejaVuSans-97"/>
      <path d="M 9.421875 75.984375 
L 18.40625 75.984375 
L 18.40625 0 
L 9.421875 0 
z
" id="DejaVuSans-108"/>
      <path d="M 53.515625 70.515625 
L 53.515625 60.890625 
Q 47.90625 63.578125 42.921875 64.890625 
Q 37.9375 66.21875 33.296875 66.21875 
Q 25.25 66.21875 20.875 63.09375 
Q 16.5 59.96875 16.5 54.203125 
Q 16.5 49.359375 19.40625 46.890625 
Q 22.3125 44.4375 30.421875 42.921875 
L 36.375 41.703125 
Q 47.40625 39.59375 52.65625 34.296875 
Q 57.90625 29 57.90625 20.125 
Q 57.90625 9.515625 50.796875 4.046875 
Q 43.703125 -1.421875 29.984375 -1.421875 
Q 24.8125 -1.421875 18.96875 -0.25 
Q 13.140625 0.921875 6.890625 3.21875 
L 6.890625 13.375 
Q 12.890625 10.015625 18.65625 8.296875 
Q 24.421875 6.59375 29.984375 6.59375 
Q 38.421875 6.59375 43.015625 9.90625 
Q 47.609375 13.234375 47.609375 19.390625 
Q 47.609375 24.75 44.3125 27.78125 
Q 41.015625 30.8125 33.5 32.328125 
L 27.484375 33.5 
Q 16.453125 35.6875 11.515625 40.375 
Q 6.59375 45.0625 6.59375 53.421875 
Q 6.59375 63.09375 13.40625 68.65625 
Q 20.21875 74.21875 32.171875 74.21875 
Q 37.3125 74.21875 42.625 73.28125 
Q 47.953125 72.359375 53.515625 70.515625 
z
" id="DejaVuSans-83"/>
      <path d="M 30.609375 48.390625 
Q 23.390625 48.390625 19.1875 42.75 
Q 14.984375 37.109375 14.984375 27.296875 
Q 14.984375 17.484375 19.15625 11.84375 
Q 23.34375 6.203125 30.609375 6.203125 
Q 37.796875 6.203125 41.984375 11.859375 
Q 46.1875 17.53125 46.1875 27.296875 
Q 46.1875 37.015625 41.984375 42.703125 
Q 37.796875 48.390625 30.609375 48.390625 
z
M 30.609375 56 
Q 42.328125 56 49.015625 48.375 
Q 55.71875 40.765625 55.71875 27.296875 
Q 55.71875 13.875 49.015625 6.21875 
Q 42.328125 -1.421875 30.609375 -1.421875 
Q 18.84375 -1.421875 12.171875 6.21875 
Q 5.515625 13.875 5.515625 27.296875 
Q 5.515625 40.765625 12.171875 48.375 
Q 18.84375 56 30.609375 56 
z
" id="DejaVuSans-111"/>
      <path d="M 41.109375 46.296875 
Q 39.59375 47.171875 37.8125 47.578125 
Q 36.03125 48 33.890625 48 
Q 26.265625 48 22.1875 43.046875 
Q 18.109375 38.09375 18.109375 28.8125 
L 18.109375 0 
L 9.078125 0 
L 9.078125 54.6875 
L 18.109375 54.6875 
L 18.109375 46.1875 
Q 20.953125 51.171875 25.484375 53.578125 
Q 30.03125 56 36.53125 56 
Q 37.453125 56 38.578125 55.875 
Q 39.703125 55.765625 41.0625 55.515625 
z
" id="DejaVuSans-114"/>
      <path d="M 44.28125 53.078125 
L 44.28125 44.578125 
Q 40.484375 46.53125 36.375 47.5 
Q 32.28125 48.484375 27.875 48.484375 
Q 21.1875 48.484375 17.84375 46.4375 
Q 14.5 44.390625 14.5 40.28125 
Q 14.5 37.15625 16.890625 35.375 
Q 19.28125 33.59375 26.515625 31.984375 
L 29.59375 31.296875 
Q 39.15625 29.25 43.1875 25.515625 
Q 47.21875 21.78125 47.21875 15.09375 
Q 47.21875 7.46875 41.1875 3.015625 
Q 35.15625 -1.421875 24.609375 -1.421875 
Q 20.21875 -1.421875 15.453125 -0.5625 
Q 10.6875 0.296875 5.421875 2 
L 5.421875 11.28125 
Q 10.40625 8.6875 15.234375 7.390625 
Q 20.0625 6.109375 24.8125 6.109375 
Q 31.15625 6.109375 34.5625 8.28125 
Q 37.984375 10.453125 37.984375 14.40625 
Q 37.984375 18.0625 35.515625 20.015625 
Q 33.0625 21.96875 24.703125 23.78125 
L 21.578125 24.515625 
Q 13.234375 26.265625 9.515625 29.90625 
Q 5.8125 33.546875 5.8125 39.890625 
Q 5.8125 47.609375 11.28125 51.796875 
Q 16.75 56 26.8125 56 
Q 31.78125 56 36.171875 55.265625 
Q 40.578125 54.546875 44.28125 53.078125 
z
" id="DejaVuSans-115"/>
      <path d="M 18.3125 70.21875 
L 18.3125 54.6875 
L 36.8125 54.6875 
L 36.8125 47.703125 
L 18.3125 47.703125 
L 18.3125 18.015625 
Q 18.3125 11.328125 20.140625 9.421875 
Q 21.96875 7.515625 27.59375 7.515625 
L 36.8125 7.515625 
L 36.8125 0 
L 27.59375 0 
Q 17.1875 0 13.234375 3.875 
Q 9.28125 7.765625 9.28125 18.015625 
L 9.28125 47.703125 
L 2.6875 47.703125 
L 2.6875 54.6875 
L 9.28125 54.6875 
L 9.28125 70.21875 
z
" id="DejaVuSans-116"/>
     </defs>
     <g transform="translate(102.416875 455.217187)rotate(-90)scale(0.12 -0.12)">
      <use xlink:href="#DejaVuSans-35"/>
      <use x="83.789062" xlink:href="#DejaVuSans-32"/>
      <use x="115.576172" xlink:href="#DejaVuSans-73"/>
      <use x="145.068359" xlink:href="#DejaVuSans-110"/>
      <use x="208.447266" xlink:href="#DejaVuSans-100"/>
      <use x="271.923828" xlink:href="#DejaVuSans-105"/>
      <use x="299.707031" xlink:href="#DejaVuSans-118"/>
      <use x="358.886719" xlink:href="#DejaVuSans-105"/>
      <use x="386.669922" xlink:href="#DejaVuSans-100"/>
      <use x="450.146484" xlink:href="#DejaVuSans-117"/>
      <use x="513.525391" xlink:href="#DejaVuSans-97"/>
      <use x="574.804688" xlink:href="#DejaVuSans-108"/>
      <use x="602.587891" xlink:href="#DejaVuSans-32"/>
      <use x="634.375" xlink:href="#DejaVuSans-83"/>
      <use x="697.851562" xlink:href="#DejaVuSans-111"/>
      <use x="759.033203" xlink:href="#DejaVuSans-108"/>
      <use x="786.816406" xlink:href="#DejaVuSans-97"/>
      <use x="848.095703" xlink:href="#DejaVuSans-114"/>
      <use x="889.208984" xlink:href="#DejaVuSans-32"/>
      <use x="920.996094" xlink:href="#DejaVuSans-73"/>
      <use x="950.488281" xlink:href="#DejaVuSans-110"/>
      <use x="1013.867188" xlink:href="#DejaVuSans-115"/>
      <use x="1065.966797" xlink:href="#DejaVuSans-116"/>
      <use x="1105.175781" xlink:href="#DejaVuSans-97"/>
      <use x="1166.455078" xlink:href="#DejaVuSans-108"/>
      <use x="1194.238281" xlink:href="#DejaVuSans-108"/>
      <use x="1222.021484" xlink:href="#DejaVuSans-97"/>
      <use x="1283.300781" xlink:href="#DejaVuSans-116"/>
      <use x="1322.509766" xlink:href="#DejaVuSans-105"/>
      <use x="1350.292969" xlink:href="#DejaVuSans-111"/>
      <use x="1411.474609" xlink:href="#DejaVuSans-110"/>
      <use x="1474.853516" xlink:href="#DejaVuSans-115"/>
     </g>
    </g>
   </g>
   <g id="line2d_15">
    <path clip-path="url(#p2d2b6b8f1a)" d="M 173.045455 640.8 
L 177.418495 640.8 
L 177.418495 602.496 
L 181.791536 602.496 
L 181.791536 598.34304 
L 186.164577 598.34304 
L 186.164577 596.87136 
L 190.537618 596.87136 
L 190.537618 596.36736 
L 194.910658 596.36736 
L 194.910658 596.06496 
L 199.283699 596.06496 
L 199.283699 595.90368 
L 208.029781 595.82304 
L 208.029781 595.76256 
L 225.521944 595.66176 
L 225.521944 595.58112 
L 229.894984 595.58112 
L 229.894984 595.15776 
L 234.268025 595.15776 
L 234.268025 588.22272 
L 238.641066 588.22272 
L 238.641066 189.65952 
L 243.014107 189.65952 
L 243.014107 96.80256 
L 247.387147 96.80256 
L 247.387147 95.75424 
L 269.252351 95.65344 
L 269.252351 95.61312 
L 304.236677 95.55264 
L 304.236677 94.54464 
L 321.72884 94.52448 
L 321.72884 93.77856 
L 347.967085 93.77856 
L 347.967085 93.3552 
L 933.954545 93.27456 
L 933.954545 93.27456 
" style="fill:none;stroke:#0000ff;stroke-linecap:square;stroke-opacity:0.5;stroke-width:1.5;"/>
   </g>
   <g id="line2d_16">
    <path clip-path="url(#p2d2b6b8f1a)" d="M 173.045455 640.8 
L 177.418495 640.8 
L 177.418495 492.54336 
L 181.791536 492.54336 
L 181.791536 475.04448 
L 186.164577 475.04448 
L 186.164577 462.80736 
L 190.537618 462.80736 
L 190.537618 453.15072 
L 194.910658 453.15072 
L 194.910658 445.20768 
L 199.283699 445.20768 
L 199.283699 439.32096 
L 203.65674 439.32096 
L 203.65674 434.07936 
L 208.029781 434.07936 
L 208.029781 429.56352 
L 212.402821 429.56352 
L 212.402821 425.53152 
L 216.775862 425.53152 
L 216.775862 421.80192 
L 221.148903 421.80192 
L 221.148903 418.49568 
L 225.521944 418.49568 
L 225.521944 408.77856 
L 229.894984 408.77856 
L 229.894984 390.57408 
L 234.268025 390.57408 
L 234.268025 360.55584 
L 238.641066 360.55584 
L 238.641066 323.15904 
L 243.014107 323.15904 
L 243.014107 280.09728 
L 247.387147 280.09728 
L 247.387147 246.00672 
L 251.760188 246.00672 
L 251.760188 235.6848 
L 256.133229 235.6848 
L 256.133229 216.77472 
L 260.50627 216.77472 
L 260.50627 200.58624 
L 264.87931 200.58624 
L 264.87931 195.98976 
L 269.252351 195.98976 
L 269.252351 186.55488 
L 273.625392 186.55488 
L 273.625392 183.59136 
L 277.998433 183.59136 
L 277.998433 176.9184 
L 282.371473 176.9184 
L 282.371473 175.08384 
L 286.744514 175.08384 
L 286.744514 173.47104 
L 291.117555 173.47104 
L 291.117555 167.98752 
L 295.490596 167.98752 
L 295.490596 166.4352 
L 299.863636 166.4352 
L 299.863636 165.40704 
L 304.236677 165.40704 
L 304.236677 158.20992 
L 308.609718 158.20992 
L 308.609718 156.71808 
L 312.982759 156.71808 
L 312.982759 155.7504 
L 317.355799 155.7504 
L 317.355799 155.08512 
L 321.72884 155.08512 
L 321.72884 146.83968 
L 326.101881 146.83968 
L 326.101881 145.75104 
L 330.474922 145.75104 
L 330.474922 145.12608 
L 334.847962 145.12608 
L 334.847962 144.54144 
L 339.221003 144.54144 
L 339.221003 144.19872 
L 343.594044 144.19872 
L 343.594044 144.03744 
L 347.967085 144.03744 
L 347.967085 136.13472 
L 352.340125 136.13472 
L 352.340125 135.67104 
L 356.713166 135.67104 
L 356.713166 135.288 
L 361.086207 135.288 
L 361.086207 134.9856 
L 365.459248 134.9856 
L 365.459248 134.80416 
L 369.832288 134.80416 
L 369.832288 134.60256 
L 374.205329 134.60256 
L 374.205329 134.4816 
L 382.951411 134.3808 
L 382.951411 134.30016 
L 391.697492 134.23968 
L 391.697492 134.13888 
L 400.443574 134.0784 
L 400.443574 133.99776 
L 409.189655 133.95744 
L 409.189655 129.46176 
L 413.562696 129.46176 
L 413.562696 129.11904 
L 417.935737 129.11904 
L 417.935737 128.87712 
L 422.308777 128.87712 
L 422.308777 128.71584 
L 435.4279 128.61504 
L 435.4279 128.55456 
L 444.173981 128.5344 
L 444.173981 128.41344 
L 452.920063 128.35296 
L 452.920063 128.29248 
L 461.666144 128.27232 
L 461.666144 128.17152 
L 487.904389 128.07072 
L 487.904389 128.05056 
L 514.142633 127.94976 
L 514.142633 127.9296 
L 579.738245 127.84896 
L 579.738245 127.78848 
L 933.954545 127.728 
L 933.954545 127.728 
" style="fill:none;stroke:#800080;stroke-linecap:square;stroke-opacity:0.5;stroke-width:1.5;"/>
   </g>
   <g id="line2d_17">
    <path clip-path="url(#p2d2b6b8f1a)" d="M 173.045455 640.8 
L 177.418495 640.8 
L 177.418495 452.38464 
L 181.791536 452.38464 
L 181.791536 439.17984 
L 186.164577 439.17984 
L 186.164577 429.58368 
L 190.537618 429.58368 
L 190.537618 422.3664 
L 194.910658 422.3664 
L 194.910658 416.8224 
L 199.283699 416.8224 
L 199.283699 411.96384 
L 203.65674 411.96384 
L 203.65674 407.77056 
L 208.029781 407.77056 
L 208.029781 404.60544 
L 212.402821 404.60544 
L 212.402821 401.62176 
L 216.775862 401.62176 
L 216.775862 398.71872 
L 221.148903 398.71872 
L 221.148903 395.83584 
L 225.521944 395.83584 
L 225.521944 388.9008 
L 229.894984 388.9008 
L 229.894984 378.72 
L 234.268025 378.72 
L 234.268025 368.3376 
L 238.641066 368.3376 
L 238.641066 358.33824 
L 243.014107 358.33824 
L 243.014107 347.79456 
L 247.387147 347.79456 
L 247.387147 336.10176 
L 251.760188 336.10176 
L 251.760188 333.38016 
L 256.133229 333.38016 
L 256.133229 324.50976 
L 260.50627 324.50976 
L 260.50627 313.58304 
L 264.87931 313.58304 
L 264.87931 310.74048 
L 269.252351 310.74048 
L 269.252351 300.13632 
L 273.625392 300.13632 
L 273.625392 297.95904 
L 277.998433 297.95904 
L 277.998433 285.984 
L 282.371473 285.984 
L 282.371473 283.3632 
L 286.744514 283.3632 
L 286.744514 281.71008 
L 291.117555 281.71008 
L 291.117555 270.70272 
L 295.490596 270.70272 
L 295.490596 268.66656 
L 299.863636 268.66656 
L 299.863636 267.31584 
L 304.236677 267.31584 
L 304.236677 255.82464 
L 308.609718 255.82464 
L 308.609718 253.46592 
L 312.982759 253.46592 
L 312.982759 251.95392 
L 317.355799 251.95392 
L 317.355799 250.86528 
L 321.72884 250.86528 
L 321.72884 238.87008 
L 326.101881 238.87008 
L 326.101881 236.85408 
L 330.474922 236.85408 
L 330.474922 235.584 
L 334.847962 235.584 
L 334.847962 234.65664 
L 339.221003 234.65664 
L 339.221003 233.7696 
L 343.594044 233.7696 
L 343.594044 233.30592 
L 347.967085 233.30592 
L 347.967085 223.56864 
L 352.340125 223.56864 
L 352.340125 222.39936 
L 356.713166 222.39936 
L 356.713166 221.89536 
L 361.086207 221.89536 
L 361.086207 221.39136 
L 365.459248 221.39136 
L 365.459248 221.1696 
L 369.832288 221.1696 
L 369.832288 220.968 
L 378.57837 220.8672 
L 378.57837 220.6656 
L 382.951411 220.6656 
L 382.951411 220.50432 
L 391.697492 220.40352 
L 391.697492 220.30272 
L 396.070533 220.30272 
L 396.070533 220.18176 
L 404.816614 220.14144 
L 404.816614 220.0608 
L 409.189655 220.0608 
L 409.189655 216.5328 
L 413.562696 216.5328 
L 413.562696 216.27072 
L 417.935737 216.27072 
L 417.935737 216.1296 
L 422.308777 216.1296 
L 422.308777 215.94816 
L 426.681818 215.94816 
L 426.681818 215.66592 
L 435.4279 215.58528 
L 435.4279 215.46432 
L 444.173981 215.36352 
L 444.173981 215.3232 
L 466.039185 215.2224 
L 466.039185 215.20224 
L 496.65047 215.10144 
L 496.65047 215.06112 
L 579.738245 214.96032 
L 579.738245 214.94016 
L 815.882445 214.83936 
L 815.882445 214.79904 
L 933.954545 214.77888 
L 933.954545 214.77888 
" style="fill:none;stroke:#ff0000;stroke-linecap:square;stroke-opacity:0.5;stroke-width:1.5;"/>
   </g>
   <g id="line2d_18">
    <path clip-path="url(#p2d2b6b8f1a)" d="M 173.045455 640.8 
L 177.418495 640.8 
L 177.418495 431.96256 
L 181.791536 431.96256 
L 181.791536 423.45504 
L 186.164577 423.45504 
L 186.164577 417.24576 
L 190.537618 417.24576 
L 190.537618 412.02432 
L 194.910658 412.02432 
L 194.910658 407.5488 
L 199.283699 407.5488 
L 199.283699 403.79904 
L 203.65674 403.79904 
L 203.65674 400.41216 
L 208.029781 400.41216 
L 208.029781 397.79136 
L 212.402821 397.79136 
L 212.402821 395.21088 
L 216.775862 395.21088 
L 216.775862 392.85216 
L 221.148903 392.85216 
L 221.148903 391.19904 
L 225.521944 391.19904 
L 225.521944 385.13088 
L 229.894984 385.13088 
L 229.894984 377.24832 
L 234.268025 377.24832 
L 234.268025 369.30528 
L 238.641066 369.30528 
L 238.641066 360.29376 
L 243.014107 360.29376 
L 243.014107 351.58464 
L 247.387147 351.58464 
L 247.387147 341.54496 
L 251.760188 341.54496 
L 251.760188 339.58944 
L 256.133229 339.58944 
L 256.133229 331.50528 
L 260.50627 331.50528 
L 260.50627 322.5744 
L 264.87931 322.5744 
L 264.87931 320.61888 
L 269.252351 320.61888 
L 269.252351 311.46624 
L 273.625392 311.46624 
L 273.625392 309.69216 
L 277.998433 309.69216 
L 277.998433 298.80576 
L 282.371473 298.80576 
L 282.371473 296.72928 
L 286.744514 296.72928 
L 286.744514 295.6608 
L 291.117555 295.6608 
L 291.117555 283.98816 
L 295.490596 283.98816 
L 295.490596 282.03264 
L 299.863636 282.03264 
L 299.863636 280.78272 
L 304.236677 280.78272 
L 304.236677 268.06176 
L 308.609718 268.06176 
L 308.609718 266.04576 
L 312.982759 266.04576 
L 312.982759 264.9168 
L 317.355799 264.9168 
L 317.355799 263.94912 
L 321.72884 263.94912 
L 321.72884 252.07488 
L 326.101881 252.07488 
L 326.101881 250.64352 
L 330.474922 250.64352 
L 330.474922 249.87744 
L 334.847962 249.87744 
L 334.847962 249.13152 
L 339.221003 249.13152 
L 339.221003 248.40576 
L 343.594044 248.40576 
L 343.594044 248.00256 
L 347.967085 248.00256 
L 347.967085 236.24928 
L 352.340125 236.24928 
L 352.340125 235.42272 
L 356.713166 235.42272 
L 356.713166 234.7776 
L 361.086207 234.7776 
L 361.086207 234.53568 
L 365.459248 234.53568 
L 365.459248 234.1728 
L 369.832288 234.1728 
L 369.832288 233.83008 
L 374.205329 233.83008 
L 374.205329 233.70912 
L 378.57837 233.70912 
L 378.57837 233.4672 
L 382.951411 233.4672 
L 382.951411 233.30592 
L 387.324451 233.30592 
L 387.324451 233.08416 
L 391.697492 233.08416 
L 391.697492 232.9632 
L 396.070533 232.9632 
L 396.070533 232.74144 
L 404.816614 232.64064 
L 404.816614 232.60032 
L 409.189655 232.60032 
L 409.189655 226.87488 
L 413.562696 226.87488 
L 413.562696 226.69344 
L 417.935737 226.69344 
L 417.935737 226.55232 
L 426.681818 226.53216 
L 426.681818 226.43136 
L 444.173981 226.33056 
L 444.173981 226.3104 
L 487.904389 226.2096 
L 487.904389 226.18944 
L 570.992163 226.08864 
L 570.992163 226.06848 
L 654.079937 225.96768 
L 654.079937 225.94752 
L 933.954545 225.84672 
L 933.954545 225.82656 
L 933.954545 225.82656 
" style="fill:none;stroke:#808000;stroke-linecap:square;stroke-opacity:0.5;stroke-width:1.5;"/>
   </g>
   <g id="line2d_19">
    <path clip-path="url(#p2d2b6b8f1a)" d="M 173.045455 640.8 
L 177.418495 640.8 
L 177.418495 420.63264 
L 181.791536 420.63264 
L 181.791536 415.02816 
L 186.164577 415.02816 
L 186.164577 410.02848 
L 190.537618 410.02848 
L 190.537618 406.6416 
L 194.910658 406.6416 
L 194.910658 403.53696 
L 199.283699 403.53696 
L 199.283699 400.9968 
L 203.65674 400.9968 
L 203.65674 398.81952 
L 208.029781 398.81952 
L 208.029781 396.62208 
L 212.402821 396.62208 
L 212.402821 394.6464 
L 216.775862 394.6464 
L 216.775862 393.31584 
L 221.148903 393.31584 
L 221.148903 392.06592 
L 225.521944 392.06592 
L 225.521944 387.24768 
L 229.894984 387.24768 
L 229.894984 379.66752 
L 234.268025 379.66752 
L 234.268025 371.98656 
L 238.641066 371.98656 
L 238.641066 363.37824 
L 243.014107 363.37824 
L 243.014107 354.79008 
L 247.387147 354.79008 
L 247.387147 346.98816 
L 251.760188 346.98816 
L 251.760188 345.53664 
L 256.133229 345.53664 
L 256.133229 339.28704 
L 260.50627 339.28704 
L 260.50627 330.79968 
L 264.87931 330.79968 
L 264.87931 329.59008 
L 269.252351 329.59008 
L 269.252351 321.264 
L 273.625392 321.264 
L 273.625392 320.27616 
L 277.998433 320.27616 
L 277.998433 312.31296 
L 282.371473 312.31296 
L 282.371473 311.184 
L 286.744514 311.184 
L 286.744514 310.45824 
L 291.117555 310.45824 
L 291.117555 299.97504 
L 295.490596 299.97504 
L 295.490596 298.50336 
L 299.863636 298.50336 
L 299.863636 297.4752 
L 304.236677 297.4752 
L 304.236677 283.50432 
L 308.609718 283.50432 
L 308.609718 281.22624 
L 312.982759 281.22624 
L 312.982759 279.59328 
L 317.355799 279.59328 
L 317.355799 278.70624 
L 321.72884 278.70624 
L 321.72884 262.96128 
L 326.101881 262.96128 
L 326.101881 261.73152 
L 330.474922 261.73152 
L 330.474922 260.6832 
L 334.847962 260.6832 
L 334.847962 259.776 
L 339.221003 259.776 
L 339.221003 259.23168 
L 343.594044 259.23168 
L 343.594044 258.8688 
L 347.967085 258.8688 
L 347.967085 248.34528 
L 352.340125 248.34528 
L 352.340125 247.70016 
L 356.713166 247.70016 
L 356.713166 247.33728 
L 361.086207 247.33728 
L 361.086207 246.91392 
L 365.459248 246.91392 
L 365.459248 246.65184 
L 369.832288 246.65184 
L 369.832288 246.43008 
L 374.205329 246.43008 
L 374.205329 246.168 
L 378.57837 246.168 
L 378.57837 245.94624 
L 382.951411 245.94624 
L 382.951411 245.7648 
L 391.697492 245.664 
L 391.697492 245.52288 
L 400.443574 245.4624 
L 400.443574 245.34144 
L 409.189655 245.24064 
L 409.189655 240.9264 
L 426.681818 240.8256 
L 426.681818 240.80544 
L 470.412226 240.70464 
L 470.412226 240.66432 
L 557.873041 240.56352 
L 557.873041 240.54336 
L 933.954545 240.48288 
L 933.954545 240.48288 
" style="fill:none;stroke:#00ff00;stroke-linecap:square;stroke-opacity:0.5;stroke-width:1.5;"/>
   </g>
   <g id="patch_3">
    <path d="M 135 640.8 
L 135 86.4 
" style="fill:none;stroke:#000000;stroke-linecap:square;stroke-linejoin:miter;stroke-width:0.8;"/>
   </g>
   <g id="patch_4">
    <path d="M 972 640.8 
L 972 86.4 
" style="fill:none;stroke:#000000;stroke-linecap:square;stroke-linejoin:miter;stroke-width:0.8;"/>
   </g>
   <g id="patch_5">
    <path d="M 135 640.8 
L 972 640.8 
" style="fill:none;stroke:#000000;stroke-linecap:square;stroke-linejoin:miter;stroke-width:0.8;"/>
   </g>
   <g id="patch_6">
    <path d="M 135 86.4 
L 972 86.4 
" style="fill:none;stroke:#000000;stroke-linecap:square;stroke-linejoin:miter;stroke-width:0.8;"/>
   </g>
   <g id="text_17">
    <!-- Evolution of Average # of Nodes with Individual PV -->
    <defs>
     <path d="M 9.8125 72.90625 
L 55.90625 72.90625 
L 55.90625 64.59375 
L 19.671875 64.59375 
L 19.671875 43.015625 
L 54.390625 43.015625 
L 54.390625 34.71875 
L 19.671875 34.71875 
L 19.671875 8.296875 
L 56.78125 8.296875 
L 56.78125 0 
L 9.8125 0 
z
" id="DejaVuSans-69"/>
     <path d="M 37.109375 75.984375 
L 37.109375 68.5 
L 28.515625 68.5 
Q 23.6875 68.5 21.796875 66.546875 
Q 19.921875 64.59375 19.921875 59.515625 
L 19.921875 54.6875 
L 34.71875 54.6875 
L 34.71875 47.703125 
L 19.921875 47.703125 
L 19.921875 0 
L 10.890625 0 
L 10.890625 47.703125 
L 2.296875 47.703125 
L 2.296875 54.6875 
L 10.890625 54.6875 
L 10.890625 58.5 
Q 10.890625 67.625 15.140625 71.796875 
Q 19.390625 75.984375 28.609375 75.984375 
z
" id="DejaVuSans-102"/>
     <path d="M 34.1875 63.1875 
L 20.796875 26.90625 
L 47.609375 26.90625 
z
M 28.609375 72.90625 
L 39.796875 72.90625 
L 67.578125 0 
L 57.328125 0 
L 50.6875 18.703125 
L 17.828125 18.703125 
L 11.1875 0 
L 0.78125 0 
z
" id="DejaVuSans-65"/>
     <path d="M 45.40625 27.984375 
Q 45.40625 37.75 41.375 43.109375 
Q 37.359375 48.484375 30.078125 48.484375 
Q 22.859375 48.484375 18.828125 43.109375 
Q 14.796875 37.75 14.796875 27.984375 
Q 14.796875 18.265625 18.828125 12.890625 
Q 22.859375 7.515625 30.078125 7.515625 
Q 37.359375 7.515625 41.375 12.890625 
Q 45.40625 18.265625 45.40625 27.984375 
z
M 54.390625 6.78125 
Q 54.390625 -7.171875 48.1875 -13.984375 
Q 42 -20.796875 29.203125 -20.796875 
Q 24.46875 -20.796875 20.265625 -20.09375 
Q 16.0625 -19.390625 12.109375 -17.921875 
L 12.109375 -9.1875 
Q 16.0625 -11.328125 19.921875 -12.34375 
Q 23.78125 -13.375 27.78125 -13.375 
Q 36.625 -13.375 41.015625 -8.765625 
Q 45.40625 -4.15625 45.40625 5.171875 
L 45.40625 9.625 
Q 42.625 4.78125 38.28125 2.390625 
Q 33.9375 0 27.875 0 
Q 17.828125 0 11.671875 7.65625 
Q 5.515625 15.328125 5.515625 27.984375 
Q 5.515625 40.671875 11.671875 48.328125 
Q 17.828125 56 27.875 56 
Q 33.9375 56 38.28125 53.609375 
Q 42.625 51.21875 45.40625 46.390625 
L 45.40625 54.6875 
L 54.390625 54.6875 
z
" id="DejaVuSans-103"/>
     <path d="M 9.8125 72.90625 
L 23.09375 72.90625 
L 55.421875 11.921875 
L 55.421875 72.90625 
L 64.984375 72.90625 
L 64.984375 0 
L 51.703125 0 
L 19.390625 60.984375 
L 19.390625 0 
L 9.8125 0 
z
" id="DejaVuSans-78"/>
     <path d="M 4.203125 54.6875 
L 13.1875 54.6875 
L 24.421875 12.015625 
L 35.59375 54.6875 
L 46.1875 54.6875 
L 57.421875 12.015625 
L 68.609375 54.6875 
L 77.59375 54.6875 
L 63.28125 0 
L 52.6875 0 
L 40.921875 44.828125 
L 29.109375 0 
L 18.5 0 
z
" id="DejaVuSans-119"/>
     <path d="M 54.890625 33.015625 
L 54.890625 0 
L 45.90625 0 
L 45.90625 32.71875 
Q 45.90625 40.484375 42.875 44.328125 
Q 39.84375 48.1875 33.796875 48.1875 
Q 26.515625 48.1875 22.3125 43.546875 
Q 18.109375 38.921875 18.109375 30.90625 
L 18.109375 0 
L 9.078125 0 
L 9.078125 75.984375 
L 18.109375 75.984375 
L 18.109375 46.1875 
Q 21.34375 51.125 25.703125 53.5625 
Q 30.078125 56 35.796875 56 
Q 45.21875 56 50.046875 50.171875 
Q 54.890625 44.34375 54.890625 33.015625 
z
" id="DejaVuSans-104"/>
     <path d="M 19.671875 64.796875 
L 19.671875 37.40625 
L 32.078125 37.40625 
Q 38.96875 37.40625 42.71875 40.96875 
Q 46.484375 44.53125 46.484375 51.125 
Q 46.484375 57.671875 42.71875 61.234375 
Q 38.96875 64.796875 32.078125 64.796875 
z
M 9.8125 72.90625 
L 32.078125 72.90625 
Q 44.34375 72.90625 50.609375 67.359375 
Q 56.890625 61.8125 56.890625 51.125 
Q 56.890625 40.328125 50.609375 34.8125 
Q 44.34375 29.296875 32.078125 29.296875 
L 19.671875 29.296875 
L 19.671875 0 
L 9.8125 0 
z
" id="DejaVuSans-80"/>
     <path d="M 28.609375 0 
L 0.78125 72.90625 
L 11.078125 72.90625 
L 34.1875 11.53125 
L 57.328125 72.90625 
L 67.578125 72.90625 
L 39.796875 0 
z
" id="DejaVuSans-86"/>
    </defs>
    <g transform="translate(349.1375 80.4)scale(0.16 -0.16)">
     <use xlink:href="#DejaVuSans-69"/>
     <use x="63.183594" xlink:href="#DejaVuSans-118"/>
     <use x="122.363281" xlink:href="#DejaVuSans-111"/>
     <use x="183.544922" xlink:href="#DejaVuSans-108"/>
     <use x="211.328125" xlink:href="#DejaVuSans-117"/>
     <use x="274.707031" xlink:href="#DejaVuSans-116"/>
     <use x="313.916016" xlink:href="#DejaVuSans-105"/>
     <use x="341.699219" xlink:href="#DejaVuSans-111"/>
     <use x="402.880859" xlink:href="#DejaVuSans-110"/>
     <use x="466.259766" xlink:href="#DejaVuSans-32"/>
     <use x="498.046875" xlink:href="#DejaVuSans-111"/>
     <use x="559.228516" xlink:href="#DejaVuSans-102"/>
     <use x="594.433594" xlink:href="#DejaVuSans-32"/>
     <use x="626.220703" xlink:href="#DejaVuSans-65"/>
     <use x="694.550781" xlink:href="#DejaVuSans-118"/>
     <use x="753.730469" xlink:href="#DejaVuSans-101"/>
     <use x="815.253906" xlink:href="#DejaVuSans-114"/>
     <use x="856.367188" xlink:href="#DejaVuSans-97"/>
     <use x="917.646484" xlink:href="#DejaVuSans-103"/>
     <use x="981.123047" xlink:href="#DejaVuSans-101"/>
     <use x="1042.646484" xlink:href="#DejaVuSans-32"/>
     <use x="1074.433594" xlink:href="#DejaVuSans-35"/>
     <use x="1158.222656" xlink:href="#DejaVuSans-32"/>
     <use x="1190.009766" xlink:href="#DejaVuSans-111"/>
     <use x="1251.191406" xlink:href="#DejaVuSans-102"/>
     <use x="1286.396484" xlink:href="#DejaVuSans-32"/>
     <use x="1318.183594" xlink:href="#DejaVuSans-78"/>
     <use x="1392.988281" xlink:href="#DejaVuSans-111"/>
     <use x="1454.169922" xlink:href="#DejaVuSans-100"/>
     <use x="1517.646484" xlink:href="#DejaVuSans-101"/>
     <use x="1579.169922" xlink:href="#DejaVuSans-115"/>
     <use x="1631.269531" xlink:href="#DejaVuSans-32"/>
     <use x="1663.056641" xlink:href="#DejaVuSans-119"/>
     <use x="1744.84375" xlink:href="#DejaVuSans-105"/>
     <use x="1772.626953" xlink:href="#DejaVuSans-116"/>
     <use x="1811.835938" xlink:href="#DejaVuSans-104"/>
     <use x="1875.214844" xlink:href="#DejaVuSans-32"/>
     <use x="1907.001953" xlink:href="#DejaVuSans-73"/>
     <use x="1936.494141" xlink:href="#DejaVuSans-110"/>
     <use x="1999.873047" xlink:href="#DejaVuSans-100"/>
     <use x="2063.349609" xlink:href="#DejaVuSans-105"/>
     <use x="2091.132812" xlink:href="#DejaVuSans-118"/>
     <use x="2150.3125" xlink:href="#DejaVuSans-105"/>
     <use x="2178.095703" xlink:href="#DejaVuSans-100"/>
     <use x="2241.572266" xlink:href="#DejaVuSans-117"/>
     <use x="2304.951172" xlink:href="#DejaVuSans-97"/>
     <use x="2366.230469" xlink:href="#DejaVuSans-108"/>
     <use x="2394.013672" xlink:href="#DejaVuSans-32"/>
     <use x="2425.800781" xlink:href="#DejaVuSans-80"/>
     <use x="2486.103516" xlink:href="#DejaVuSans-86"/>
    </g>
   </g>
   <g id="legend_1">
    <g id="patch_7">
     <path d="M 891.975 635.8 
L 965 635.8 
Q 967 635.8 967 633.8 
L 967 561.409375 
Q 967 559.409375 965 559.409375 
L 891.975 559.409375 
Q 889.975 559.409375 889.975 561.409375 
L 889.975 633.8 
Q 889.975 635.8 891.975 635.8 
z
" style="fill:#ffffff;opacity:0.8;stroke:#cccccc;stroke-linejoin:miter;"/>
    </g>
    <g id="line2d_20">
     <path d="M 893.975 567.507812 
L 913.975 567.507812 
" style="fill:none;stroke:#ffffff;stroke-linecap:square;stroke-width:1.5;"/>
    </g>
    <g id="line2d_21">
     <defs>
      <path d="M -7.5 7.5 
L 7.5 7.5 
L 7.5 -7.5 
L -7.5 -7.5 
z
" id="mb75fd8bda3" style="stroke:#ffffff;stroke-linejoin:miter;"/>
     </defs>
     <g>
      <use style="fill:#0000ff;stroke:#ffffff;stroke-linejoin:miter;" x="903.975" xlink:href="#mb75fd8bda3" y="567.507812"/>
     </g>
    </g>
    <g id="text_18">
     <!-- Profile 0 -->
     <g transform="translate(921.975 571.007812)scale(0.1 -0.1)">
      <use xlink:href="#DejaVuSans-80"/>
      <use x="60.287109" xlink:href="#DejaVuSans-114"/>
      <use x="101.369141" xlink:href="#DejaVuSans-111"/>
      <use x="162.550781" xlink:href="#DejaVuSans-102"/>
      <use x="197.755859" xlink:href="#DejaVuSans-105"/>
      <use x="225.539062" xlink:href="#DejaVuSans-108"/>
      <use x="253.322266" xlink:href="#DejaVuSans-101"/>
      <use x="314.845703" xlink:href="#DejaVuSans-32"/>
      <use x="346.632812" xlink:href="#DejaVuSans-48"/>
     </g>
    </g>
    <g id="line2d_22">
     <path d="M 893.975 582.185938 
L 913.975 582.185938 
" style="fill:none;stroke:#ffffff;stroke-linecap:square;stroke-width:1.5;"/>
    </g>
    <g id="line2d_23">
     <defs>
      <path d="M -7.5 7.5 
L 7.5 7.5 
L 7.5 -7.5 
L -7.5 -7.5 
z
" id="m79799ecd62" style="stroke:#ffffff;stroke-linejoin:miter;"/>
     </defs>
     <g>
      <use style="fill:#800080;stroke:#ffffff;stroke-linejoin:miter;" x="903.975" xlink:href="#m79799ecd62" y="582.185938"/>
     </g>
    </g>
    <g id="text_19">
     <!-- Profile 1 -->
     <g transform="translate(921.975 585.685938)scale(0.1 -0.1)">
      <use xlink:href="#DejaVuSans-80"/>
      <use x="60.287109" xlink:href="#DejaVuSans-114"/>
      <use x="101.369141" xlink:href="#DejaVuSans-111"/>
      <use x="162.550781" xlink:href="#DejaVuSans-102"/>
      <use x="197.755859" xlink:href="#DejaVuSans-105"/>
      <use x="225.539062" xlink:href="#DejaVuSans-108"/>
      <use x="253.322266" xlink:href="#DejaVuSans-101"/>
      <use x="314.845703" xlink:href="#DejaVuSans-32"/>
      <use x="346.632812" xlink:href="#DejaVuSans-49"/>
     </g>
    </g>
    <g id="line2d_24">
     <path d="M 893.975 596.864063 
L 913.975 596.864063 
" style="fill:none;stroke:#ffffff;stroke-linecap:square;stroke-width:1.5;"/>
    </g>
    <g id="line2d_25">
     <defs>
      <path d="M -7.5 7.5 
L 7.5 7.5 
L 7.5 -7.5 
L -7.5 -7.5 
z
" id="m38f36f4adf" style="stroke:#ffffff;stroke-linejoin:miter;"/>
     </defs>
     <g>
      <use style="fill:#ff0000;stroke:#ffffff;stroke-linejoin:miter;" x="903.975" xlink:href="#m38f36f4adf" y="596.864063"/>
     </g>
    </g>
    <g id="text_20">
     <!-- Profile 2 -->
     <g transform="translate(921.975 600.364063)scale(0.1 -0.1)">
      <use xlink:href="#DejaVuSans-80"/>
      <use x="60.287109" xlink:href="#DejaVuSans-114"/>
      <use x="101.369141" xlink:href="#DejaVuSans-111"/>
      <use x="162.550781" xlink:href="#DejaVuSans-102"/>
      <use x="197.755859" xlink:href="#DejaVuSans-105"/>
      <use x="225.539062" xlink:href="#DejaVuSans-108"/>
      <use x="253.322266" xlink:href="#DejaVuSans-101"/>
      <use x="314.845703" xlink:href="#DejaVuSans-32"/>
      <use x="346.632812" xlink:href="#DejaVuSans-50"/>
     </g>
    </g>
    <g id="line2d_26">
     <path d="M 893.975 611.542187 
L 913.975 611.542187 
" style="fill:none;stroke:#ffffff;stroke-linecap:square;stroke-width:1.5;"/>
    </g>
    <g id="line2d_27">
     <defs>
      <path d="M -7.5 7.5 
L 7.5 7.5 
L 7.5 -7.5 
L -7.5 -7.5 
z
" id="m7a6579c684" style="stroke:#ffffff;stroke-linejoin:miter;"/>
     </defs>
     <g>
      <use style="fill:#808000;stroke:#ffffff;stroke-linejoin:miter;" x="903.975" xlink:href="#m7a6579c684" y="611.542187"/>
     </g>
    </g>
    <g id="text_21">
     <!-- Profile 3 -->
     <g transform="translate(921.975 615.042187)scale(0.1 -0.1)">
      <use xlink:href="#DejaVuSans-80"/>
      <use x="60.287109" xlink:href="#DejaVuSans-114"/>
      <use x="101.369141" xlink:href="#DejaVuSans-111"/>
      <use x="162.550781" xlink:href="#DejaVuSans-102"/>
      <use x="197.755859" xlink:href="#DejaVuSans-105"/>
      <use x="225.539062" xlink:href="#DejaVuSans-108"/>
      <use x="253.322266" xlink:href="#DejaVuSans-101"/>
      <use x="314.845703" xlink:href="#DejaVuSans-32"/>
      <use x="346.632812" xlink:href="#DejaVuSans-51"/>
     </g>
    </g>
    <g id="line2d_28">
     <path d="M 893.975 626.220312 
L 913.975 626.220312 
" style="fill:none;stroke:#ffffff;stroke-linecap:square;stroke-width:1.5;"/>
    </g>
    <g id="line2d_29">
     <defs>
      <path d="M -7.5 7.5 
L 7.5 7.5 
L 7.5 -7.5 
L -7.5 -7.5 
z
" id="mc7712443fa" style="stroke:#ffffff;stroke-linejoin:miter;"/>
     </defs>
     <g>
      <use style="fill:#00ff00;stroke:#ffffff;stroke-linejoin:miter;" x="903.975" xlink:href="#mc7712443fa" y="626.220312"/>
     </g>
    </g>
    <g id="text_22">
     <!-- Profile 4 -->
     <g transform="translate(921.975 629.720312)scale(0.1 -0.1)">
      <use xlink:href="#DejaVuSans-80"/>
      <use x="60.287109" xlink:href="#DejaVuSans-114"/>
      <use x="101.369141" xlink:href="#DejaVuSans-111"/>
      <use x="162.550781" xlink:href="#DejaVuSans-102"/>
      <use x="197.755859" xlink:href="#DejaVuSans-105"/>
      <use x="225.539062" xlink:href="#DejaVuSans-108"/>
      <use x="253.322266" xlink:href="#DejaVuSans-101"/>
      <use x="314.845703" xlink:href="#DejaVuSans-32"/>
      <use x="346.632812" xlink:href="#DejaVuSans-52"/>
     </g>
    </g>
   </g>
  </g>
 </g>
 <defs>
  <clipPath id="p2d2b6b8f1a">
   <rect height="554.4" width="837" x="135" y="86.4"/>
  </clipPath>
 </defs>
</svg>
